<svg id="Isolatiemodus" xmlns="http://www.w3.org/2000/svg" viewBox="0 0 184.28 447.49"><defs><style>.cls-1{fill:#473d34;}.cls-2{fill:#302924;}.cls-3{fill:#ffbc7d;}.cls-4,.cls-6,.cls-7{fill:#fff;}.cls-4{stroke:#000;}.cls-4,.cls-7{stroke-miterlimit:10;}.cls-5{fill:#1bb25f;}.cls-7{stroke:#e4585b;}.cls-8{fill:#f4f42f;}.cls-9{fill:#d8d430;}.cls-10{fill:#0a6add;}</style></defs><title>img_</title><path class="cls-1" d="M103.48,3.19s37.95-5.7,50.25,21.18S162.85,48.68,167.4,57s5.15,18.71,10.32,25.58-12.22,82.6-24.94,86.86-26.15-2.09-36.59-3.44-56.66.58-63.9,1.93S32.55,53.18,32.55,53.18Z"/><path class="cls-2" d="M94.51,18.23s37.91-8.92,50.21,18,5.17,16,8.72,24.8c10.32,25.58,10.12,17,10.32,25.58,0.91,39.76-12.22,82.6-24.94,86.86s-26.15-2.09-36.59-3.44-56.66.58-63.9,1.93S18.59,57.16,18.59,57.16Z"/><circle class="cls-3" cx="139.75" cy="80.75" r="4.96"/><path class="cls-3" d="M41.53,74.17c0-23.78,25.18-43.07,49-43.07,21.57,0,43.95-4.44,48,16.25,0.42,2.13,1.22,24.6,1.22,26.82,0,23.78-25.48,43.07-49.26,43.07S41.53,98,41.53,74.17Z"/><rect class="cls-3" x="77.74" y="108.05" width="29.16" height="24.4"/><path class="cls-1" d="M108.59,51.63C88.34,62.8,42.37,55.16,42.53,66.91S46.89,82.77,52.39,101c1.74,5.78,5.43,5,7.36,11,4.16,13,2,61.35.73,62.62-1.86,1.86-38.57-14.44-50.36-39.46s-11.06-56.56-5.58-62,3.62-18,10.55-34.84,19.75-25.12,29.16-33,71-3.55,77.29-2.62S128.83,40.46,108.59,51.63Z"/><path class="cls-3" d="M59.38,133.68s33.64-12.78,61.25-.33-17.11,23.24-17.11,23.24l-28.14,2.08Z"/><path d="M117.49,60.56s7.95,1.85,11.34,2l3.39,0.11s-9.39,10-11.46,10.9S117.49,60.56,117.49,60.56Z"/><circle class="cls-4" cx="116.01" cy="67.55" r="6.99"/><circle class="cls-5" cx="116.01" cy="67.55" r="5.99"/><circle cx="116.01" cy="67.55" r="4.64"/><circle class="cls-6" cx="118.11" cy="64.06" r="2.05"/><circle class="cls-6" cx="114.01" cy="72.32" r="0.93"/><path d="M67.08,61.33s-4.94,2.73-8.33,2.84l-3.39.11s9.39,10,11.46,10.9S67.08,61.33,67.08,61.33Z"/><circle class="cls-4" cx="69.91" cy="67.55" r="6.99"/><circle class="cls-5" cx="69.91" cy="67.55" r="5.99"/><circle cx="69.91" cy="67.55" r="4.64"/><circle class="cls-6" cx="67.81" cy="64.06" r="2.05"/><circle class="cls-6" cx="71.92" cy="72.32" r="0.93"/><path class="cls-7" d="M73.39,89.47c5.6,13,11.1,14.37,17.46,14.37,4.55-.18,11.88-1.37,17.47-14.37H73.39Z"/><path class="cls-3" d="M44.56,220.24s-19.57,45.44-25,53c-2.61,3.64-5.23,8.91-11.66,8.48-3.77-.25-7.17-3.45-7.17-8.48s7-12.27,7-12.27-8.45,3.68-7-1.1,9-5.5,9-5.5l16.66-39.78Z"/><path class="cls-3" d="M140.28,220.24s19.57,45.44,25,53c2.61,3.64,5.23,8.91,11.66,8.48,3.77-.25,7.17-3.45,7.17-8.48s-7-12.27-7-12.27,8.45,3.68,7-1.1-9-5.5-9-5.5l-16.66-39.78Z"/><path class="cls-8" d="M146.75,160.74c-4.1-14.12-13-26.38-29.47-29.19-6.41-1.1-17.18,14.79-26.43,15.24-9.24-.45-17.54-16.34-24-15.24-16.42,2.81-25.37,15.07-29.47,29.19S22,217.66,22,217.66l24.7,5.29,12.07-40.5,0.66,54L85.81,261l38.95-24.52,0.66-54,12.07,40.5,24.7-5.29S150.84,174.86,146.75,160.74Z"/><polygon class="cls-9" points="19.55 204.77 22 217.71 46.69 223.04 54.42 212.82 19.55 204.77"/><polygon class="cls-9" points="164.66 204.77 162.22 217.71 137.53 223.04 129.8 212.82 164.66 204.77"/><polygon class="cls-9" points="62.04 132.72 90.86 154.29 122.17 132.73 114.48 130.94 90.85 146.8 69.91 130.65 62.04 132.72"/><rect class="cls-9" x="87.53" y="149.26" width="6.59" height="97.93"/><path class="cls-9" d="M54.06,414.92s-2.85,18.7,0,26.35,12.3,7.13,13.77.21,3.28-25.58,3.28-25.58Z"/><path class="cls-9" d="M129.64,414.92s2.85,18.7,0,26.35-12.3,7.13-13.77.21-3.28-25.58-3.28-25.58Z"/><path class="cls-10" d="M124.76,236.46s-15.53,10.24-32.83,11.63c-17.3-1.4-32.83-11.63-32.83-11.63s-5.3,153.87-5,177.63,11.51,7.36,15.51,6.73,12.62-131.41,15.56-140c1.47-4.31,3.44-5.94,5.32-5.73a4.33,4.33,0,0,0,1.49-.63,4.33,4.33,0,0,0,1.49.63c1.88-.21,3.85,1.42,5.32,5.73,2.94,8.62,11.56,139.4,15.56,140s15.24,17,15.51-6.73S124.76,236.46,124.76,236.46Z"/><path class="cls-1" d="M109.05,57.84c4.66-1.44,5-2.83,13.9-.2l2.2,1.4s-6.39-9.72-17.13-1.69C108,57.35,107.69,58.26,109.05,57.84Z"/></svg>