<svg id="Isolatiemodus" xmlns="http://www.w3.org/2000/svg" viewBox="0 0 184.28 447.49"><defs><style>.cls-1{fill:#473d34;}.cls-2{fill:#302924;}.cls-3{fill:#ffbc7d;}.cls-4,.cls-6,.cls-7{fill:#fff;}.cls-4{stroke:#000;}.cls-4,.cls-7{stroke-miterlimit:10;}.cls-5{fill:#1bb25f;}.cls-7{stroke:#e4585b;}.cls-8{fill:#f4f42f;}.cls-9{fill:#d8d430;}.cls-10{fill:#0a6add;}</style></defs><title>img_</title><path class="cls-1" d="M103.23,2.48s38.06-5.72,50.4,21.24,9.15,24.39,13.71,32.73,5.16,18.77,10.35,25.65-12.26,82.86-25,87.12-26.23-2.1-36.7-3.46-56.83.58-64.09,1.94S32.08,52.63,32.08,52.63Z"/><path class="cls-2" d="M94.23,17.57s38-9,50.37,18,5.19,16.06,8.74,24.88c10.35,25.65,10.15,17,10.35,25.65,0.91,39.88-12.26,82.86-25,87.12s-26.23-2.1-36.7-3.46-56.83.58-64.09,1.94S18.08,56.63,18.08,56.63Z"/><circle class="cls-3" cx="139.62" cy="80.28" r="4.98"/><path class="cls-3" d="M41.09,73.68c0-23.86,25.26-43.2,49.11-43.2,21.63,0,44.08-4.45,48.19,16.3,0.42,2.13,1.22,24.67,1.22,26.9,0,23.86-25.55,43.2-49.41,43.2S41.09,97.54,41.09,73.68Z"/><rect class="cls-3" x="77.41" y="107.66" width="29.25" height="24.48"/><path class="cls-1" d="M108.35,51.07C88,62.28,41.94,54.61,42.1,66.4S46.47,82.3,52,100.62c1.75,5.8,5.45,5,7.38,11.06,4.18,13.09,2,61.54.73,62.81C58.23,176.36,21.41,160,9.58,134.91S-1.51,78.18,4,72.68s3.63-18,10.58-35S34.37,12.53,43.81,4.65,115,1.09,121.34,2,128.66,39.87,108.35,51.07Z"/><path class="cls-3" d="M59,133.37s33.75-12.82,61.44-.33-17.16,23.31-17.16,23.31l-28.22,2.08Z"/><path d="M118.64,60.81s5,2.74,8.35,2.85l3.4,0.11S121,73.85,118.9,74.7,118.64,60.81,118.64,60.81Z"/><circle class="cls-4" cx="115.81" cy="67.04" r="7.01"/><circle class="cls-5" cx="115.81" cy="67.04" r="6.01"/><circle cx="115.81" cy="67.04" r="4.65"/><circle class="cls-6" cx="117.91" cy="63.54" r="2.06"/><circle class="cls-6" cx="113.79" cy="71.82" r="0.94"/><path class="cls-1" d="M108.22,60.27c5.43-2.27,5.68-4,16.69-1.83l2.8,1.44s-8.8-11-20.79-.07C106.93,59.8,106.63,60.93,108.22,60.27Z"/><path d="M66.72,60.81s-5,2.74-8.35,2.85l-3.4.11S64.39,73.85,66.46,74.7,66.72,60.81,66.72,60.81Z"/><circle class="cls-4" cx="69.56" cy="67.04" r="7.01"/><circle class="cls-5" cx="69.56" cy="67.04" r="6.01"/><circle cx="69.56" cy="67.04" r="4.65"/><circle class="cls-6" cx="67.46" cy="63.54" r="2.06"/><circle class="cls-6" cx="71.57" cy="71.82" r="0.94"/><path class="cls-7" d="M108.09,100.5c-5-10-11.13-7.79-17.52-7.79C86,92.9,77.08,90.5,73,100.5h35Z"/><path class="cls-3" d="M44.13,220.2S24.5,265.77,19.05,273.38c-2.62,3.65-5.25,8.94-11.7,8.51-3.78-.25-7.2-3.46-7.2-8.51s7.07-12.31,7.07-12.31-8.48,3.7-7.07-1.1,9.05-5.52,9.05-5.52l16.71-39.9Z"/><path class="cls-3" d="M140.15,220.2s19.63,45.58,25.08,53.18c2.62,3.65,5.25,8.94,11.7,8.51,3.78-.25,7.2-3.46,7.2-8.51s-7.07-12.31-7.07-12.31,8.48,3.7,7.07-1.1-9.05-5.52-9.05-5.52l-16.71-39.9Z"/><path class="cls-8" d="M146.63,160.52c-4.11-14.16-13.09-26.46-29.56-29.28-6.43-1.1-17.24,14.84-26.51,15.29-9.27-.45-17.6-16.39-24-15.29C50.07,134.06,41.09,146.36,37,160.52s-15.48,57.1-15.48,57.1l24.77,5.3,12.1-40.63L59,236.47l26.48,24.6,39.07-24.6,0.66-54.18,12.1,40.63,24.77-5.3S150.74,174.68,146.63,160.52Z"/><polygon class="cls-9" points="19.05 204.69 21.5 217.66 46.27 223.01 54.02 212.76 19.05 204.69"/><polygon class="cls-9" points="164.6 204.69 162.15 217.66 137.38 223.01 129.64 212.76 164.6 204.69"/><polygon class="cls-9" points="61.66 132.41 90.57 154.05 121.98 132.42 114.27 130.63 90.57 146.53 69.56 130.33 61.66 132.41"/><rect class="cls-9" x="87.23" y="149.01" width="6.61" height="98.22"/><path class="cls-9" d="M53.66,415.48s-2.86,18.76,0,26.43,12.34,7.15,13.81.21,3.29-25.66,3.29-25.66Z"/><path class="cls-9" d="M129.47,415.48s2.86,18.76,0,26.43-12.34,7.15-13.81.21-3.29-25.66-3.29-25.66Z"/><path class="cls-10" d="M124.58,236.47S109,246.74,91.65,248.14c-17.35-1.4-32.93-11.67-32.93-11.67s-5.32,154.34-5.06,178.17S65.2,422,69.21,421.39,81.87,289.58,84.82,280.93c1.48-4.32,3.45-6,5.34-5.75a4.35,4.35,0,0,0,1.49-.63,4.34,4.34,0,0,0,1.49.63c1.88-.21,3.86,1.43,5.34,5.75,3,8.65,11.6,139.82,15.61,140.46s15.29,17.08,15.55-6.75S124.58,236.47,124.58,236.47Z"/></svg>