<svg id="Laag_1" data-name="Laag 1" xmlns="http://www.w3.org/2000/svg" xmlns:xlink="http://www.w3.org/1999/xlink" viewBox="0 0 436.83 285.14"><defs><style>.cls-1{fill:none;}.cls-2{clip-path:url(#clip-path);}.cls-3{fill:#009fe3;}.cls-4{fill:#ecac27;}.cls-5{fill:#e6332a;}.cls-6{fill:#c57eaf;}.cls-7{fill:#2fac66;}.cls-8{fill:#1a4b72;}</style><clipPath id="clip-path"><rect class="cls-1" width="436.83" height="285.14"/></clipPath></defs><title>img_</title><g class="cls-2"><path class="cls-3" d="M158.92,131.66c-20,0-33.35,12.33-33.35,31.09s13.34,31.2,33.35,31.2,33.24-12.44,33.24-31.2-13.34-31.09-33.24-31.09m0,47.14c-8.14,0-13.68-6.33-13.68-15.83s5.54-15.83,13.68-15.83,13.57,6.44,13.57,15.83S166.95,178.8,158.92,178.8ZM182.83,114V130.3h23.63v63h20.12v-63h23.85V114h-67.6ZM77.89,130.3H89.23V177H77.89v16.28H121.8V177H109.35V130.3H121.8V114H77.89V130.3Z"/><path class="cls-4" d="M163.74,89.63a10.47,10.47,0,1,1-10.47-10.47,10.47,10.47,0,0,1,10.47,10.47"/><path class="cls-5" d="M275.31,56.76a15,15,0,1,1-15-15,15,15,0,0,1,15,15"/><path class="cls-6" d="M286.36,262a20.31,20.31,0,1,1-20.3-20.31A20.31,20.31,0,0,1,286.36,262"/><path class="cls-7" d="M111.62,25.1A22.26,22.26,0,1,1,89.37,2.84,22.26,22.26,0,0,1,111.62,25.1"/><path class="cls-3" d="M104,229.29a13.19,13.19,0,1,0,13.19,13.19A13.19,13.19,0,0,0,104,229.29"/><path class="cls-8" d="M177.89,217.61a10.47,10.47,0,1,0,10.47-10.47,10.47,10.47,0,0,0-10.47,10.47m225.22-86c-15.42,0-26.84,8.31-30.51,21.64-3.29-13.3-13.46-21.64-27.46-21.64a22.2,22.2,0,0,0-18.2,8.71v-8H307.39v17.06c-4.83-11-15.9-17.74-30.56-17.74-20,0-33.35,12.33-33.35,31.09s13.34,31.2,33.35,31.2c14.66,0,25.74-6.76,30.56-17.83V215.2h19.56V185.13c4.29,5.65,10.74,8.82,18.65,8.82,13.9,0,23.82-8.17,27-21.21,3.65,13,14.89,21.21,31,21.21,11.19,0,20.35-4,26.57-10.74l-10.29-10.06a20.6,20.6,0,0,1-14.58,6.22c-7.24,0-12.44-4.07-14.36-11.3h42.84C435.21,145.79,424.59,131.66,403.11,131.66ZM276.82,178.8c-8.14,0-13.68-6.33-13.68-15.83s5.54-15.83,13.68-15.83,13.57,6.44,13.57,15.83S284.85,178.8,276.82,178.8Zm63.57-.33c-7.91,0-13.45-6.45-13.45-15.94,0-9.27,5.54-15.83,13.45-15.83,8.14,0,13.68,6.55,13.68,15.83S348.53,178.46,340.4,178.46Zm50.27-20.92c1.24-7.35,5.88-12.33,12.66-12.33,7,0,11.76,4.87,11.76,12.33H390.67ZM155.52,59a96.73,96.73,0,0,1,80.3,42.7l6.55-4.43A105,105,0,0,0,234,86.46l10.7-10.2-5.46-5.73-10.69,10.2A104.78,104.78,0,0,0,112.06,60.51l-4.22-8.4-7.07,3.55L105,64.08a105,105,0,0,0-48.75,58.25l7.5,2.53A96.89,96.89,0,0,1,155.52,59ZM41.76,131.66a22.21,22.21,0,0,0-18.2,8.71V114H4v79.25H23.56v-8.14c4.3,5.65,10.74,8.82,18.65,8.82,17.07,0,28.15-12.32,28.15-30.86C70.36,144.21,58.94,131.66,41.76,131.66ZM37,178.46c-7.91,0-13.45-6.45-13.45-15.94,0-9.27,5.54-15.83,13.45-15.83,8.14,0,13.68,6.55,13.68,15.83S45.15,178.46,37,178.46ZM242.32,198.8a97,97,0,0,1-117.86,48.78,20.94,20.94,0,0,1-3.35,7.21,104.81,104.81,0,0,0,106.81-23.28l12.18,11.8,5.51-5.68-12.17-11.8a105,105,0,0,0,16-23.51ZM73.37,207.12l-6.71,4.2A104.87,104.87,0,0,0,85,233.3a21.18,21.18,0,0,1,4.76-6.38A97.28,97.28,0,0,1,73.37,207.12Z"/></g></svg>