<svg id="Isolatiemodus" xmlns="http://www.w3.org/2000/svg" viewBox="0 0 229.06 524.48"><defs><style>.cls-1{fill:#ffbc7d;}.cls-2{fill:#26c6da;}.cls-3{fill:#4a4b4c;}.cls-4{fill:#00c853;}.cls-5{fill:#7c4dff;}.cls-6,.cls-8{fill:#fff;}.cls-6{stroke:#000;stroke-miterlimit:10;}.cls-7{fill:#4ca1af;}.cls-9{fill:#894e27;}.cls-10{fill:#723e21;}.cls-11{fill:#a58472;}</style></defs><title>img_</title><path class="cls-1" d="M65.2,117s53.17-12.81,96.8-.33S135,140,135,140L90.5,142.06Z"/><path class="cls-2" d="M211.45,210.28s-0.79-26.71-7.4-49.1S183,119.36,156.47,114.91c-10.17-1.71-27.15,22.58-41.9,24.09-14.75-1.51-31.72-25.8-41.9-24.09-26.51,4.45-41,23.89-47.58,46.28s1.08,57.27,1.08,57.27L40,226.83,46.2,217a108.39,108.39,0,0,0-.44,21c2.89,46,14.84,43.25,14.84,43.25l53,20.64,0.06,0.72,0.89-.35,0.89,0.35,0.06-.72,53-20.64s12,2.78,14.84-43.25a108.39,108.39,0,0,0-.44-21l6.15,9.85Z"/><path class="cls-3" d="M74.59,517.19c-8.46,9.21-11.88,7-17.18.66s-4.35-21.17-4.35-21.17-0.51-9.52-.94-13.69,28-3.81,28-3.81S83,508,74.59,517.19Z"/><path class="cls-3" d="M155.12,517.19c8.46,9.21,11.88,7,17.18.66s4.35-21.17,4.35-21.17,0.51-9.52.94-13.69-28-3.81-28-3.81S146.66,508,155.12,517.19Z"/><path class="cls-4" d="M185,372a630.75,630.75,0,0,0-11.76-94.74s-29.76,4.83-58.18,6.5l-0.68,0-0.68,0c-28.42-1.66-58.18-6.5-58.18-6.5A630.77,630.77,0,0,0,43.75,372c-2,46.93,7.67,93.23,7.88,106.63,0.43,27.89,19,8.64,25.6,7.9,1.09-.12,2.61-4.66,4.36-12.14,4.33-18.55,10.06-55.18,14.06-87.39,3.87-31.11,5.05-57,6.87-63.71a2.85,2.85,0,0,0,.85-1.12c2.23-4.65,5.16-6.64,8-6.74h0.76a8.2,8.2,0,0,0,2.22-.65,8.2,8.2,0,0,0,2.22.65h0.76c2.87,0.11,5.79,2.1,8,6.74a2.85,2.85,0,0,0,.85,1.12c1.82,6.73,3,32.6,6.87,63.71,5.61,45.2,14.62,99.1,18.42,99.53,6.59,0.74,25.16,20,25.6-7.9C177.32,465.25,187,419,185,372Z"/><rect class="cls-5" x="150.98" y="115.31" width="9.18" height="167.97"/><rect class="cls-5" x="68.98" y="115.31" width="9.18" height="167.97" transform="translate(147.14 398.59) rotate(-180)"/><path class="cls-1" d="M63.06,59.24c0-23.85,25.25-43.18,49.1-43.18,21.62,0,44.06-4.45,48.17,16.29,0.42,2.13,1.22,24.67,1.22,26.89,0,23.85-25.54,43.18-49.39,43.18S63.06,83.09,63.06,59.24Z"/><circle class="cls-1" cx="161.55" cy="65.84" r="4.98"/><rect class="cls-1" x="99.37" y="93.21" width="29.24" height="24.47"/><circle class="cls-6" cx="137.75" cy="52.6" r="7.01"/><circle class="cls-7" cx="137.75" cy="52.6" r="6.01"/><circle cx="137.75" cy="52.6" r="4.65"/><circle class="cls-8" cx="139.85" cy="49.1" r="2.06"/><circle class="cls-8" cx="135.73" cy="57.38" r="0.94"/><circle class="cls-6" cx="91.52" cy="52.6" r="7.01"/><circle class="cls-7" cx="91.52" cy="52.6" r="6.01"/><circle cx="91.52" cy="52.6" r="4.65"/><circle class="cls-8" cx="89.42" cy="49.1" r="2.06"/><circle class="cls-8" cx="93.53" cy="57.38" r="0.94"/><path class="cls-9" d="M159.42,55.6s-6.12,12-12.46,18.22-9.61-2.63-34.53-2.08c-24.92-.55-28.32,8.17-34.53,2.08S65.43,55.6,65.43,55.6s-3.09,22.28,0,28.36c10.17,20,32.81,30.56,46.88,31h0.24c14.06-.44,36.7-11,46.88-31C162.51,77.88,159.42,55.6,159.42,55.6Z"/><path class="cls-10" d="M115.78-.05s42.47-3.76,44,10.84,5.8,47.11,0,55.05c-2.72,0-16.22-45-32.67-47.37S115.78,4.13,115.78,4.13V-0.05Z"/><path class="cls-9" d="M63.86,49.1c2.1-6.84-2-26.45,9.46-34.68s33.41-17,43-14.47,27.24,9.9,5.54,23.82S75.4,46.69,71.77,54.26C59.35,80.13,63.13,67,48.41,76.88c-1-.91-0.28-3.08,2.52-5C59.47,65.84,61.77,55.94,63.86,49.1Z"/><polygon class="cls-8" points="99.09 91.64 127.18 91.64 128.6 93.64 95.35 93.64 99.09 91.64"/><path class="cls-11" d="M55.51,277.28L53.59,287s76.05,15.87,121.51,0l-1.87-9.76s-7,1.31-24,3.16C130.91,282.43,100.92,284.71,55.51,277.28Z"/><path class="cls-1" d="M32.83,225.8s57.85,7.11,70.39,5.48c6-.78,13.2-0.42,21.43-9.08,4.83-5.08,7.1-11.8,3.57-15.41s-18,.37-18,0.37,19.41-3.29,14.19-4.9S103,205,103,205l-50-6.84Z"/><path class="cls-1" d="M208.09,222.21S129,235.69,113.6,234c-7.39-.8-16.91-0.21-22.81-10.32-3.46-5.93-2.69-13.87,3.9-18.23s23.13,0,23.13,0-17.27-.83-9.6-2.85,20.23,0.13,20.23.13l68.78-9.23Z"/><path class="cls-2" d="M176.23,190.18l-2.14,39.65L214,221.45s3.87-26.59-5.88-45S176.23,190.18,176.23,190.18Z"/><polygon class="cls-9" points="146.02 43.27 128.78 45.59 128.78 43.51 144.79 40.65 146.02 43.27"/><polygon class="cls-9" points="83.4 43.27 99.78 45.59 99.78 43.51 84.2 40.65 83.4 43.27"/><path class="cls-2" d="M53.59,190.18l2.14,39.65-39.88-8.38s-3.87-26.59,5.88-45S53.59,190.18,53.59,190.18Z"/></svg>