<svg id="Isolatiemodus" xmlns="http://www.w3.org/2000/svg" viewBox="0 0 285.45 524.07"><defs><style>.cls-1{fill:#ffbc7d;}.cls-2{fill:#26c6da;}.cls-3{fill:#4a4b4c;}.cls-4{fill:#00c853;}.cls-5{fill:#7c4dff;}.cls-6,.cls-8{fill:#fff;}.cls-6{stroke:#000;stroke-miterlimit:10;}.cls-7{fill:#4ca1af;}.cls-9{fill:#894e27;}.cls-10{fill:#723e21;}.cls-11{fill:#a58472;}</style></defs><title>img_bruce</title><path class="cls-1" d="M81.78,210.38S45.41,256,35.31,263.56c-4.85,3.65-9.73,8.94-21.68,8.51-7-.25-13.34-3.46-13.34-8.51s13.1-12.31,13.1-12.31-15.71,3.7-13.1-1.1,16.78-5.52,16.78-5.52l31-39.9Z"/><path class="cls-1" d="M205.43,188.53s35.59,71.34,45.47,83.25c4.75,5.72,9.52,14,21.21,13.32,6.86-.39,13-5.42,13-13.32s-12.82-19.26-12.82-19.26,15.37,5.79,12.82-1.73-16.42-8.64-16.42-8.64l-30.31-62.46Z"/><path class="cls-1" d="M97.5,117.55s53.19-12.82,96.84-.33-27,23.31-27,23.31l-44.48,2.08Z"/><path class="cls-2" d="M261.33,219S243,184.14,236.4,161.74s-21.08-41.84-47.6-46.29c-10.18-1.71-27.16,22.59-41.91,24.1-14.75-1.51-31.73-25.81-41.91-24.1-26.52,4.45-41,23.9-47.6,46.29S32.45,219,32.45,219l39.89,8.38,6.15-9.86a108.43,108.43,0,0,0-.44,21c2.89,46,14.84,43.26,14.84,43.26l53,20.64,0.06,0.72,0.89-.35,0.89,0.35,0.06-.72,53-20.64s12,2.78,14.84-43.26a108.43,108.43,0,0,0-.44-21l6.15,9.86Z"/><path class="cls-3" d="M106.89,517.88c-8.46,9.21-11.89,7-17.19.66s-4.35-21.18-4.35-21.18-0.51-9.53-.94-13.69,28.05-3.82,28.05-3.82S115.35,508.67,106.89,517.88Z"/><path class="cls-3" d="M187.45,517.88c8.46,9.21,11.89,7,17.19.66S209,497.36,209,497.36s0.51-9.53.94-13.69-28.05-3.82-28.05-3.82S179,508.67,187.45,517.88Z"/><path class="cls-4" d="M217.33,372.66a631,631,0,0,0-11.77-94.78s-29.77,4.84-58.2,6.5l-0.68,0-0.68,0c-28.43-1.67-58.2-6.5-58.2-6.5A631,631,0,0,0,76,372.66c-2,46.95,7.68,93.26,7.88,106.66,0.43,27.9,19,8.64,25.6,7.9,1.09-.12,2.61-4.66,4.36-12.14,4.33-18.55,10.06-55.2,14.06-87.42,3.87-31.12,5.05-57,6.88-63.73a2.85,2.85,0,0,0,.85-1.12c2.23-4.65,5.16-6.64,8-6.74h0.76a8.2,8.2,0,0,0,2.22-.65,8.21,8.21,0,0,0,2.22.65h0.76c2.87,0.11,5.79,2.1,8,6.74a2.85,2.85,0,0,0,.85,1.12c1.82,6.73,3,32.61,6.88,63.73C171,432.88,180,486.8,183.85,487.22c6.6,0.74,25.17,20,25.6-7.9C209.66,465.92,219.38,419.61,217.33,372.66Z"/><rect class="cls-5" x="183.31" y="115.85" width="9.18" height="168.03"/><rect class="cls-5" x="101.28" y="115.85" width="9.18" height="168.03" transform="translate(211.74 399.74) rotate(-180)"/><path class="cls-1" d="M95.36,59.77c0-23.86,25.26-43.2,49.11-43.2,21.63,0,44.08-4.45,48.19,16.3,0.42,2.13,1.22,24.67,1.22,26.9,0,23.86-25.55,43.2-49.41,43.2S95.36,83.63,95.36,59.77Z"/><circle class="cls-1" cx="193.88" cy="66.37" r="4.98"/><rect class="cls-1" x="131.68" y="93.75" width="29.25" height="24.48"/><circle class="cls-6" cx="170.07" cy="53.12" r="7.01"/><circle class="cls-7" cx="170.07" cy="53.12" r="6.01"/><circle cx="170.07" cy="53.12" r="4.65"/><circle class="cls-8" cx="172.18" cy="49.62" r="2.06"/><circle class="cls-8" cx="168.06" cy="57.91" r="0.94"/><circle class="cls-6" cx="123.83" cy="53.12" r="7.01"/><circle class="cls-7" cx="123.83" cy="53.12" r="6.01"/><circle cx="123.83" cy="53.12" r="4.65"/><circle class="cls-8" cx="121.72" cy="49.62" r="2.06"/><circle class="cls-8" cx="125.84" cy="57.91" r="0.94"/><path class="cls-9" d="M191.75,56.12s-6.12,12-12.47,18.22-9.62-2.63-34.54-2.08c-24.93-.55-28.33,8.17-34.54,2.08S97.73,56.12,97.73,56.12s-3.09,22.29,0,28.37c10.18,20,32.83,30.57,46.89,31h0.24c14.07-.44,36.72-11,46.89-31C194.84,78.41,191.75,56.12,191.75,56.12Z"/><path class="cls-8" d="M127.32,80.15c5.61,10,11.13,11.1,17.52,11.1,4.57-.14,11.91-1.1,17.53-11.1h-35Z"/><path class="cls-10" d="M145.92,0.45S189.49-3.31,191,11.29s6.34,47.13.58,55.07c-2.72,0-17-45-33.5-47.38S145.92,4.63,145.92,4.63V0.45Z"/><path class="cls-9" d="M96.16,49.62c2.1-6.84-2-26.46,9.46-34.7s33.42-17,43-14.47,27.25,9.91,5.54,23.82-46.46,22.93-50.1,30.5C91.65,80.66,95.43,67.57,80.7,77.41c-1-.92-0.28-3.08,2.52-5C91.76,66.37,94.07,56.46,96.16,49.62Z"/><path class="cls-11" d="M87.8,277.88l-1.92,9.76s76.08,15.87,121.55,0l-1.87-9.76s-7,1.31-24,3.16C163.23,283,133.23,285.32,87.8,277.88Z"/></svg>