<svg id="Isolatiemodus" xmlns="http://www.w3.org/2000/svg" viewBox="0 0 287.07 226.05"><defs><style>.cls-1{fill:#e57373;}.cls-2{fill:#c5e1a5;}</style></defs><title>img_</title><circle class="cls-1" cx="113.02" cy="113.02" r="113.02"/><path class="cls-2" d="M113,113L218.74,73q1.82,4.81,3.19,9.76t2.29,10Z"/><path class="cls-2" d="M231.71,85.54h-1V77.32h4.58v0.85h-3.63v3h3.41V82h-3.41v3.51Z"/><path class="cls-2" d="M239.37,79.26a3.66,3.66,0,0,1,.74.07L240,80.2a3.16,3.16,0,0,0-.67-0.08,1.64,1.64,0,0,0-1.28.61,2.21,2.21,0,0,0-.53,1.51v3.31h-0.93V79.37h0.77l0.11,1.14h0a2.71,2.71,0,0,1,.83-0.93A1.86,1.86,0,0,1,239.37,79.26Z"/><path class="cls-2" d="M243.86,85.65a2.83,2.83,0,0,1-2.16-.83,3.22,3.22,0,0,1-.79-2.31,3.58,3.58,0,0,1,.73-2.37,2.44,2.44,0,0,1,2-.88,2.32,2.32,0,0,1,1.83.76,2.92,2.92,0,0,1,.67,2v0.59h-4.25a2.44,2.44,0,0,0,.55,1.65,1.9,1.9,0,0,0,1.46.56,5,5,0,0,0,2-.42v0.83a4.89,4.89,0,0,1-.94.31A5.29,5.29,0,0,1,243.86,85.65ZM243.61,80a1.52,1.52,0,0,0-1.18.48,2.24,2.24,0,0,0-.52,1.34h3.22a2.05,2.05,0,0,0-.39-1.35A1.39,1.39,0,0,0,243.61,80Z"/><path class="cls-2" d="M250.32,85.65a2.83,2.83,0,0,1-2.16-.83,3.22,3.22,0,0,1-.79-2.31,3.58,3.58,0,0,1,.73-2.37,2.44,2.44,0,0,1,2-.88,2.32,2.32,0,0,1,1.83.76,2.92,2.92,0,0,1,.67,2v0.59h-4.25a2.44,2.44,0,0,0,.55,1.65,1.9,1.9,0,0,0,1.46.56,5,5,0,0,0,2-.42v0.83a4.89,4.89,0,0,1-.94.31A5.29,5.29,0,0,1,250.32,85.65ZM250.07,80a1.52,1.52,0,0,0-1.18.48,2.24,2.24,0,0,0-.52,1.34h3.22a2.05,2.05,0,0,0-.39-1.35A1.39,1.39,0,0,0,250.07,80Z"/><path class="cls-2" d="M261.15,83.86a1.54,1.54,0,0,1-.64,1.33,3,3,0,0,1-1.8.47,3.91,3.91,0,0,1-1.91-.39V84.4a4.58,4.58,0,0,0,1,.35,4,4,0,0,0,1,.13,2.21,2.21,0,0,0,1.12-.23,0.8,0.8,0,0,0,.08-1.33,4.9,4.9,0,0,0-1.22-.6,6.64,6.64,0,0,1-1.22-.56,1.67,1.67,0,0,1-.54-0.54,1.42,1.42,0,0,1-.18-0.73,1.38,1.38,0,0,1,.61-1.19,2.86,2.86,0,0,1,1.68-.44,4.91,4.91,0,0,1,1.95.41l-0.33.76A4.46,4.46,0,0,0,259,80a1.94,1.94,0,0,0-1,.21,0.64,0.64,0,0,0-.34.57,0.7,0.7,0,0,0,.13.42,1.25,1.25,0,0,0,.41.33,9.13,9.13,0,0,0,1.08.46,4,4,0,0,1,1.48.8A1.42,1.42,0,0,1,261.15,83.86Z"/><path class="cls-2" d="M265.53,85.65a2.68,2.68,0,0,1-1.1-.22,2.07,2.07,0,0,1-.83-0.68h-0.07a8.29,8.29,0,0,1,.07,1V88.3h-0.93V79.37h0.76l0.13,0.84h0a2.17,2.17,0,0,1,.84-0.73,2.55,2.55,0,0,1,1.1-.22,2.28,2.28,0,0,1,1.89.84,4.46,4.46,0,0,1,0,4.71A2.28,2.28,0,0,1,265.53,85.65Zm-0.13-5.59a1.65,1.65,0,0,0-1.37.52,2.69,2.69,0,0,0-.43,1.66v0.21a3.09,3.09,0,0,0,.43,1.86,1.65,1.65,0,0,0,1.39.56,1.44,1.44,0,0,0,1.25-.65,3.07,3.07,0,0,0,.45-1.78,3,3,0,0,0-.45-1.77A1.49,1.49,0,0,0,265.39,80.06Z"/><path class="cls-2" d="M273.51,85.54l-0.19-.88h0a2.59,2.59,0,0,1-.92.78,2.8,2.8,0,0,1-1.14.21,2.06,2.06,0,0,1-1.44-.47,1.72,1.72,0,0,1-.52-1.34q0-1.87,3-2l1,0V81.46a1.56,1.56,0,0,0-.31-1.07,1.28,1.28,0,0,0-1-.35,4.07,4.07,0,0,0-1.74.47l-0.29-.71a4.49,4.49,0,0,1,2.09-.53,2.35,2.35,0,0,1,1.63.49,2,2,0,0,1,.53,1.57v4.21h-0.69Zm-2.11-.66a1.89,1.89,0,0,0,1.37-.48,1.77,1.77,0,0,0,.5-1.34V82.51l-0.93,0a3.39,3.39,0,0,0-1.6.35,1,1,0,0,0-.49,1,1,1,0,0,0,.31.77A1.27,1.27,0,0,0,271.4,84.88Z"/><path class="cls-2" d="M278.58,85.65a2.63,2.63,0,0,1-2.07-.82,3.39,3.39,0,0,1-.73-2.33,3.49,3.49,0,0,1,.75-2.39,2.68,2.68,0,0,1,2.12-.84,4.23,4.23,0,0,1,.89.1,2.94,2.94,0,0,1,.7.22l-0.29.79a4.46,4.46,0,0,0-.67-0.21,3,3,0,0,0-.65-0.08q-1.88,0-1.88,2.4a2.86,2.86,0,0,0,.46,1.74,1.6,1.6,0,0,0,1.36.61,4.16,4.16,0,0,0,1.58-.33v0.83A3.37,3.37,0,0,1,278.58,85.65Z"/><path class="cls-2" d="M284.21,85.65a2.83,2.83,0,0,1-2.16-.83,3.22,3.22,0,0,1-.79-2.31,3.58,3.58,0,0,1,.73-2.37,2.44,2.44,0,0,1,2-.88,2.32,2.32,0,0,1,1.83.76,2.92,2.92,0,0,1,.67,2v0.59h-4.25a2.44,2.44,0,0,0,.55,1.65,1.9,1.9,0,0,0,1.46.56,5,5,0,0,0,2-.42v0.83a4.89,4.89,0,0,1-.94.31A5.29,5.29,0,0,1,284.21,85.65ZM284,80a1.52,1.52,0,0,0-1.18.48,2.24,2.24,0,0,0-.52,1.34h3.22a2.05,2.05,0,0,0-.39-1.35A1.39,1.39,0,0,0,284,80Z"/></svg>