<svg width="338" height="86" viewBox="0 0 338 86" xmlns="http://www.w3.org/2000/svg"><g fill="none" fill-rule="evenodd"><path d="M42.825.602c-.546.003-1.09-.01-1.638-.008L.71.59V23L62.774 5.786C56.86 2.576 50.022.606 42.824.604" fill="#E40477"/><path d="M1 42.522c0 1.773.18 4.09.414 5.88L68.494 9.45C66.72 8.09 64.53 6.734 62.55 5.66L.71 22.28v20.24H1" fill="#E9348E"/><path d="M68.316 9.358L1.368 48.164C2.576 57.404 6.96 65.9 13.148 72.24l58.998-59.536c-1.2-1.176-2.5-2.32-3.83-3.347" fill="#EC4C9B"/><path d="M72.1 12.66L12.944 72.04c6.19 6.335 14.432 10.74 23.577 12.148l38.945-67.8c-1.035-1.293-2.185-2.564-3.364-3.727" fill="#EF65A7"/><path d="M36.467 84.175c2.09.315 4.22.4 6.397.396.557.007 1.098-.113 1.646-.113h17.874l16.816-62.7c-1.096-1.904-2.37-3.74-3.736-5.443l-38.997 67.86" fill="#F17EB5"/><path d="M84.57 84.454V42.612c0-7.583-1.976-14.775-5.493-20.915l-16.723 62.76 22.217-.003" fill="#F497C2"/><path d="M106.414 18.896l11.817.005v64.97h-11.81l-.005-64.972v-.002zm.005-17.123l12.99.002v11.81h-12.99V1.772zm50.27 57.667L164.81.593 183.19.59v83.273l-11.812.005V21.672l-9.32 62.19h-12.41l-8.978-62.426v62.427h-11.81L128.858.59l19.715.004 8.115 58.845h.002zm37.127-40.54l12.995-.004v64.967l-12.99.005-.005-64.967zm.004-17.127l12.993.002v11.81l-12.99-.004V1.775h-.002zM216.26 18.9l11.815-.004v4.21c2.95-2.745 6.916-5.386 11.94-5.386h.59c6.92-.002 11.087 4.31 11.087 11.594v54.55h-12.99v-50.97c0-2.625-1.316-3.822-4.06-3.822-2.268.003-3.618.72-6.567 2.032v52.76H216.26V18.9zm67.325 12.323c-2.36-1.31-3.945-2.148-6.326-2.15-2.87 0-4.306 1.196-4.306 4.062v36.882c0 2.864 1.436 4.053 4.3 4.053 2.387 0 3.97-.83 6.327-2.14l.004-40.707zm11.814 52.64h-11.816v-3.94c-2.95 2.63-6.455 5.122-11.465 5.126h-.124c-7.398 0-12.032-4.648-12.035-12.29V30.39c0-7.64 4.638-12.67 12.036-12.668h.123c5.01 0 8.51 2.64 11.464 5.03L283.587 0h11.807l.005 83.863zm30.705-50.973c0-2.86-1.11-4.54-3.973-4.545l-1.316.005c-2.864 0-4.162 1.677-4.16 4.543l-.002 5.13c0 2.392.71 3.706 2.858 5.017l11.17 7.163c5.134 3.222 7.234 6.086 7.234 12.412v7.876c0 9.67-4.565 14.56-14.234 14.56h-4.296c-9.67 0-14.544-4.89-14.544-14.44v-9.78h11.81l.004 9.427c-.002 2.862 1.294 4.156 4.16 4.156h1.553c2.864 0 3.734-1.294 3.734-4.158v-5.49c0-2.388-.555-3.82-2.58-5.135l-11.43-7.042c-5.014-3.225-7.248-6.206-7.255-12.412l.006-7.52c-.005-9.665 5.113-14.936 14.775-14.938l4.064.002c9.666-.002 14.23 5.268 14.23 14.82v9.982h-11.81V32.89z" fill="#231F20"/></g></svg>
