<svg id="Laag_1" data-name="Laag 1" xmlns="http://www.w3.org/2000/svg" viewBox="0 0 216.07 200.92"><defs><style>.cls-1{fill:#f6dc4b;}.cls-2{fill:#281207;}</style></defs><title>img_</title><path class="cls-1" d="M33.87,42.93a177.26,177.26,0,0,1,17.5-17.75C56.12,21.3,60,16.8,65.12,15.93a27,27,0,0,1,7.55-.41A40,40,0,0,0,40.7,0C18.06,0,2.12,18.29,2.12,40.93c0,6.34,4.18,16.85,4,17.71S-0.26,60.4,0,60.9c0.13,0.25,3.85.63,7.3,0s5.45-1.68,9.06-4C26.24,50.68,31.49,46.05,33.87,42.93Z"/><path class="cls-2" d="M49.8,37.31A177.26,177.26,0,0,1,32.3,55.06c-4.75,3.88-8.62,8.38-13.75,9.25a27,27,0,0,1-7.55.41A40,40,0,0,0,43,80.24c22.64,0,38.58-18.29,38.58-40.93,0-6.34-4.18-16.85-4-17.71s6.4-1.76,6.13-2.26c-0.13-.25-3.85-0.63-7.3,0s-5.45,1.68-9.06,4C57.43,29.56,52.18,34.19,49.8,37.31Z"/><path class="cls-2" d="M215.53,149.18c-1.33-18.5-15.33-21.33-22.67-23.67s-19.83-1.72-32-4.39-10.5-14.22-8.67-18.89,8.65-9.14,20-10a28.57,28.57,0,0,1,19.31,6.06l13.33,19.55h0.9v-30l-2.78.7s-0.85,2.86-5.52,4.53-10.22-3.41-23.05-4.74-23.92,5.55-23.92,5.55H115.77v-48h-2.23s0,2.27-1.67,9.44-9,14-16.33,24.49-22,13.38-24.72,14.33a70.45,70.45,0,0,1-9.11.39c-17.52.2-53.94-.35-53.94-0.35v4.7h12v96h-13v6h67v-6h-12V99.18s12.34-1,12.55-2,2.15,78.33,3.15,85.83,10.2,18.08,30.2,17.91a38.32,38.32,0,0,0,30.1-15,71.08,71.08,0,0,0,14.38,10.31c1.83,1.17,30.53,11,47.69-2S216.87,167.68,215.53,149.18Zm-22.67,40.67c-10.17,9.33-25.67,4.67-25.67,4.67s-3.17,0-14.33-8.05-11.42-22.95-11.42-22.95l-4.58-.33s0,13.38,0,15.33-2.93,4-2.93,4c-10.83,10.5-15.41.06-15.41,0.06l-0.92-83.65h28.92s-7.67,3.07-11.67,22.07,2.67,28.87,15.67,35.87,23,4,36,6.18S203,180.51,192.87,189.85Z"/></svg>