<svg id="Laag_1" data-name="Laag 1" xmlns="http://www.w3.org/2000/svg" viewBox="0 0 660.83 787.43"><defs><style>.cls-1{fill:none;}.cls-2{fill:#494949;}</style></defs><title>img_</title><rect class="cls-1" width="683.11" height="800"/><polygon class="cls-2" points="497.78 88.75 497.78 88.75 494.72 90.38 459.51 16.55 462.76 15.23 497.78 88.75 497.78 88.75"/><path class="cls-2" d="M462.76,15.23a25.64,25.64,0,0,0,7.5-5.58c9.3-10,9.07-25.36-.52-34.27s-24.91-8-34.21,2-9.07,25.36.52,34.27a23.53,23.53,0,0,0,23.46,4.9Z"/><circle class="cls-2" cx="504.67" cy="105.92" r="18.92"/><rect class="cls-2" x="454.49" y="113.38" width="35.79" height="1.94" transform="translate(-13.64 113.14) rotate(-13.46)"/><circle class="cls-2" cx="440.42" cy="122.08" r="17.08"/><rect class="cls-2" x="534.58" y="109.77" width="2.25" height="61.39" transform="translate(27.1 359.62) rotate(-38)"/><circle class="cls-2" cx="576.15" cy="176.27" r="29.23"/><circle class="cls-2" cx="650.08" cy="127.25" r="11.29"/><rect class="cls-2" x="621.98" y="123.95" width="2.17" height="59.88" transform="translate(322.61 -413.23) rotate(48.21)"/><rect class="cls-2" x="521.06" y="179.53" width="3" height="84.96" transform="translate(326.28 -310.75) rotate(46.76)"/><circle class="cls-2" cx="458.83" cy="281.67" r="51.67"/><circle class="cls-2" cx="194.83" cy="212.35" r="51.67"/><circle class="cls-2" cx="24.17" cy="426.53" r="51.67"/><circle class="cls-2" cx="218.83" cy="617.57" r="51.67"/><circle class="cls-2" cx="189.5" cy="759.57" r="29.33"/><circle class="cls-2" cx="182.5" cy="408.96" r="29.33"/><circle class="cls-2" cx="262.5" cy="355.74" r="29.33"/><circle class="cls-2" cx="566.03" cy="281.2" r="20.74"/><circle class="cls-2" cx="165.03" cy="316.64" r="20.74"/><circle class="cls-2" cx="268.29" cy="473.87" r="27.59"/><circle class="cls-2" cx="121.33" cy="511.33" r="10.88"/><circle class="cls-2" cx="166.03" cy="470.97" r="10.88"/><circle class="cls-2" cx="110.46" cy="686.33" r="10.88"/><circle class="cls-2" cx="138" cy="741.11" r="10.88"/><circle class="cls-2" cx="305.75" cy="312.23" r="10.88"/><circle class="cls-2" cx="317.63" cy="251.86" r="10.88"/><circle class="cls-2" cx="650.08" cy="127.25" r="10.88"/><circle class="cls-2" cx="275.38" cy="709.04" r="19.62"/><rect class="cls-2" x="570.99" y="203.78" width="2.17" height="59.88" transform="translate(42.71 -85.13) rotate(8.84)"/><polygon class="cls-2" points="311.92 310.37 312.24 314.31 428.49 295.6 428.18 291.65 311.92 310.37"/><polygon class="cls-2" points="313.95 259 305.75 304.3 308.89 305.81 317.63 259 313.95 259"/><polygon class="cls-2" points="299.39 317.25 281.19 338.48 283.41 340.7 301.81 319.06 299.39 317.25"/><polygon class="cls-2" points="217.7 254.16 255.07 327.53 251.69 328.62 212.84 252.94 217.7 254.16"/><polygon class="cls-2" points="238 347.37 183.41 322.93 180.35 325.54 238 351.01 238 347.37"/><polygon class="cls-2" points="239.54 365.17 205.71 391.81 207.65 394.74 241.96 368.81 239.54 365.17"/><polygon class="cls-2" points="205.71 421.58 253.89 460.1 251.87 461.62 202.53 425.22 205.71 421.58"/><polygon class="cls-2" points="174.77 439.28 168.37 458.53 171.74 459.5 178.26 439.89 174.77 439.28"/><polygon class="cls-2" points="151.74 415.66 71 420.77 71 424 77.3 424.19 152.89 418.91 151.74 415.66"/><polygon class="cls-2" points="156.86 476.64 128.75 502.08 124.89 504.08 127.92 506.3 161.89 476.64 160.07 473.87 156.86 476.64"/><polygon class="cls-2" points="168.15 476.9 210.01 578 213 578 171.39 475.77 168.15 476.9"/><polygon class="cls-2" points="175.84 436.14 168.15 461.62 170.99 463.03 178.26 437.15 175.84 436.14"/><polygon class="cls-2" points="207.08 663 187.87 736.55 193.11 738.38 211.27 663 207.08 663"/><polygon class="cls-2" points="261.93 716.13 205.68 748.26 208.13 751.99 265.42 719.27 261.93 716.13"/><polygon class="cls-2" points="142.2 743.38 173.29 755.66 172.54 757.5 141.45 745.11 142.2 743.38"/><polygon class="cls-2" points="131.74 733.72 108.21 686 113 686 136.51 736.74 133.37 738.38 131.74 733.72"/><polygon class="cls-2" points="0 756.87 131.97 743.38 133.37 739.38 -3.59 753.72 0 756.87"/></svg>