<svg id="Laag_1" data-name="Laag 1" xmlns="http://www.w3.org/2000/svg" xmlns:xlink="http://www.w3.org/1999/xlink" viewBox="0 0 661.83 800"><defs><style>.cls-1{fill:none;}.cls-2{clip-path:url(#clip-path);}.cls-3{fill:#f9f7f7;}</style><clipPath id="clip-path"><rect class="cls-1" width="683.11" height="800"/></clipPath></defs><title>img_linkeddata</title><g class="cls-2"><path class="cls-3" d="M639.06,127a10.83,10.83,0,0,0,3.07,7.63l-38,33.94a27,27,0,0,0-8.07-14c-11.47-10.65-29.78-9.52-40.9,2.45a31.53,31.53,0,0,0-2.27,2.78l-33-42.08a18.84,18.84,0,0,0-22.1-29l-35-73.52a25.64,25.64,0,0,0,7.5-5.58c9.3-10,9.07-25.36-.52-34.27s-24.91-8-34.21,2-9.07,25.36.52,34.27a23.53,23.53,0,0,0,23.46,4.9l35.21,73.83a18.78,18.78,0,0,0-6.58,24.06l-35-4a17,17,0,0,0-26.81,2.12,12.18,12.18,0,0,0-2.77,9.22s0,0,0,.06a17,17,0,1,0,31.17-9.39l34.73,4.23a18.82,18.82,0,0,0,28.43,3.22L551,162.81a29.1,29.1,0,0,0-.13,29.08l-55.73,52.38c-0.44-.44-0.87-0.87-1.32-1.3-20.61-19.14-53.52-17.21-73.52,4.31a53.77,53.77,0,0,0-13.43,48.19l-90.13,14a12.49,12.49,0,0,0-1.28-3,12.32,12.32,0,0,0-5.76-5l7.36-37.24a11.13,11.13,0,0,0,6.73-1.52,12,12,0,1,0-16.07-4.42,12.31,12.31,0,0,0,5.93,5.11l-7.35,37.19a11.13,11.13,0,0,0-6.91,1.5,11.79,11.79,0,0,0-3.72,16.25,12.61,12.61,0,0,0,1,1.44l-13.73,16a29.1,29.1,0,0,0-27.88-8.26l-34.68-68.17c0.54-.3,1.08-0.59,1.61-0.91,24.15-14.42,31.51-46.56,16.44-71.78s-46.85-34-71-19.55S135.94,213.69,151,238.91c14.1,23.6,42.84,32.78,66.26,22l34.43,67.67a27.41,27.41,0,0,0-16.25,18l-52.08-23.71a20.79,20.79,0,0,0-2.25-16.23c-5.79-9.7-18-13.06-27.3-7.52s-12.12,17.9-6.32,27.6,18,13.06,27.3,7.52a18.9,18.9,0,0,0,7.56-8.52l52.38,23.84a30.09,30.09,0,0,0,2.35,18l-31.38,24.24A30.12,30.12,0,0,0,152,415.46L77,420.7c-2.84-25.61-25.5-45.53-53-45.48-29.38.06-53.15,22.91-53.09,51s23.92,50.88,53.29,50.83,53.15-22.91,53.09-51c0-.62,0-1.24-0.05-1.85l75.59-5.28a30.17,30.17,0,0,0,21.88,20.37l-6.4,19.25a12.6,12.6,0,0,0-1.76-.13,11.79,11.79,0,0,0-12,11.55,11.13,11.13,0,0,0,2.27,6.7l-28.11,25.44a12.31,12.31,0,0,0-7.43-2.45,11.54,11.54,0,1,0,12.06,11.5,11.13,11.13,0,0,0-2.16-6.55l28.15-25.48a12.32,12.32,0,0,0,7.28,2.35,12.52,12.52,0,0,0,3.2-.43l34.34,84.5a53.77,53.77,0,0,0-34.41,36.31c-8.17,28.22,7.11,57.44,34.13,65.26,0.6,0.17,1.19.32,1.79,0.47l-16.24,62.74a29.1,29.1,0,0,0-24.87,15.07H147.25a12.64,12.64,0,0,0,.62-1.66,11.79,11.79,0,0,0-7.72-14.77,11.13,11.13,0,0,0-7.06.3l-16.55-34.11a12.32,12.32,0,0,0,4.44-6.45A11.54,11.54,0,1,0,106.55,697a11.13,11.13,0,0,0,6.9-.24L130,731a12.32,12.32,0,0,0-4.29,6.34,12.52,12.52,0,0,0-.48,3.2L-7.89,754.16a23.53,23.53,0,0,0-16.27-17.6c-12.57-3.64-25.85,4.05-29.65,17.19s3.31,26.73,15.88,30.37,25.85-4.05,29.65-17.19a25.64,25.64,0,0,0,.93-9.3l133-13.65a11.28,11.28,0,0,0,19.71,4.36L163,748.54a31.26,31.26,0,0,0-1.19,3.36c-4.54,15.7,4,32,19,36.31a27.34,27.34,0,0,0,16.24-.33l3.25-1.3a30.5,30.5,0,0,0,14.41-40.09l44.61-24.36a18.9,18.9,0,0,0,9.48,6.33c10.39,3,21.36-3.35,24.5-14.2s-2.73-22.08-13.12-25.09-21.36,3.35-24.5,14.2a20.79,20.79,0,0,0,1.94,16.27L213.3,743.78A27.41,27.41,0,0,0,193,730.48l16.13-62.19c25.38,4.44,50.85-11.73,58.49-38.14,8.17-28.22-7.11-57.44-34.13-65.26a49,49,0,0,0-25.92-.37l-34.5-84.89a11.28,11.28,0,0,0-1.34-20.14l6.52-19.61a30.4,30.4,0,0,0,3.4.2A30.08,30.08,0,0,0,206,427.69l42.42,32.64a23.83,23.83,0,1,0,1.87-2.38l-42.63-32.8q0.43-.73.82-1.49a27.47,27.47,0,0,0,1.94-4.74l0-.06c0.1-.35.21-0.69,0.3-1a30.12,30.12,0,0,0-3.09-23.08l31.11-24a30.06,30.06,0,0,0,20.09,14l3.48,0.43a27.34,27.34,0,0,0,15.79-3.81c13.43-8,17.53-25.9,9.15-39.94a31.16,31.16,0,0,0-2-2.95l14-16.3a11.28,11.28,0,0,0,18-9.22l90.54-14.09a49,49,0,0,0,13.65,22c20.61,19.14,53.52,17.21,73.52-4.31,18.71-20.14,19.47-50.3,2.61-69.78l55.32-52a27.41,27.41,0,0,0,21.85,10.55L566.52,262a20.79,20.79,0,0,0-14.95,6.7c-7.69,8.28-7.5,21,.43,28.31s20.58,6.62,28.27-1.66,7.5-21-.43-28.31a18.9,18.9,0,0,0-10.3-4.87l8.23-57a30.52,30.52,0,0,0,27-33.13l39.48-35.7a10.5,10.5,0,0,0,5.52,1.41A10.72,10.72,0,0,0,660.39,127H639.06Z"/></g></svg>
