<svg id="Laag_1" data-name="Laag 1" xmlns="http://www.w3.org/2000/svg" viewBox="0 0 412.65 208.57"><defs><style>.cls-1{fill:#3e3e3e;}.cls-2{fill:#59662f;}.cls-3{fill:#686868;}.cls-4{fill:#606060;}.cls-5{fill:#254664;}.cls-6{fill:#85450f;}</style></defs><title>img_</title><path class="cls-1" d="M45.9,84.37c0,14.85-9,23.86-22.24,23.86-13.44,0-21.3-10.15-21.3-23,0-13.57,8.67-23.72,22-23.72C38.31,61.45,45.9,71.87,45.9,84.37ZM13.17,85c0,8.87,4.17,15.12,11,15.12s10.89-6.59,10.89-15.39c0-8.13-3.9-15.12-11-15.12S13.17,76.17,13.17,85Z"/><path class="cls-1" d="M52.55,85.65c0-4.3-.13-8-0.27-11h8.87l0.47,4.57h0.13c2.42-3.49,6.18-5.31,11-5.31,7.19,0,13.64,6.25,13.64,16.73,0,12-7.59,17.61-14.92,17.61-4,0-7.06-1.61-8.53-3.76H62.76v16.33H52.55V85.65Zm10.21,7.73a10.14,10.14,0,0,0,.2,2.15,6.18,6.18,0,0,0,6,4.84c4.43,0,7.06-3.7,7.06-9.27,0-5.24-2.35-9.21-6.92-9.21A6.42,6.42,0,0,0,63,87.06a7.89,7.89,0,0,0-.2,1.81v4.5Z"/><path class="cls-1" d="M100.8,94.32c0.34,4.23,4.5,6.25,9.27,6.25a28.92,28.92,0,0,0,9.07-1.34l1.34,6.92a32.44,32.44,0,0,1-11.89,2c-11.16,0-17.54-6.45-17.54-16.73,0-8.33,5.17-17.54,16.6-17.54,10.62,0,14.65,8.27,14.65,16.4a24.34,24.34,0,0,1-.34,4H100.8Zm12-7c0-2.49-1.08-6.65-5.78-6.65-4.3,0-6,3.9-6.32,6.65h12.1Z"/><path class="cls-1" d="M128.41,85.11c0-4.1-.13-7.59-0.27-10.48H137l0.47,4.5h0.2a12,12,0,0,1,10.15-5.24c6.72,0,11.76,4.43,11.76,14.11v19.49H149.38V89.28c0-4.23-1.48-7.12-5.17-7.12A5.45,5.45,0,0,0,139,86a7,7,0,0,0-.4,2.55v19H128.41V85.11Z"/><path class="cls-2" d="M13.17,155.08H1v-8.6H35.82v8.6H23.45v36.69H13.17V155.08Z"/><path class="cls-2" d="M37.29,169.73c0-4.84-.13-8-0.27-10.82h8.8l0.34,6h0.27a9.65,9.65,0,0,1,8.87-6.79,10.57,10.57,0,0,1,2.15.13v9.61a14.6,14.6,0,0,0-2.75-.27c-3.76,0-6.32,2-7,5.17a12.09,12.09,0,0,0-.2,2.28v16.67H37.29v-22Z"/><path class="cls-2" d="M80.77,191.77l-0.6-3.29H80a11.84,11.84,0,0,1-9.41,4c-6.65,0-10.62-4.84-10.62-10.08,0-8.53,7.66-12.63,19.29-12.57v-0.47c0-1.75-.94-4.23-6-4.23a18.48,18.48,0,0,0-9.07,2.49l-1.88-6.58a27.12,27.12,0,0,1,12.77-2.89c11,0,14.45,6.45,14.45,14.18v11.42a50.91,50.91,0,0,0,.47,8H80.77Zm-1.21-15.52c-5.38-.07-9.54,1.21-9.54,5.17,0,2.62,1.75,3.9,4,3.9a5.58,5.58,0,0,0,5.31-3.76,7.3,7.3,0,0,0,.2-1.75v-3.56Z"/><path class="cls-2" d="M97.57,169.39c0-4.1-.13-7.59-0.27-10.48h8.87l0.47,4.5h0.2A12,12,0,0,1,117,158.17c6.72,0,11.76,4.43,11.76,14.11v19.49H118.54V173.56c0-4.23-1.48-7.12-5.17-7.12a5.45,5.45,0,0,0-5.17,3.83,7,7,0,0,0-.4,2.55v19H97.57V169.39Z"/><path class="cls-2" d="M136.88,182.83a20,20,0,0,0,8.8,2.49c3.09,0,4.37-1.08,4.37-2.75s-1-2.49-4.84-3.76c-6.79-2.28-9.41-6-9.34-9.88,0-6.12,5.24-10.75,13.37-10.75a22,22,0,0,1,9.27,1.88l-1.81,7.06a16.12,16.12,0,0,0-7.12-1.88c-2.49,0-3.9,1-3.9,2.69s1.28,2.35,5.31,3.76c6.25,2.15,8.87,5.31,8.94,10.15,0,6.12-4.84,10.62-14.25,10.62a23.25,23.25,0,0,1-10.62-2.29Z"/><path class="cls-2" d="M166.11,169.93c0-4.3-.13-8-0.27-11h8.87l0.47,4.57h0.13c2.42-3.49,6.18-5.31,11-5.31,7.19,0,13.64,6.25,13.64,16.73,0,12-7.59,17.61-14.92,17.61-4,0-7.06-1.61-8.53-3.76h-0.13v16.33H166.11V169.93Zm10.21,7.73a10.21,10.21,0,0,0,.2,2.15,6.18,6.18,0,0,0,6,4.84c4.43,0,7.06-3.7,7.06-9.27,0-5.24-2.35-9.21-6.92-9.21a6.42,6.42,0,0,0-6.12,5.17,7.94,7.94,0,0,0-.2,1.81v4.5Z"/><path class="cls-2" d="M238.95,175c0,12-8.53,17.54-17.34,17.54-9.61,0-17-6.32-17-16.93s7-17.4,17.54-17.4C232.23,158.17,238.95,165.09,238.95,175Zm-23.79.34c0,5.64,2.35,9.88,6.72,9.88,4,0,6.52-4,6.52-9.88,0-4.91-1.88-9.88-6.52-9.88C217,165.43,215.16,170.47,215.16,175.31Z"/><path class="cls-2" d="M245.26,169.73c0-4.84-.13-8-0.27-10.82h8.8l0.34,6h0.27a9.65,9.65,0,0,1,8.87-6.79,10.57,10.57,0,0,1,2.15.13v9.61a14.6,14.6,0,0,0-2.75-.27c-3.76,0-6.32,2-7,5.17a12,12,0,0,0-.2,2.28v16.67H245.26v-22Z"/><path class="cls-2" d="M283.63,149.5v9.41H291v7.53h-7.32v11.89c0,4,.94,5.78,4,5.78a16.65,16.65,0,0,0,3-.27l0.07,7.73a20.06,20.06,0,0,1-6.65.87,10.62,10.62,0,0,1-7.66-2.82c-1.88-1.95-2.82-5.11-2.82-9.74V166.44h-4.37v-7.53h4.37v-7.12Z"/><path class="cls-3" d="M310.78,191.77V146.48h12l9.41,16.6a131.19,131.19,0,0,1,7.39,15.52h0.2a168.13,168.13,0,0,1-.87-18.88V146.48h9.41v45.29H337.52l-9.68-17.47a168.14,168.14,0,0,1-7.86-16l-0.2.07c0.27,6,.4,12.37.4,19.76v13.64h-9.41Z"/><path class="cls-3" d="M364.47,178.6c0.34,4.23,4.5,6.25,9.27,6.25a28.92,28.92,0,0,0,9.07-1.34l1.34,6.92a32.45,32.45,0,0,1-11.89,2c-11.16,0-17.54-6.45-17.54-16.73,0-8.33,5.17-17.54,16.6-17.54,10.62,0,14.65,8.27,14.65,16.4a24.34,24.34,0,0,1-.34,4H364.47Zm12-7c0-2.49-1.08-6.65-5.78-6.65-4.3,0-6,3.9-6.32,6.65h12.1Z"/><path class="cls-3" d="M403.51,149.5v9.41h7.32v7.53h-7.32v11.89c0,4,.94,5.78,4,5.78a16.65,16.65,0,0,0,3-.27l0.07,7.73a20.06,20.06,0,0,1-6.65.87,10.62,10.62,0,0,1-7.66-2.82c-1.88-1.95-2.82-5.11-2.82-9.74V166.44h-4.37v-7.53h4.37v-7.12Z"/><rect class="cls-4" x="245.67" y="15.05" width="1.44" height="47.51"/><rect class="cls-4" x="255.87" y="60.85" width="1.44" height="28.3" transform="translate(514.49 4.65) rotate(148.45)"/><rect class="cls-4" x="245.08" y="21.89" width="1.44" height="102.13" transform="matrix(0.55, 0.84, -0.84, 0.55, 172.88, -172.86)"/><rect class="cls-4" x="252.15" y="67.02" width="1.44" height="53.46" transform="translate(505.75 187.49) rotate(-180)"/><polygon class="cls-4" points="206.92 50.12 287.01 87.33 289.47 90.74 201.64 50.12 206.92 50.12"/><circle class="cls-4" cx="251.56" cy="69.2" r="4.45"/><circle class="cls-5" cx="263.79" cy="86.08" r="4.45"/><circle class="cls-2" cx="291.39" cy="91.6" r="9.12"/><circle class="cls-6" cx="253.59" cy="120.76" r="10.2"/><circle class="cls-5" cx="292.47" cy="39.65" r="10.2"/><circle class="cls-5" cx="246.39" cy="10.2" r="10.2"/><circle class="cls-5" cx="203.32" cy="46.19" r="10.2"/><circle class="cls-2" cx="203.32" cy="101.68" r="9.12"/><circle class="cls-2" cx="245.56" cy="64.75" r="10.2"/></svg>