<svg width="55" height="45" viewBox="0 0 55 45" xmlns="http://www.w3.org/2000/svg"><g fill="none" fill-rule="evenodd"><g fill="#000"><path d="M44.378.443v8.513l-1.05-1.444-.283-.398-4.81-6.772H36.23V14.45h2.603V7.146l-.005-.034V5.978l1.24 1.667 4.91 6.906h2V.445h-2.6zM25.688.342h8.305v2.443H28.43v3.26h5.063v2.442H28.43v3.42h5.664v2.443h-8.406V.342zM18.325 2.503c-.268 0-.52.01-.76.03-.24.02-.434.044-.58.07v4.543c.052.013.132.027.24.04.105.014.22.023.34.03.118.006.235.01.35.01h.25c.358 0 .716-.033 1.07-.1.353-.067.67-.19.95-.37.28-.18.504-.43.67-.75.167-.32.25-.74.25-1.262 0-.44-.08-.803-.24-1.09-.16-.287-.37-.517-.63-.69-.26-.173-.56-.293-.89-.36-.333-.067-.673-.1-1.02-.1zM14.243.483c.56-.107 1.178-.19 1.85-.25.674-.06 1.345-.09 2.012-.09.693 0 1.39.057 2.09.17.702.113 1.332.34 1.892.68.56.34 1.017.814 1.37 1.42.355.608.53 1.398.53 2.37 0 .882-.152 1.626-.46 2.233-.306.607-.712 1.104-1.22 1.49-.506.388-1.083.668-1.73.84-.647.175-1.317.26-2.01.26h-.322c-.147 0-.3-.002-.46-.01-.16-.005-.317-.015-.47-.03-.154-.013-.264-.025-.33-.04v4.824h-2.742V.483zM3.277 7.347c0 .707.06 1.357.18 1.95s.304 1.105.55 1.533c.247.426.564.76.95 1 .387.24.847.36 1.38.36.975 0 1.728-.38 2.262-1.14.53-.76.8-1.995.8-3.703 0-.68-.06-1.314-.17-1.9-.114-.588-.29-1.102-.53-1.542-.24-.44-.555-.784-.94-1.03-.39-.248-.863-.37-1.42-.37-.976 0-1.73.388-2.264 1.17-.533.78-.8 2.004-.8 3.672zm-2.88 0c0-2.334.51-4.133 1.54-5.394C2.962.693 4.43.063 6.338.063c1 0 1.873.172 2.62.52.75.347 1.37.84 1.862 1.48.493.64.86 1.408 1.1 2.3.24.896.36 1.89.36 2.983 0 2.333-.517 4.132-1.55 5.393C9.698 14 8.234 14.63 6.34 14.63c-1.014 0-1.894-.175-2.64-.52-.748-.348-1.364-.843-1.852-1.48-.487-.643-.85-1.41-1.09-2.304C.516 9.434.396 8.44.396 7.346z"/></g><g fill="#80B600"><path d="M3.458 24.697c.278.47.536.643.944.643.536 0 .836-.386.836-1.157 0-1.287-.58-2.53-1.05-3.99-.752 2.08-1.738 4.31-2.983 6.758l-.6-.3c1.33-2.7 2.467-5.36 3.304-7.507-.175-.665-.26-1.373-.26-2.123 0-.88.13-1.847.472-2.897l1.716.3c-.215 1.117-.516 2.274-.88 3.475.064.473.193.902.45 1.33.75 1.352 1.672 3.133 1.694 4.742v.085c.41-.663.75-1.458 1.074-2.295.127 0 .6.17.6.3-.56 1.458-1.31 2.832-2.145 3.882l-.106.13C6.03 26.78 5.214 27.1 4.27 27.1c-1.007 0-1.822-.578-2.122-1.457l1.308-.946h.002z"/><path d="M9.53 21.63c-.238 1.203-.43 2.21-.43 3.068 0 .623.234.73.43.73.34 0 .984-1.266 1.435-3.133l.13-.708c.32-1.823.728-3.41.985-4.483h1.825c-.75 3.346-1.373 5.834-1.373 7.593 0 .623.236.73.43.73.558 0 1.265-1.203 2.21-3.67.105 0 .6.15.6.28-.944 2.466-1.694 4.956-3.454 4.956-.944 0-1.372-.71-1.502-1.76-.47 1.05-1.093 1.76-1.93 1.76-1.136 0-1.523-1.03-1.523-2.47 0-.878.15-1.907.344-2.937.536-2.79.965-4.483.965-4.483h1.82c-.48 2.264-.43 1.78-.963 4.528z"/><path d="M14.89 23.325c.587-3.105.795-4.59 1.053-6.22h1.846l-.28 1.607c.644-1.094 1.437-1.844 2.316-1.844.837 0 1.18.664 1.18 1.48 0 .148-.022.343-.043.536.75-1.244 1.674-2.016 2.682-2.016.75 0 1.245.492 1.245 1.52 0 1.996-1.396 4.55-1.396 6.308 0 .623.235.73.43.73.557 0 1.265-1.203 2.208-3.668.13 0 .602.17.602.3-.944 2.445-1.91 4.935-3.67 4.935-.75 0-1.457-.604-1.457-1.91 0-2.317 1.394-4.698 1.394-6.242 0-.235-.106-.427-.34-.427-.54 0-1.5 1.03-2.233 4.182-.322 1.74-.687 3.5-.88 4.292h-1.952c.514-2.36 1.502-6.95 1.502-7.873 0-.343-.107-.45-.278-.45-.688 0-1.59 1.672-2.168 4.74l-.686 3.583H14.1s.205-.457.79-3.562z"/><path d="M25.853 23.325c.586-3.107.794-4.59 1.052-6.22h1.843l-.28 1.607c.646-1.094 1.44-1.844 2.318-1.844.837 0 1.18.664 1.18 1.48 0 .148-.02.343-.043.536.752-1.244 1.674-2.016 2.682-2.016.752 0 1.245.492 1.245 1.52 0 1.996-1.395 4.55-1.395 6.308 0 .623.235.73.43.73.558 0 1.265-1.203 2.208-3.668.13 0 .6.17.6.3-.94 2.445-1.907 4.935-3.667 4.935-.75 0-1.458-.604-1.458-1.91 0-2.317 1.394-4.698 1.394-6.242 0-.235-.106-.427-.344-.427-.536 0-1.5 1.03-2.23 4.182-.322 1.74-.686 3.5-.88 4.292h-1.952c.516-2.36 1.503-6.95 1.503-7.873 0-.343-.11-.45-.28-.45-.687 0-1.59 1.672-2.166 4.74l-.687 3.583h-1.87c.4-1.78.21-.455.796-3.562zM44.686 19.786s-.658 2.003-.856 2.274c-.198.27-.71 1.052-.602-.28.108-1.332.665-2.122.88-3.152-.215-.472-.386-1.052-.386-1.803 0-.685.15-1.544.492-2.66l1.608.472c-.085 1.416-.257 2.445-.6 3.56.708.73 1.63 1.59 1.63 2.81 0 1.374-1.438 3.52-1.438 5.386 0 2.38 1.036 5.47 4.498 5.47 1.888 0 2.938-1.5 2.938-3.067 0-.94-.387-1.887-1.178-2.55l1.22-1.524c1.182.902 1.76 2.254 1.76 3.605 0 2.314-1.694 4.61-4.762 4.61-3.982 0-6.192-3.778-6.192-6.565.002-1.995 1.418-3.904 1.418-5 0 0-.192-1.136-.43-1.586z"/><path d="M43.23 21.76c.127 0 .6.17.6.3-1.072 2.81-2.145 5.04-4.247 5.04-1.867 0-2.638-1.716-2.638-3.73 0-2.918 1.608-6.48 4.01-6.48 1.073 0 1.608.772 1.608 1.76 0 1.522-1.285 3.583-3.818 3.99v.32c0 1.287.366 2.318 1.352 2.318 1.265 0 2.317-1.33 3.132-3.518m-4.42.063c1.607-.793 2.314-2.272 2.314-3.068 0-.322-.127-.536-.342-.536-.88 0-1.717 1.822-1.973 3.602"/></g><path d="M.998 33.865c0-1.105.243-1.957.73-2.553.485-.598 1.18-.895 2.082-.895.474 0 .886.082 1.24.246.353.164.647.398.88.7.233.304.408.667.52 1.09.114.42.172.89.172 1.41 0 1.105-.247 1.954-.734 2.552-.49.594-1.182.893-2.078.893-.48 0-.897-.082-1.25-.246-.353-.164-.644-.398-.876-.7-.23-.302-.402-.667-.516-1.087-.113-.423-.17-.894-.17-1.41m1.363 0c0 .332.03.64.087.92.057.285.143.523.26.725.117.203.267.36.45.477.184.11.4.168.654.168.46 0 .818-.182 1.07-.54.25-.358.38-.942.38-1.75 0-.323-.028-.622-.08-.9-.055-.276-.14-.52-.25-.73-.115-.206-.264-.368-.446-.483-.184-.12-.407-.178-.672-.178-.46 0-.817.184-1.07.555-.253.365-.38.945-.38 1.734" fill="#000"/><path d="M3.81 37.488c-.503 0-.95-.086-1.324-.264-.38-.174-.696-.426-.944-.754-.243-.32-.426-.707-.547-1.148-.117-.44-.176-.928-.176-1.457 0-1.143.26-2.04.767-2.666.52-.64 1.268-.963 2.222-.963.497 0 .937.09 1.313.264.38.177.7.433.948.755.248.32.434.707.553 1.15.117.438.175.928.175 1.46 0 1.138-.26 2.036-.775 2.66-.522.64-1.268.962-2.215.962m0-6.892c-.854 0-1.49.27-1.945.828-.457.564-.688 1.383-.688 2.44 0 .5.055.958.164 1.366.11.394.27.74.486 1.024.21.277.484.494.81.648.328.148.724.227 1.174.227.85 0 1.482-.274 1.94-.83.46-.56.694-1.384.694-2.437 0-.498-.055-.96-.164-1.367-.108-.396-.272-.742-.49-1.023-.215-.277-.488-.496-.815-.648-.33-.15-.722-.23-1.165-.23m0 5.738c-.285 0-.537-.066-.75-.197-.205-.127-.377-.307-.51-.537-.124-.218-.22-.48-.28-.778-.058-.287-.088-.61-.088-.957 0-.836.133-1.438.41-1.838.285-.422.695-.633 1.217-.633.296 0 .554.068.766.203.207.13.38.318.507.55.122.226.21.487.27.782.055.29.082.603.082.935 0 .85-.133 1.457-.41 1.854-.288.406-.697.613-1.216.613m0-4.582c-.404 0-.706.155-.923.476-.23.338-.348.89-.348 1.64 0 .32.03.62.082.886.052.26.133.486.24.67.103.178.23.312.388.412.157.096.34.14.56.14.404 0 .705-.147.924-.46.23-.33.347-.885.347-1.648 0-.312-.025-.604-.077-.87-.05-.257-.127-.483-.232-.673-.1-.182-.227-.324-.383-.422-.157-.102-.344-.15-.576-.15m3.86-1.2h3.93v1.153H8.967v1.64h2.425V34.5H8.967v2.678H7.67" fill="#000"/><path d="M9.146 37.355H7.49V30.37h4.288v1.517H9.146v1.277h2.424v1.514H9.146v2.677zm-1.297-.357h.937V34.32h2.424v-.8H8.788v-1.993h2.632v-.797H7.85v6.268zM1.284 38.43h10.44v1.742H1.285V38.43zm20.862.675c-.305.215-.694.375-1.166.47-.47.09-.954.14-1.45.14-.6 0-1.17-.094-1.71-.277-.54-.188-1.01-.488-1.42-.902-.41-.414-.737-.953-.98-1.615-.244-.66-.365-1.465-.365-2.41 0-.98.137-1.803.408-2.465.272-.662.625-1.195 1.058-1.602.436-.404.92-.697 1.453-.87.535-.18 1.067-.267 1.602-.267.572 0 1.056.04 1.452.113.396.077.723.167.98.272l-.388 1.66c-.22-.104-.48-.18-.78-.23-.3-.044-.666-.07-1.093-.07-.793 0-1.43.284-1.91.845-.482.566-.722 1.438-.722 2.625 0 .514.057.984.172 1.408.114.426.288.79.522 1.09.23.303.522.537.87.7.35.17.75.255 1.21.255.43 0 .79-.045 1.086-.133.295-.084.554-.193.773-.326l.4 1.59h-.003z" fill="#000"/><path d="M19.53 39.77c-.605 0-1.186-.096-1.727-.28-.543-.19-1.03-.495-1.444-.917-.416-.42-.75-.97-.994-1.635-.245-.664-.37-1.48-.37-2.428 0-.98.14-1.818.413-2.488.274-.666.634-1.21 1.07-1.62.44-.41.936-.708 1.472-.884.538-.178 1.082-.268 1.62-.268.57 0 1.06.04 1.46.115.4.076.732.172.99.275l.044.018-.413 1.77-.06-.03c-.216-.1-.473-.18-.766-.222-.303-.047-.667-.072-1.083-.072-.772 0-1.4.277-1.868.826-.47.553-.71 1.422-.71 2.59 0 .508.057.98.17 1.395.112.42.285.78.512 1.07.227.295.514.525.852.686.34.166.737.248 1.185.248.418 0 .78-.04 1.072-.125.29-.086.547-.193.758-.324l.062-.038.428 1.7-.03.02c-.313.222-.712.384-1.188.478-.475.093-.967.142-1.46.142m.043-10.41c-.525 0-1.058.087-1.584.263-.522.17-1.004.46-1.433.86-.425.397-.777.927-1.045 1.58-.268.655-.404 1.48-.404 2.446 0 .934.122 1.738.36 2.39.24.65.565 1.19.968 1.6.403.405.875.706 1.403.886.528.184 1.098.275 1.69.275.485 0 .97-.044 1.44-.14.446-.09.82-.234 1.116-.44l-.373-1.482c-.206.117-.45.22-.722.297-.304.088-.674.133-1.103.133-.463 0-.878-.086-1.232-.26-.353-.168-.653-.408-.89-.717-.237-.302-.417-.675-.533-1.11-.115-.424-.173-.902-.173-1.42 0-1.195.247-2.09.735-2.66.49-.574 1.144-.865 1.95-.865.42 0 .79.025 1.1.072.276.045.522.113.734.207l.36-1.55c-.246-.097-.558-.18-.926-.25-.392-.077-.877-.114-1.44-.114m3.01 5.15c0-1.668.366-2.953 1.1-3.852.733-.904 1.78-1.354 3.146-1.354.716 0 1.34.125 1.874.37.532.25.976.603 1.33 1.06.35.457.613 1.006.785 1.645.172.635.257 1.35.257 2.13 0 1.67-.37 2.952-1.107 3.853-.74.9-1.786 1.352-3.14 1.352-.724 0-1.353-.123-1.888-.37-.532-.25-.974-.6-1.32-1.058-.35-.46-.61-1.008-.78-1.648-.174-.64-.26-1.348-.26-2.13m2.06 0c0 .505.04.97.127 1.392.086.426.217.79.394 1.096.176.304.402.544.68.716.276.172.605.258.986.258.696 0 1.235-.273 1.616-.816.38-.543.572-1.426.572-2.646 0-.486-.04-.94-.122-1.357-.08-.42-.206-.787-.378-1.104-.172-.31-.396-.56-.673-.734-.278-.178-.617-.266-1.016-.266-.695 0-1.234.28-1.615.84-.383.553-.572 1.428-.572 2.62" fill="#000"/><path d="M26.824 39.77c-.728 0-1.37-.127-1.912-.375-.542-.256-.993-.617-1.342-1.076-.35-.46-.615-1.02-.79-1.668-.17-.64-.258-1.36-.258-2.143 0-1.675.374-2.983 1.113-3.888.742-.912 1.814-1.373 3.188-1.373.72 0 1.358.13 1.897.376.538.25.992.615 1.35 1.074.354.462.622 1.022.795 1.665.173.643.26 1.36.26 2.145 0 1.672-.376 2.982-1.12 3.89-.746.91-1.817 1.37-3.18 1.37zm0-10.41c-1.34 0-2.384.446-3.104 1.33-.722.888-1.09 2.17-1.09 3.82 0 .77.087 1.483.256 2.114.17.633.43 1.18.77 1.627.34.45.777.8 1.303 1.045.524.242 1.152.365 1.864.365 1.33 0 2.374-.446 3.096-1.33.73-.888 1.098-2.173 1.098-3.82 0-.774-.086-1.485-.256-2.118-.17-.627-.43-1.176-.776-1.625-.346-.45-.786-.8-1.31-1.04-.526-.243-1.148-.368-1.852-.368zm0 8.666c-.39 0-.732-.092-1.015-.27-.286-.174-.52-.42-.7-.732-.18-.31-.31-.682-.4-1.11-.087-.428-.13-.9-.13-1.405 0-1.2.196-2.093.583-2.655.39-.572.95-.86 1.66-.86.41 0 .762.093 1.046.272.28.182.514.436.687.758.175.318.305.693.386 1.115.08.422.123.884.123 1.37 0 1.227-.197 2.127-.582 2.676-.39.558-.95.84-1.66.84zm0-6.922c-.676 0-1.205.273-1.572.814-.374.543-.563 1.414-.563 2.592 0 .5.042.963.127 1.385.084.416.215.777.388 1.076.17.3.393.533.662.7.266.165.588.247.957.247.673 0 1.202-.266 1.57-.79.374-.532.563-1.413.563-2.616 0-.48-.04-.933-.12-1.347-.08-.412-.204-.775-.375-1.086-.165-.305-.386-.545-.653-.715-.268-.17-.6-.256-.987-.256v-.002zm5.65-1.6c.2-.03.426-.055.677-.07.256-.018.516-.033.78-.043.27-.01.53-.014.78-.02.255-.005.48-.007.68-.007.89 0 1.646.125 2.274.37.63.25 1.14.6 1.53 1.046.39.45.678.98.858 1.6.182.62.273 1.3.273 2.046 0 .678-.086 1.33-.257 1.96-.173.626-.458 1.187-.86 1.673-.4.485-.926.874-1.58 1.17-.652.296-1.46.446-2.424.446-.152 0-.354-.008-.606-.016-.254-.01-.515-.02-.786-.038l-.78-.04c-.247-.017-.435-.032-.558-.05V29.504zm3.073 1.603c-.21 0-.422.004-.635.014-.216.01-.375.025-.48.043v6.71c.038.007.103.015.194.02.09.003.188.01.292.015.106.006.205.01.3.014.095.007.168.01.215.01.553 0 1.013-.1 1.38-.296.366-.193.66-.45.874-.78.213-.32.363-.694.45-1.122.085-.422.127-.857.127-1.307 0-.39-.038-.785-.114-1.18-.076-.395-.217-.75-.42-1.062-.207-.318-.484-.576-.837-.775-.355-.2-.802-.3-1.346-.3v-.003z" fill="#000"/><path d="M35.203 39.727c-.144 0-.343-.002-.61-.014-.25-.01-.513-.02-.786-.037l-.778-.04c-.276-.02-.45-.034-.565-.054l-.045-.006V29.46l.046-.01c.2-.028.423-.054.683-.07.275-.02.53-.034.78-.044.267-.01.525-.016.78-.02l.13-.003c.2-.004.384-.006.55-.006.887 0 1.657.127 2.293.375.636.252 1.157.607 1.553 1.06.395.456.687 1 .867 1.622.183.62.275 1.314.275 2.06 0 .68-.087 1.343-.26 1.976-.175.635-.467 1.203-.87 1.69-.4.49-.94.892-1.597 1.19-.66.296-1.484.447-2.45.447h.003zm-2.678-.245c.11.016.272.03.508.043l.777.043c.273.014.532.025.786.037.263.01.462.014.604.014.95 0 1.76-.15 2.402-.44.645-.294 1.168-.683 1.56-1.16.394-.474.68-1.03.85-1.65.168-.624.254-1.276.254-1.946 0-.736-.09-1.416-.27-2.03-.177-.608-.46-1.14-.846-1.58-.383-.44-.892-.786-1.51-1.028-.623-.246-1.38-.37-2.253-.37-.166 0-.35.003-.552.005l-.128.003c-.253.008-.513.012-.777.025-.25.005-.504.02-.778.038-.236.018-.443.04-.63.068v9.926l.003.002zm2.906-1.5c-.046 0-.12-.004-.217-.008l-.16-.006-.14-.008c-.086-.002-.167-.006-.245-.012l-.048-.004c-.09-.004-.16-.012-.202-.02l-.043-.01v-6.796l.044-.008c.104-.02.26-.035.49-.045.212-.008.427-.014.636-.014.55 0 1.012.106 1.372.31.355.2.644.466.853.79.208.318.354.68.43 1.084.078.4.116.8.116 1.19 0 .45-.043.894-.13 1.32-.086.427-.24.81-.458 1.14-.218.332-.52.602-.893.8-.37.198-.844.3-1.404.3v-.002zm-.946-.158c.03.007.076.01.142.015h.05l.242.013.14.006.16.007c.097.008.167.01.213.01.543 0 .998-.098 1.356-.29.356-.188.644-.442.852-.76.21-.317.36-.69.442-1.105.085-.415.13-.853.13-1.296 0-.385-.04-.775-.116-1.168-.074-.39-.214-.742-.413-1.047-.2-.307-.476-.562-.816-.754-.344-.195-.787-.293-1.318-.293-.207 0-.422.002-.633.014-.192.008-.33.02-.428.035v6.614-.002zm7.242-8.32h5.935v1.746h-3.974v2.33h3.618v1.744h-3.618v2.447h4.046v1.75h-6.004l-.002-10.016z" fill="#000"/><path d="M41.78 39.463h5.897v-1.64H43.63V35.27h3.617v-1.635H43.63v-2.438h3.976v-1.64H41.78v9.906z" fill="#000"/><path d="M1.284 42.182h32.94v1.74H1.284v-1.74zM37.18 43.96l1.372-1.33c.04-.038.082-.08.125-.126.043-.045.082-.092.117-.142.035-.05.064-.102.088-.157.023-.055.035-.112.035-.172 0-.073-.015-.138-.043-.195-.028-.056-.065-.105-.112-.145-.047-.04-.1-.07-.162-.092-.062-.02-.127-.03-.197-.03-.15 0-.273.042-.37.128-.096.087-.154.203-.174.35l-.63-.05c.014-.163.053-.307.118-.432.064-.124.148-.228.25-.312.105-.083.224-.146.36-.19.137-.042.285-.064.445-.064.16 0 .308.02.446.062.137.042.258.103.36.185.104.08.186.185.245.312.06.125.09.273.09.443 0 .223-.05.415-.152.576-.1.16-.232.314-.392.46l-1.09 1.013h1.635v.54H37.18v-.634zm2.86-1.134c0-.28.022-.518.067-.716.044-.198.103-.364.177-.5.073-.134.155-.242.247-.323.092-.082.185-.143.28-.185.095-.04.186-.07.274-.082.09-.013.166-.02.232-.02.067 0 .144.007.232.02.088.013.18.04.275.082.095.042.188.103.28.185.09.08.173.19.246.324.072.136.13.302.176.5.045.198.068.437.068.716 0 .28-.023.518-.068.716-.045.198-.104.364-.177.5-.074.134-.156.242-.248.323-.09.082-.184.143-.28.185-.094.04-.186.07-.274.082-.088.013-.165.02-.232.02-.066 0-.143-.007-.232-.02-.088-.013-.18-.04-.274-.082-.095-.042-.188-.103-.28-.185-.09-.08-.173-.19-.246-.324-.074-.134-.133-.3-.177-.498-.045-.198-.068-.437-.068-.716zm.598 0c0 .11.007.237.022.382.015.144.046.282.093.41.046.13.114.24.204.33.09.09.21.135.36.135s.27-.045.36-.134c.088-.09.157-.2.203-.33.047-.13.077-.268.092-.412.015-.145.023-.272.023-.382 0-.11-.008-.237-.023-.382-.015-.144-.045-.282-.092-.41-.046-.13-.115-.24-.204-.33-.09-.09-.21-.135-.36-.135s-.27.044-.36.133c-.09.09-.157.2-.203.33-.047.13-.078.267-.093.41-.015.146-.022.273-.022.383zm3.492-1.078l-.663.614-.35-.414 1.068-.888h.544v3.532h-.6v-2.844zm3.797-.688l-.848 1.307.01.01c.035-.02.084-.035.146-.045.06-.01.122-.015.182-.015.156 0 .3.03.43.09s.24.14.336.244c.095.104.168.224.22.36.05.137.077.282.077.435 0 .183-.03.35-.094.5-.063.148-.15.275-.262.38-.11.105-.245.186-.4.242-.154.057-.32.085-.5.085-.187 0-.356-.027-.51-.082-.152-.055-.285-.134-.396-.237-.112-.103-.198-.23-.26-.38-.06-.15-.092-.317-.092-.503 0-.187.03-.355.092-.507.062-.15.14-.305.237-.46l.903-1.423h.73zm-1.332 2.38c0 .09.016.173.05.252.033.078.08.146.137.204.058.058.126.104.204.137.08.034.163.05.252.05.09 0 .174-.016.252-.05.078-.033.147-.08.205-.137.058-.058.104-.126.137-.204.033-.08.05-.163.05-.252 0-.09-.017-.174-.05-.252-.033-.078-.08-.147-.137-.205-.058-.058-.127-.104-.205-.137-.078-.033-.162-.05-.252-.05s-.173.017-.252.05c-.078.033-.146.08-.204.137-.058.058-.104.127-.137.205-.034.078-.05.162-.05.252z" fill="#80B600"/></g></svg>
