<?xml version="1.0" encoding="UTF-8" standalone="no"?>
<svg width="55px" height="45px" viewBox="0 0 55 45" version="1.1" xmlns="http://www.w3.org/2000/svg" xmlns:xlink="http://www.w3.org/1999/xlink">
    <defs></defs>
    <g id="Page-1" stroke="none" stroke-width="1" fill="none" fill-rule="evenodd">
        <g id="open" fill="#000000">
            <path d="M44.378,0.443 L44.378,8.956 L43.328,7.512 L43.045,7.114 L38.235,0.342 L36.23,0.342 L36.23,14.45 L38.833,14.45 L38.833,7.146 L38.828,7.112 L38.828,5.978 L40.068,7.645 L44.978,14.551 L46.978,14.551 L46.978,0.444 L44.378,0.443 Z" id="Path"></path>
            <path d="M25.688,0.342 L33.993,0.342 L33.993,2.785 L28.43,2.785 L28.43,6.045 L33.493,6.045 L33.493,8.487 L28.43,8.487 L28.43,11.907 L34.094,11.907 L34.094,14.35 L25.688,14.35 L25.688,0.342 Z" id="Path"></path>
            <path d="M18.325,2.503 C18.057,2.503 17.805,2.513 17.565,2.533 C17.325,2.553 17.131,2.577 16.985,2.603 L16.985,7.146 C17.037,7.159 17.117,7.173 17.225,7.186 C17.33,7.2 17.445,7.209 17.565,7.216 C17.683,7.222 17.8,7.226 17.915,7.226 L18.165,7.226 C18.523,7.226 18.881,7.193 19.235,7.126 C19.588,7.059 19.905,6.936 20.185,6.756 C20.465,6.576 20.689,6.326 20.855,6.006 C21.022,5.686 21.105,5.266 21.105,4.744 C21.105,4.304 21.025,3.941 20.865,3.654 C20.705,3.367 20.495,3.137 20.235,2.964 C19.975,2.791 19.675,2.671 19.345,2.604 C19.012,2.537 18.672,2.504 18.325,2.504 L18.325,2.503 Z M14.243,0.483 C14.803,0.376 15.421,0.293 16.093,0.233 C16.767,0.173 17.438,0.143 18.105,0.143 C18.798,0.143 19.495,0.2 20.195,0.313 C20.897,0.426 21.527,0.653 22.087,0.993 C22.647,1.333 23.104,1.807 23.457,2.413 C23.812,3.021 23.987,3.811 23.987,4.783 C23.987,5.665 23.835,6.409 23.527,7.016 C23.221,7.623 22.815,8.12 22.307,8.506 C21.801,8.894 21.224,9.174 20.577,9.346 C19.93,9.521 19.26,9.606 18.567,9.606 L18.245,9.606 C18.098,9.606 17.945,9.604 17.785,9.596 C17.625,9.591 17.468,9.581 17.315,9.566 C17.161,9.553 17.051,9.541 16.985,9.526 L16.985,14.35 L14.243,14.35 L14.243,0.483 L14.243,0.483 Z" id="Path"></path>
            <path d="M3.277,7.347 C3.277,8.054 3.337,8.704 3.457,9.297 C3.577,9.89 3.761,10.402 4.007,10.83 C4.254,11.256 4.571,11.59 4.957,11.83 C5.344,12.07 5.804,12.19 6.337,12.19 C7.312,12.19 8.065,11.81 8.599,11.05 C9.131,10.29 9.399,9.055 9.399,7.347 C9.399,6.667 9.341,6.033 9.229,5.447 C9.116,4.859 8.939,4.345 8.699,3.905 C8.459,3.465 8.145,3.121 7.759,2.875 C7.371,2.627 6.897,2.505 6.339,2.505 C5.364,2.505 4.609,2.893 4.076,3.675 C3.543,4.455 3.276,5.679 3.276,7.347 L3.277,7.347 Z M0.396,7.347 C0.396,5.013 0.908,3.214 1.936,1.953 C2.963,0.693 4.431,0.063 6.339,0.063 C7.339,0.063 8.213,0.235 8.959,0.583 C9.709,0.93 10.329,1.423 10.822,2.063 C11.315,2.703 11.682,3.471 11.922,4.363 C12.162,5.259 12.282,6.253 12.282,7.346 C12.282,9.679 11.765,11.478 10.732,12.739 C9.698,13.999 8.234,14.629 6.34,14.629 C5.326,14.629 4.446,14.455 3.7,14.109 C2.952,13.762 2.336,13.267 1.848,12.629 C1.361,11.987 0.998,11.219 0.758,10.326 C0.516,9.434 0.396,8.439 0.396,7.346 L0.396,7.347 Z" id="Shape"></path>
        </g>
        <g id="summer" transform="translate(0.000000, 13.000000)" fill="#80B600">
            <path d="M3.458,11.697 C3.736,12.167 3.994,12.34 4.402,12.34 C4.938,12.34 5.238,11.954 5.238,11.183 C5.238,9.896 4.658,8.653 4.188,7.193 C3.436,9.273 2.45,11.503 1.205,13.951 L0.605,13.649 C1.935,10.949 3.072,8.289 3.909,6.143 C3.735,5.478 3.649,4.77 3.649,4.02 C3.649,3.14 3.779,2.173 4.122,1.123 L5.838,1.423 C5.623,2.54 5.322,3.697 4.958,4.898 C5.022,5.371 5.151,5.8 5.408,6.228 C6.158,7.58 7.08,9.361 7.102,10.97 L7.102,11.055 C7.512,10.392 7.852,9.597 8.176,8.76 C8.303,8.76 8.776,8.93 8.776,9.06 C8.216,10.518 7.466,11.892 6.631,12.942 L6.524,13.072 C6.031,13.78 5.214,14.1 4.271,14.1 C3.263,14.1 2.448,13.522 2.148,12.643 L3.456,11.697 L3.458,11.697 Z" id="Shape"></path>
            <path d="M9.529,8.631 C9.292,9.833 9.099,10.841 9.099,11.698 C9.099,12.321 9.334,12.428 9.529,12.428 C9.869,12.428 10.514,11.162 10.965,9.295 L11.095,8.587 C11.415,6.764 11.823,5.177 12.08,4.104 L13.905,4.104 C13.155,7.45 12.532,9.938 12.532,11.697 C12.532,12.32 12.768,12.427 12.962,12.427 C13.52,12.427 14.227,11.224 15.172,8.757 C15.277,8.757 15.772,8.907 15.772,9.037 C14.828,11.503 14.078,13.993 12.318,13.993 C11.374,13.993 10.946,13.283 10.816,12.233 C10.346,13.283 9.723,13.993 8.886,13.993 C7.75,13.993 7.363,12.963 7.363,11.523 C7.363,10.645 7.513,9.616 7.707,8.586 C8.243,5.796 8.672,4.103 8.672,4.103 L10.492,4.103 C10.0116711,6.36719533 10.063,5.884 9.529,8.631 Z" id="Shape"></path>
            <path d="M14.891,10.325 C15.4767184,7.21958161 15.685,5.735 15.943,4.105 L17.789,4.105 L17.509,5.712 C18.154,4.618 18.947,3.868 19.826,3.868 C20.663,3.868 21.006,4.532 21.006,5.348 C21.006,5.496 20.984,5.691 20.963,5.884 C21.713,4.64 22.637,3.868 23.645,3.868 C24.395,3.868 24.89,4.36 24.89,5.388 C24.89,7.384 23.494,9.938 23.494,11.696 C23.494,12.319 23.729,12.426 23.924,12.426 C24.481,12.426 25.189,11.223 26.132,8.758 C26.262,8.758 26.734,8.928 26.734,9.058 C25.79,11.503 24.824,13.993 23.064,13.993 C22.314,13.993 21.607,13.389 21.607,12.083 C21.607,9.766 23.001,7.385 23.001,5.841 C23.001,5.605 22.894,5.413 22.659,5.413 C22.121,5.413 21.159,6.443 20.427,9.595 C20.105,11.335 19.74,13.095 19.547,13.887 L17.595,13.887 C18.109,11.527 19.097,6.937 19.097,6.014 C19.097,5.671 18.99,5.564 18.819,5.564 C18.132,5.564 17.231,7.236 16.652,10.304 L15.966,13.887 L14.1,13.887 C14.099,13.887 14.3052816,13.4304184 14.891,10.325 Z" id="Shape"></path>
            <path d="M25.853,10.325 C26.4389972,7.21810341 26.647,5.735 26.905,4.105 L28.748,4.105 L28.468,5.712 C29.114,4.618 29.908,3.868 30.786,3.868 C31.623,3.868 31.966,4.532 31.966,5.348 C31.966,5.496 31.946,5.691 31.923,5.884 C32.675,4.64 33.597,3.868 34.605,3.868 C35.357,3.868 35.85,4.36 35.85,5.388 C35.85,7.384 34.455,9.938 34.455,11.696 C34.455,12.319 34.69,12.426 34.885,12.426 C35.443,12.426 36.15,11.223 37.093,8.758 C37.223,8.758 37.693,8.928 37.693,9.058 C36.753,11.503 35.786,13.993 34.026,13.993 C33.276,13.993 32.568,13.389 32.568,12.083 C32.568,9.766 33.962,7.385 33.962,5.841 C33.962,5.605 33.856,5.413 33.618,5.413 C33.082,5.413 32.118,6.443 31.388,9.595 C31.066,11.335 30.702,13.095 30.508,13.887 L28.556,13.887 C29.072,11.527 30.059,6.937 30.059,6.014 C30.059,5.671 29.949,5.564 29.781,5.564 C29.093,5.564 28.191,7.236 27.614,10.304 L26.927,13.887 L25.057,13.887 C25.4578332,12.1067465 25.2670028,13.4318966 25.853,10.325 Z" id="Shape"></path>
            <path d="M44.686,6.786 C44.686,6.786 44.0280867,8.78909136 43.83,9.06 C43.6319133,9.33090864 43.1201252,10.1117489 43.228,8.78 C43.3358748,7.4482511 43.893,6.658 44.108,5.628 C43.893,5.156 43.722,4.576 43.722,3.825 C43.722,3.14 43.872,2.281 44.214,1.165 L45.822,1.637 C45.737,3.053 45.565,4.082 45.222,5.197 C45.93,5.927 46.852,6.787 46.852,8.007 C46.852,9.381 45.414,11.527 45.414,13.393 C45.414,15.773 46.45,18.863 49.912,18.863 C51.8,18.863 52.85,17.363 52.85,15.796 C52.85,14.856 52.463,13.909 51.672,13.246 L52.892,11.722 C54.074,12.624 54.652,13.976 54.652,15.327 C54.652,17.641 52.958,19.937 49.89,19.937 C45.908,19.937 43.698,16.159 43.698,13.372 C43.7,11.377 45.116,9.468 45.116,8.372 C45.116,8.372 44.924,7.236 44.686,6.786 Z" id="Path"></path>
            <path d="M43.23,8.76 C43.357,8.76 43.83,8.93 43.83,9.06 C42.758,11.87 41.685,14.1 39.583,14.1 C37.716,14.1 36.945,12.384 36.945,10.37 C36.945,7.452 38.553,3.89 40.955,3.89 C42.028,3.89 42.563,4.662 42.563,5.65 C42.563,7.172 41.278,9.233 38.745,9.64 L38.745,9.96 C38.745,11.247 39.111,12.278 40.097,12.278 C41.362,12.278 42.414,10.948 43.229,8.76 M38.809,8.823 C40.417,8.03 41.124,6.551 41.124,5.755 C41.124,5.433 40.997,5.219 40.782,5.219 C39.902,5.219 39.065,7.042 38.809,8.822" id="Path"></path>
        </g>
        <path d="M0.998,33.865 C0.998,32.76 1.241,31.908 1.728,31.312 C2.213,30.714 2.908,30.417 3.81,30.417 C4.284,30.417 4.696,30.499 5.05,30.663 C5.403,30.827 5.697,31.061 5.93,31.363 C6.163,31.667 6.338,32.03 6.45,32.453 C6.564,32.873 6.622,33.343 6.622,33.863 C6.622,34.968 6.375,35.817 5.888,36.415 C5.398,37.009 4.706,37.308 3.81,37.308 C3.33,37.308 2.913,37.226 2.56,37.062 C2.207,36.898 1.916,36.664 1.684,36.362 C1.454,36.06 1.282,35.695 1.168,35.275 C1.055,34.852 0.998,34.381 0.998,33.865 M2.361,33.865 C2.361,34.197 2.391,34.505 2.447,34.785 C2.504,35.07 2.59,35.308 2.707,35.51 C2.824,35.713 2.974,35.87 3.157,35.987 C3.341,36.097 3.557,36.155 3.811,36.155 C4.271,36.155 4.628,35.973 4.881,35.615 C5.131,35.257 5.259,34.673 5.259,33.865 C5.259,33.542 5.232,33.243 5.179,32.965 C5.125,32.689 5.041,32.445 4.929,32.235 C4.815,32.029 4.666,31.867 4.484,31.752 C4.3,31.632 4.077,31.574 3.812,31.574 C3.352,31.574 2.995,31.758 2.742,32.129 C2.489,32.495 2.362,33.075 2.362,33.864" id="Shape" fill="#000000"></path>
        <path d="M3.81,37.488 C3.307,37.488 2.86,37.402 2.486,37.224 C2.106,37.05 1.79,36.798 1.542,36.47 C1.299,36.15 1.116,35.763 0.995,35.322 C0.878,34.882 0.819,34.394 0.819,33.865 C0.819,32.722 1.079,31.825 1.587,31.199 C2.107,30.561 2.855,30.237 3.809,30.237 C4.307,30.237 4.747,30.327 5.123,30.501 C5.503,30.677 5.823,30.933 6.071,31.255 C6.318,31.575 6.504,31.962 6.623,32.405 C6.74,32.843 6.798,33.333 6.798,33.865 C6.798,35.003 6.538,35.901 6.023,36.525 C5.501,37.165 4.755,37.487 3.808,37.487 M3.808,30.595 C2.954,30.595 2.318,30.865 1.863,31.423 C1.406,31.987 1.175,32.806 1.175,33.863 C1.175,34.363 1.23,34.821 1.339,35.229 C1.449,35.624 1.611,35.971 1.826,36.254 C2.036,36.531 2.31,36.748 2.636,36.902 C2.964,37.05 3.36,37.129 3.81,37.129 C4.66,37.129 5.292,36.856 5.75,36.301 C6.21,35.739 6.444,34.916 6.444,33.863 C6.444,33.365 6.389,32.903 6.28,32.496 C6.172,32.1 6.008,31.754 5.79,31.473 C5.575,31.196 5.302,30.977 4.975,30.825 C4.645,30.675 4.253,30.595 3.81,30.595 M3.81,36.333 C3.525,36.333 3.273,36.267 3.06,36.136 C2.855,36.009 2.683,35.829 2.55,35.599 C2.426,35.382 2.33,35.119 2.27,34.822 C2.212,34.535 2.182,34.212 2.182,33.865 C2.182,33.029 2.315,32.427 2.592,32.027 C2.877,31.605 3.287,31.394 3.809,31.394 C4.106,31.394 4.364,31.462 4.576,31.597 C4.783,31.727 4.956,31.915 5.083,32.147 C5.205,32.373 5.293,32.634 5.353,32.929 C5.408,33.219 5.435,33.533 5.435,33.865 C5.435,34.715 5.302,35.322 5.025,35.719 C4.737,36.126 4.328,36.333 3.809,36.333 M3.809,31.751 C3.406,31.751 3.104,31.905 2.887,32.226 C2.657,32.564 2.539,33.116 2.539,33.866 C2.539,34.186 2.569,34.486 2.622,34.752 C2.674,35.012 2.755,35.238 2.862,35.422 C2.965,35.6 3.092,35.734 3.25,35.834 C3.407,35.93 3.59,35.974 3.81,35.974 C4.214,35.974 4.515,35.827 4.734,35.514 C4.964,35.184 5.081,34.629 5.081,33.866 C5.081,33.554 5.055,33.262 5.003,32.996 C4.953,32.739 4.876,32.513 4.771,32.323 C4.671,32.141 4.543,31.999 4.387,31.901 C4.23,31.798 4.043,31.751 3.811,31.751 M7.67,30.55 L11.6,30.55 L11.6,31.703 L8.967,31.703 L8.967,33.343 L11.392,33.343 L11.392,34.5 L8.967,34.5 L8.967,37.178 L7.67,37.178" id="Shape" fill="#000000"></path>
        <path d="M9.146,37.355 L7.49,37.355 L7.49,30.37 L11.778,30.37 L11.778,31.887 L9.146,31.887 L9.146,33.164 L11.57,33.164 L11.57,34.678 L9.146,34.678 L9.146,37.355 L9.146,37.355 Z M7.849,36.998 L8.787,36.998 L8.787,34.32 L11.211,34.32 L11.211,33.52 L8.787,33.52 L8.787,31.527 L11.419,31.527 L11.419,30.73 L7.849,30.73 L7.849,36.998 L7.849,36.998 Z M1.285,38.43 L11.725,38.43 L11.725,40.172 L1.285,40.172 L1.285,38.43 Z M22.147,39.105 C21.842,39.32 21.453,39.48 20.981,39.575 C20.511,39.665 20.026,39.715 19.531,39.715 C18.931,39.715 18.361,39.621 17.821,39.438 C17.281,39.25 16.809,38.95 16.399,38.536 C15.989,38.122 15.663,37.583 15.419,36.921 C15.176,36.261 15.055,35.455 15.055,34.511 C15.055,33.531 15.192,32.707 15.463,32.045 C15.735,31.383 16.088,30.85 16.521,30.443 C16.956,30.039 17.439,29.746 17.973,29.573 C18.508,29.393 19.04,29.306 19.575,29.306 C20.147,29.306 20.631,29.346 21.027,29.419 C21.423,29.497 21.75,29.587 22.007,29.692 L21.619,31.352 C21.399,31.248 21.139,31.172 20.839,31.122 C20.539,31.078 20.174,31.052 19.747,31.052 C18.954,31.052 18.317,31.336 17.837,31.897 C17.355,32.463 17.115,33.335 17.115,34.522 C17.115,35.036 17.172,35.506 17.287,35.93 C17.401,36.356 17.575,36.72 17.809,37.02 C18.041,37.323 18.332,37.557 18.681,37.72 C19.029,37.89 19.431,37.975 19.889,37.975 C20.319,37.975 20.681,37.93 20.976,37.842 C21.271,37.758 21.53,37.649 21.749,37.516 L22.149,39.106 L22.147,39.105 Z" id="Shape" fill="#000000"></path>
        <path d="M19.53,39.77 C18.925,39.77 18.344,39.674 17.803,39.49 C17.26,39.3 16.773,38.995 16.359,38.573 C15.944,38.153 15.609,37.603 15.366,36.938 C15.121,36.274 14.996,35.458 14.996,34.51 C14.996,33.53 15.136,32.692 15.409,32.022 C15.684,31.356 16.044,30.812 16.479,30.402 C16.921,29.992 17.416,29.694 17.952,29.518 C18.49,29.34 19.034,29.25 19.572,29.25 C20.142,29.25 20.632,29.29 21.032,29.365 C21.432,29.441 21.764,29.537 22.022,29.64 L22.066,29.658 L21.653,31.428 L21.593,31.398 C21.377,31.298 21.12,31.218 20.827,31.176 C20.524,31.129 20.16,31.104 19.744,31.104 C18.972,31.104 18.344,31.381 17.876,31.93 C17.406,32.483 17.166,33.352 17.166,34.52 C17.166,35.028 17.223,35.5 17.336,35.915 C17.448,36.335 17.621,36.695 17.848,36.985 C18.075,37.28 18.362,37.51 18.7,37.671 C19.04,37.836 19.437,37.918 19.885,37.918 C20.303,37.918 20.665,37.878 20.957,37.793 C21.247,37.707 21.504,37.6 21.715,37.469 L21.777,37.432 L22.205,39.132 L22.175,39.152 C21.862,39.374 21.463,39.536 20.987,39.63 C20.512,39.723 20.02,39.772 19.527,39.772 M19.57,29.362 C19.045,29.362 18.512,29.449 17.986,29.625 C17.464,29.795 16.982,30.085 16.553,30.485 C16.128,30.882 15.776,31.412 15.508,32.065 C15.24,32.72 15.104,33.545 15.104,34.511 C15.104,35.444 15.226,36.248 15.464,36.901 C15.704,37.551 16.029,38.089 16.432,38.499 C16.835,38.905 17.307,39.206 17.835,39.386 C18.363,39.57 18.933,39.661 19.525,39.661 C20.01,39.661 20.495,39.616 20.965,39.521 C21.411,39.431 21.785,39.286 22.081,39.081 L21.707,37.598 C21.501,37.715 21.257,37.818 20.985,37.895 C20.681,37.983 20.311,38.028 19.882,38.028 C19.419,38.028 19.004,37.942 18.65,37.768 C18.297,37.6 17.997,37.36 17.76,37.051 C17.523,36.748 17.343,36.375 17.227,35.941 C17.112,35.516 17.054,35.038 17.054,34.521 C17.054,33.325 17.301,32.431 17.789,31.861 C18.279,31.286 18.934,30.995 19.739,30.995 C20.161,30.995 20.531,31.02 20.839,31.067 C21.116,31.112 21.362,31.18 21.574,31.274 L21.934,29.724 C21.688,29.627 21.376,29.544 21.008,29.474 C20.616,29.397 20.131,29.36 19.568,29.36 M22.577,34.51 C22.577,32.842 22.944,31.557 23.679,30.658 C24.411,29.754 25.459,29.304 26.824,29.304 C27.54,29.304 28.164,29.429 28.698,29.674 C29.23,29.924 29.674,30.277 30.028,30.734 C30.378,31.191 30.641,31.74 30.813,32.379 C30.985,33.015 31.07,33.729 31.07,34.509 C31.07,36.179 30.7,37.462 29.963,38.363 C29.223,39.263 28.177,39.715 26.823,39.715 C26.099,39.715 25.47,39.592 24.935,39.345 C24.403,39.095 23.961,38.745 23.615,38.287 C23.265,37.827 23.005,37.279 22.835,36.639 C22.661,35.999 22.575,35.292 22.575,34.509 M24.635,34.509 C24.635,35.015 24.675,35.479 24.762,35.902 C24.848,36.328 24.979,36.692 25.156,36.998 C25.332,37.302 25.558,37.542 25.836,37.714 C26.112,37.886 26.441,37.972 26.822,37.972 C27.518,37.972 28.057,37.699 28.438,37.156 C28.819,36.613 29.01,35.73 29.01,34.51 C29.01,34.024 28.97,33.57 28.888,33.153 C28.808,32.733 28.682,32.366 28.51,32.049 C28.338,31.739 28.114,31.491 27.837,31.316 C27.559,31.138 27.22,31.05 26.821,31.05 C26.125,31.05 25.586,31.33 25.205,31.89 C24.822,32.443 24.633,33.318 24.633,34.51" id="Shape" fill="#000000"></path>
        <path d="M26.824,39.77 C26.096,39.77 25.454,39.643 24.912,39.395 C24.37,39.139 23.919,38.778 23.57,38.319 C23.22,37.859 22.955,37.299 22.78,36.652 C22.61,36.012 22.522,35.292 22.522,34.509 C22.522,32.835 22.896,31.527 23.635,30.622 C24.377,29.71 25.449,29.249 26.823,29.249 C27.543,29.249 28.181,29.379 28.72,29.626 C29.258,29.876 29.712,30.241 30.07,30.7 C30.424,31.162 30.692,31.722 30.865,32.365 C31.038,33.008 31.125,33.725 31.125,34.51 C31.125,36.182 30.749,37.492 30.005,38.4 C29.259,39.31 28.188,39.77 26.825,39.77 L26.824,39.77 Z M26.825,29.36 C25.485,29.36 24.44,29.806 23.72,30.69 C22.998,31.578 22.63,32.86 22.63,34.51 C22.63,35.28 22.717,35.993 22.886,36.624 C23.056,37.257 23.316,37.804 23.656,38.251 C23.996,38.701 24.433,39.051 24.959,39.295 C25.484,39.537 26.112,39.66 26.824,39.66 C28.154,39.66 29.198,39.214 29.92,38.33 C30.65,37.442 31.018,36.157 31.018,34.51 C31.018,33.736 30.932,33.025 30.762,32.392 C30.592,31.765 30.332,31.216 29.986,30.767 C29.64,30.318 29.2,29.967 28.676,29.727 C28.15,29.484 27.528,29.359 26.824,29.359 L26.825,29.36 Z M26.824,38.026 C26.434,38.026 26.092,37.934 25.809,37.756 C25.524,37.582 25.289,37.336 25.109,37.024 C24.931,36.714 24.799,36.342 24.711,35.914 C24.623,35.486 24.581,35.014 24.581,34.509 C24.581,33.309 24.776,32.417 25.163,31.855 C25.553,31.283 26.113,30.995 26.823,30.995 C27.233,30.995 27.585,31.088 27.869,31.267 C28.151,31.449 28.384,31.703 28.557,32.025 C28.732,32.343 28.862,32.718 28.943,33.14 C29.024,33.562 29.066,34.024 29.066,34.51 C29.066,35.737 28.869,36.637 28.484,37.186 C28.094,37.744 27.534,38.026 26.824,38.026 L26.824,38.026 Z M26.824,31.104 C26.148,31.104 25.619,31.377 25.252,31.918 C24.878,32.461 24.689,33.332 24.689,34.51 C24.689,35.01 24.732,35.473 24.817,35.895 C24.901,36.311 25.032,36.672 25.205,36.971 C25.375,37.269 25.598,37.503 25.867,37.669 C26.133,37.835 26.455,37.917 26.824,37.917 C27.497,37.917 28.026,37.651 28.394,37.127 C28.768,36.595 28.957,35.714 28.957,34.511 C28.957,34.031 28.917,33.577 28.837,33.163 C28.757,32.751 28.633,32.388 28.462,32.077 C28.297,31.772 28.076,31.532 27.809,31.362 C27.542,31.192 27.211,31.106 26.823,31.106 L26.824,31.104 Z M32.473,29.504 C32.673,29.474 32.9,29.449 33.151,29.434 C33.406,29.416 33.666,29.401 33.931,29.391 C34.201,29.381 34.459,29.376 34.711,29.369 C34.965,29.365 35.191,29.363 35.391,29.363 C36.279,29.363 37.036,29.488 37.664,29.733 C38.294,29.983 38.804,30.333 39.194,30.779 C39.584,31.229 39.872,31.759 40.052,32.381 C40.234,33.001 40.325,33.681 40.325,34.426 C40.325,35.104 40.239,35.756 40.068,36.386 C39.895,37.012 39.61,37.573 39.208,38.059 C38.808,38.545 38.282,38.934 37.628,39.231 C36.976,39.526 36.168,39.676 35.204,39.676 C35.052,39.676 34.85,39.668 34.598,39.66 C34.344,39.65 34.083,39.64 33.812,39.622 L33.032,39.582 C32.785,39.565 32.597,39.55 32.474,39.532 L32.474,29.504 L32.473,29.504 Z M35.547,31.107 C35.337,31.107 35.125,31.111 34.912,31.121 C34.696,31.131 34.537,31.145 34.432,31.163 L34.432,37.873 C34.47,37.88 34.535,37.888 34.626,37.893 C34.716,37.896 34.814,37.903 34.918,37.908 C35.024,37.914 35.123,37.918 35.218,37.922 C35.313,37.929 35.386,37.932 35.433,37.932 C35.986,37.932 36.446,37.832 36.813,37.636 C37.179,37.443 37.473,37.186 37.687,36.856 C37.9,36.536 38.05,36.162 38.137,35.734 C38.222,35.312 38.264,34.877 38.264,34.427 C38.264,34.037 38.226,33.642 38.15,33.247 C38.074,32.852 37.933,32.497 37.73,32.185 C37.523,31.867 37.246,31.609 36.893,31.41 C36.538,31.21 36.091,31.11 35.547,31.11 L35.547,31.107 Z" id="Shape" fill="#000000"></path>
        <path d="M35.203,39.727 C35.059,39.727 34.86,39.725 34.593,39.713 C34.343,39.703 34.08,39.693 33.807,39.676 L33.029,39.636 C32.754,39.616 32.579,39.602 32.465,39.582 L32.42,39.576 L32.42,29.46 L32.466,29.45 C32.666,29.422 32.889,29.396 33.149,29.38 C33.425,29.36 33.681,29.346 33.929,29.336 C34.197,29.326 34.455,29.32 34.709,29.316 L34.839,29.313 C35.041,29.309 35.224,29.307 35.391,29.307 C36.277,29.307 37.047,29.434 37.683,29.682 C38.319,29.934 38.84,30.289 39.236,30.742 C39.631,31.198 39.923,31.742 40.103,32.364 C40.286,32.984 40.378,33.678 40.378,34.424 C40.378,35.104 40.291,35.767 40.118,36.4 C39.943,37.035 39.651,37.603 39.248,38.09 C38.848,38.58 38.308,38.982 37.651,39.28 C36.989,39.576 36.166,39.727 35.201,39.727 L35.203,39.727 Z M32.525,39.482 C32.635,39.498 32.797,39.512 33.033,39.525 L33.81,39.568 C34.083,39.582 34.342,39.593 34.596,39.605 C34.859,39.615 35.058,39.619 35.2,39.619 C36.15,39.619 36.96,39.469 37.602,39.179 C38.247,38.886 38.77,38.497 39.162,38.019 C39.556,37.546 39.842,36.989 40.012,36.369 C40.18,35.746 40.266,35.094 40.266,34.424 C40.266,33.688 40.176,33.008 39.996,32.394 C39.819,31.786 39.536,31.254 39.15,30.814 C38.767,30.374 38.258,30.028 37.64,29.786 C37.017,29.54 36.26,29.416 35.387,29.416 C35.221,29.416 35.037,29.419 34.835,29.421 L34.707,29.423 C34.454,29.431 34.194,29.435 33.93,29.448 C33.68,29.453 33.426,29.468 33.152,29.486 C32.916,29.504 32.709,29.526 32.522,29.554 L32.522,39.48 L32.525,39.482 Z M35.431,37.982 C35.384,37.982 35.309,37.978 35.213,37.974 L35.053,37.968 L34.913,37.96 C34.827,37.958 34.746,37.954 34.668,37.948 L34.62,37.944 C34.53,37.94 34.46,37.932 34.418,37.924 L34.375,37.914 L34.375,31.118 L34.419,31.11 C34.524,31.09 34.679,31.075 34.909,31.065 C35.122,31.057 35.337,31.051 35.546,31.051 C36.096,31.051 36.558,31.156 36.918,31.361 C37.273,31.561 37.562,31.826 37.771,32.151 C37.978,32.468 38.124,32.831 38.201,33.234 C38.278,33.634 38.316,34.034 38.316,34.424 C38.316,34.874 38.273,35.318 38.186,35.744 C38.1,36.171 37.946,36.554 37.728,36.884 C37.51,37.216 37.208,37.486 36.835,37.684 C36.465,37.882 35.991,37.984 35.431,37.984 L35.431,37.982 Z M34.484,37.824 C34.514,37.831 34.56,37.834 34.626,37.839 L34.676,37.841 L34.918,37.853 L35.058,37.859 C35.114,37.863 35.168,37.865 35.218,37.867 C35.315,37.875 35.385,37.877 35.431,37.877 C35.973,37.877 36.428,37.779 36.786,37.587 C37.142,37.399 37.43,37.145 37.638,36.827 C37.848,36.51 37.998,36.137 38.08,35.722 C38.165,35.307 38.21,34.869 38.21,34.426 C38.21,34.041 38.17,33.651 38.094,33.258 C38.02,32.868 37.88,32.516 37.681,32.211 C37.481,31.903 37.204,31.648 36.864,31.456 C36.52,31.261 36.077,31.163 35.546,31.163 C35.339,31.163 35.124,31.165 34.913,31.177 C34.721,31.185 34.583,31.197 34.485,31.212 L34.485,37.826 L34.484,37.824 Z M41.726,29.504 L47.661,29.504 L47.661,31.25 L43.686,31.25 L43.686,33.58 L47.304,33.58 L47.304,35.324 L43.686,35.324 L43.686,37.771 L47.732,37.771 L47.732,39.519 L41.728,39.519 L41.726,29.504 Z" id="Shape" fill="#000000"></path>
        <path d="M41.78,39.463 L47.677,39.463 L47.677,37.823 L43.63,37.823 L43.63,35.27 L47.247,35.27 L47.247,33.635 L43.63,33.635 L43.63,31.197 L47.606,31.197 L47.606,29.557 L41.78,29.557 L41.78,39.463 L41.78,39.463 Z" id="Shape" fill="#000000"></path>
        <path d="M1.284,42.182 L34.224,42.182 L34.224,43.922 L1.284,43.922 L1.284,42.182 Z" id="Path" fill="#80B600"></path>
        <path d="M37.1804153,43.9585191 L38.5524098,42.6314262 C38.5923226,42.5915135 38.6338978,42.5491068 38.6771366,42.5042049 C38.7203754,42.4593031 38.7594561,42.4119074 38.7943798,42.3620164 C38.8293035,42.3121254 38.8584061,42.2597407 38.8816885,42.2048607 C38.904971,42.1499806 38.916612,42.0926069 38.916612,42.0327377 C38.916612,41.9595643 38.9024765,41.894707 38.8742049,41.8381639 C38.8459334,41.7816208 38.8085157,41.7333936 38.7619508,41.6934809 C38.7153859,41.6535681 38.6613382,41.6228025 38.599806,41.6011831 C38.5382738,41.5795636 38.472585,41.5687541 38.4027377,41.5687541 C38.2530648,41.5687541 38.1300023,41.6119923 38.0335464,41.6984699 C37.9370906,41.7849476 37.8788853,41.9013581 37.858929,42.0477049 L37.230306,41.9978142 C37.2436103,41.8348371 37.2826909,41.690987 37.3475492,41.5662596 C37.4124074,41.4415322 37.4963893,41.3375942 37.5994973,41.2544426 C37.7026053,41.171291 37.8223418,41.1080968 37.9587104,41.0648579 C38.095079,41.0216191 38.2430866,41 38.4027377,41 C38.5623888,41 38.7112279,41.0207876 38.8492596,41.0623634 C38.9872912,41.1039392 39.1078592,41.1654704 39.2109672,41.246959 C39.3140752,41.3284476 39.3955625,41.4323855 39.4554317,41.558776 C39.5153008,41.6851664 39.545235,41.833174 39.545235,42.0028033 C39.545235,42.2256496 39.4945133,42.4177269 39.3930683,42.579041 C39.2916234,42.7403551 39.1610773,42.8941832 39.0014262,43.0405301 L37.9088197,44.0533115 L39.545235,44.0533115 L39.545235,44.5921311 L37.1804153,44.5921311 L37.1804153,43.9585191 Z M40.039153,42.826 C40.039153,42.5466106 40.0616036,42.3079691 40.1065055,42.1100683 C40.1514073,41.9121675 40.2104441,41.7458668 40.2836175,41.6111612 C40.3567909,41.4764556 40.4391097,41.3683602 40.5305765,41.2868716 C40.6220433,41.205383 40.7151717,41.1438518 40.8099645,41.102276 C40.9047573,41.0607002 40.9962227,41.0332605 41.0843634,41.0199563 C41.1725041,41.006652 41.2498339,41 41.3163552,41 C41.3828765,41 41.4602063,41.006652 41.548347,41.0199563 C41.6364877,41.0332605 41.7279531,41.0607002 41.8227459,41.102276 C41.9175387,41.1438518 42.0106671,41.205383 42.1021339,41.2868716 C42.1936006,41.3683602 42.2759195,41.4764556 42.3490929,41.6111612 C42.4222663,41.7458668 42.4813031,41.9121675 42.5262049,42.1100683 C42.5711068,42.3079691 42.5935574,42.5466106 42.5935574,42.826 C42.5935574,43.1053894 42.5711068,43.3440309 42.5262049,43.5419317 C42.4813031,43.7398325 42.4222663,43.9061332 42.3490929,44.0408388 C42.2759195,44.1755444 42.1936006,44.2836398 42.1021339,44.3651284 C42.0106671,44.446617 41.9175387,44.5081482 41.8227459,44.549724 C41.7279531,44.5912998 41.6364877,44.6187395 41.548347,44.6320437 C41.4602063,44.645348 41.3828765,44.652 41.3163552,44.652 C41.2498339,44.652 41.1725041,44.645348 41.0843634,44.6320437 C40.9962227,44.6187395 40.9047573,44.5912998 40.8099645,44.549724 C40.7151717,44.5081482 40.6220433,44.446617 40.5305765,44.3651284 C40.4391097,44.2836398 40.3567909,44.1755444 40.2836175,44.0408388 C40.2104441,43.9061332 40.1514073,43.7398325 40.1065055,43.5419317 C40.0616036,43.3440309 40.039153,43.1053894 40.039153,42.826 L40.039153,42.826 Z M40.6378415,42.826 C40.6378415,42.9357601 40.6453251,43.0629802 40.6602923,43.2076639 C40.6752596,43.3523477 40.7060253,43.4895458 40.7525902,43.6192623 C40.7991551,43.7489788 40.8673383,43.8587373 40.9571421,43.948541 C41.0469458,44.0383447 41.1666823,44.0832459 41.3163552,44.0832459 C41.4660281,44.0832459 41.5857646,44.0383447 41.6755683,43.948541 C41.765372,43.8587373 41.8335553,43.7489788 41.8801202,43.6192623 C41.9266851,43.4895458 41.9574507,43.3523477 41.972418,43.2076639 C41.9873853,43.0629802 41.9948689,42.9357601 41.9948689,42.826 C41.9948689,42.7162399 41.9873853,42.5890198 41.972418,42.4443361 C41.9574507,42.2996523 41.9266851,42.1624542 41.8801202,42.0327377 C41.8335553,41.9030212 41.765372,41.7932627 41.6755683,41.703459 C41.5857646,41.6136553 41.4660281,41.5687541 41.3163552,41.5687541 C41.1666823,41.5687541 41.0469458,41.6136553 40.9571421,41.703459 C40.8673383,41.7932627 40.7991551,41.9030212 40.7525902,42.0327377 C40.7060253,42.1624542 40.6752596,42.2996523 40.6602923,42.4443361 C40.6453251,42.5890198 40.6378415,42.7162399 40.6378415,42.826 L40.6378415,42.826 Z M44.1301913,41.7483607 L43.4666448,42.3620164 L43.1174098,41.9479235 L44.185071,41.0598689 L44.7288798,41.0598689 L44.7288798,44.5921311 L44.1301913,44.5921311 L44.1301913,41.7483607 Z M47.9268743,41.0598689 L47.0787322,42.3670055 L47.0887104,42.3769836 C47.1252971,42.3570272 47.1743558,42.3420602 47.235888,42.332082 C47.2974202,42.3221038 47.3581199,42.3171148 47.4179891,42.3171148 C47.5743141,42.3171148 47.7173327,42.3470489 47.8470492,42.406918 C47.9767657,42.4667872 48.0890187,42.5482745 48.1838115,42.6513825 C48.2786043,42.7544905 48.3517766,42.874227 48.4033306,43.0105956 C48.4548846,43.1469643 48.4806612,43.2916459 48.4806612,43.4446448 C48.4806612,43.6275783 48.4490641,43.793879 48.3858689,43.9435519 C48.3226736,44.0932248 48.2353658,44.2204448 48.1239426,44.3252158 C48.0125195,44.4299869 47.8794789,44.5106427 47.7248169,44.5671858 C47.570155,44.6237289 47.4030228,44.652 47.2234153,44.652 C47.0371557,44.652 46.867529,44.6245604 46.7145301,44.5696803 C46.5615311,44.5148003 46.4293221,44.4358074 46.3178989,44.3326995 C46.2064758,44.2295915 46.1199994,44.1032029 46.0584672,43.9535301 C45.996935,43.8038572 45.9661694,43.6358935 45.9661694,43.4496339 C45.9661694,43.2633743 45.996935,43.0945791 46.0584672,42.9432432 C46.1199994,42.7919073 46.1989922,42.6380791 46.2954481,42.4817541 L47.1984699,41.0598689 L47.9268743,41.0598689 Z M46.5947923,43.4396557 C46.5947923,43.5294595 46.6114224,43.6134413 46.6446831,43.6916038 C46.6779437,43.7697663 46.7236764,43.8379496 46.7818825,43.8961557 C46.8400886,43.9543619 46.9082719,44.0000946 46.9864344,44.0333552 C47.0645969,44.0666158 47.1485788,44.0832459 47.2383825,44.0832459 C47.3281862,44.0832459 47.4121681,44.0666158 47.4903306,44.0333552 C47.5684931,44.0000946 47.6366764,43.9543619 47.6948825,43.8961557 C47.7530886,43.8379496 47.7988213,43.7697663 47.832082,43.6916038 C47.8653426,43.6134413 47.8819727,43.5294595 47.8819727,43.4396557 C47.8819727,43.349852 47.8653426,43.2658702 47.832082,43.1877077 C47.7988213,43.1095451 47.7530886,43.0413619 47.6948825,42.9831557 C47.6366764,42.9249496 47.5684931,42.8792169 47.4903306,42.8459563 C47.4121681,42.8126956 47.3281862,42.7960656 47.2383825,42.7960656 C47.1485788,42.7960656 47.0645969,42.8126956 46.9864344,42.8459563 C46.9082719,42.8792169 46.8400886,42.9249496 46.7818825,42.9831557 C46.7236764,43.0413619 46.6779437,43.1095451 46.6446831,43.1877077 C46.6114224,43.2658702 46.5947923,43.349852 46.5947923,43.4396557 L46.5947923,43.4396557 Z" id="2016" fill="#80B600"></path>
    </g>
</svg>