<svg id="Isolatiemodus" xmlns="http://www.w3.org/2000/svg" viewBox="0 0 46.02 78.54"><defs><style>.cls-1{fill:#0091ea;}.cls-2{font-size:34px;font-family:Open Sans;}.cls-2,.cls-4{fill:#fafafa;}.cls-3{fill:#fff;}</style></defs><title>img_</title><rect class="cls-1" x="0.97" width="43.31" height="43.31" rx="4.21" ry="4.21"/><text class="cls-2" transform="translate(14.02 35.05)">P</text><path class="cls-3" d="M7.23,52.59a2.63,2.63,0,0,1-1,2.19,4.4,4.4,0,0,1-2.78.77H2.38v3.69H1.29V49.86H3.72Q7.23,49.86,7.23,52.59Zm-4.85,2h1a3.65,3.65,0,0,0,2.1-.47,1.73,1.73,0,0,0,.65-1.5,1.62,1.62,0,0,0-.61-1.38,3.18,3.18,0,0,0-1.9-.46H2.38v3.81Z"/><path class="cls-3" d="M13.35,59.23l-0.21-1H13.09a3,3,0,0,1-1,.89,3.21,3.21,0,0,1-1.3.23,2.35,2.35,0,0,1-1.64-.54,2,2,0,0,1-.59-1.53q0-2.13,3.4-2.23l1.19,0V54.58a1.78,1.78,0,0,0-.36-1.22A1.46,1.46,0,0,0,11.61,53a4.63,4.63,0,0,0-2,.54l-0.33-.81a5.07,5.07,0,0,1,1.14-.44,5,5,0,0,1,1.24-.16,2.68,2.68,0,0,1,1.86.56,2.33,2.33,0,0,1,.61,1.79v4.79H13.35Zm-2.4-.75a2.16,2.16,0,0,0,1.56-.54,2,2,0,0,0,.57-1.53V55.78l-1.06,0a3.87,3.87,0,0,0-1.83.39,1.19,1.19,0,0,0-.56,1.09,1.1,1.1,0,0,0,.35.88A1.45,1.45,0,0,0,10.95,58.48Z"/><path class="cls-3" d="M19.54,52.08a4.13,4.13,0,0,1,.84.08l-0.15,1a3.61,3.61,0,0,0-.77-0.1,1.87,1.87,0,0,0-1.46.69,2.52,2.52,0,0,0-.61,1.72v3.77H16.33v-7h0.88l0.12,1.3h0.05a3.08,3.08,0,0,1,.94-1.06A2.12,2.12,0,0,1,19.54,52.08Z"/><path class="cls-3" d="M22.74,55.64a12.41,12.41,0,0,1,.84-1l2.27-2.4h1.26l-2.85,3,3,4H26l-2.48-3.32-0.8.69v2.63H21.69v-10h1.05v5.29q0,0.35-.05,1.09h0.05Z"/><path class="cls-3" d="M28.49,50.3a0.71,0.71,0,0,1,.18-0.54,0.66,0.66,0,0,1,.89,0,0.69,0.69,0,0,1,.19.53,0.7,0.7,0,0,1-.19.54,0.65,0.65,0,0,1-.89,0A0.72,0.72,0,0,1,28.49,50.3Zm1.15,8.93H28.58v-7h1.06v7Z"/><path class="cls-3" d="M36.71,59.23V54.69a1.83,1.83,0,0,0-.39-1.28A1.59,1.59,0,0,0,35.09,53a2,2,0,0,0-1.62.6,3,3,0,0,0-.51,2v3.69H31.9v-7h0.87l0.17,1H33a2.18,2.18,0,0,1,.92-0.8,3,3,0,0,1,1.31-.29,2.67,2.67,0,0,1,1.91.61,2.61,2.61,0,0,1,.64,2v4.58H36.71Z"/><path class="cls-3" d="M45.71,52.21v0.67l-1.3.15a2.29,2.29,0,0,1,.46,1.4,2.08,2.08,0,0,1-.71,1.65,2.85,2.85,0,0,1-1.94.62,3.22,3.22,0,0,1-.59-0.05,1,1,0,0,0-.68.9,0.46,0.46,0,0,0,.24.43,1.73,1.73,0,0,0,.81.14h1.24A2.79,2.79,0,0,1,45,58.6a1.67,1.67,0,0,1,.61,1.4,2,2,0,0,1-.94,1.78,5,5,0,0,1-2.73.61,3.73,3.73,0,0,1-2.12-.51,1.65,1.65,0,0,1-.75-1.45,1.63,1.63,0,0,1,.41-1.11,2.09,2.09,0,0,1,1.15-.63,1.12,1.12,0,0,1-.45-0.38,1,1,0,0,1-.18-0.6A1.13,1.13,0,0,1,40.21,57a2.14,2.14,0,0,1,.65-0.56A1.9,1.9,0,0,1,40,55.71a2.24,2.24,0,0,1-.34-1.23,2.28,2.28,0,0,1,.69-1.78,2.83,2.83,0,0,1,2-.62,3.59,3.59,0,0,1,1,.13h2.43Zm-5.6,8.21a1,1,0,0,0,.48.87,2.66,2.66,0,0,0,1.38.29,3.84,3.84,0,0,0,2-.4,1.23,1.23,0,0,0,.64-1.09,0.86,0.86,0,0,0-.35-0.79,2.74,2.74,0,0,0-1.33-.22H41.64a1.68,1.68,0,0,0-1.13.35A1.24,1.24,0,0,0,40.11,60.41Zm0.58-6a1.43,1.43,0,0,0,.42,1.12,1.67,1.67,0,0,0,1.16.38,1.36,1.36,0,0,0,1.56-1.51,1.4,1.4,0,0,0-1.58-1.58,1.56,1.56,0,0,0-1.15.4A1.63,1.63,0,0,0,40.68,54.46Z"/><path d="M15.84,68.58a2.4,2.4,0,0,1-.89,2,4,4,0,0,1-2.54.7h-1v3.37h-1V66.09h2.22Q15.84,66.09,15.84,68.58Zm-4.44,1.85h0.9A3.33,3.33,0,0,0,14.22,70a1.58,1.58,0,0,0,.59-1.37,1.48,1.48,0,0,0-.56-1.27,2.91,2.91,0,0,0-1.73-.42H11.41v3.48Z"/><path d="M21.44,74.65l-0.19-.91h0a2.7,2.7,0,0,1-1,.82,2.92,2.92,0,0,1-1.19.21,2.14,2.14,0,0,1-1.5-.49,1.8,1.8,0,0,1-.54-1.4q0-1.95,3.11-2l1.09,0v-0.4a1.63,1.63,0,0,0-.33-1.12,1.34,1.34,0,0,0-1-.36,4.24,4.24,0,0,0-1.82.49l-0.3-.74a4.57,4.57,0,0,1,1-.4,4.5,4.5,0,0,1,1.13-.15,2.45,2.45,0,0,1,1.7.51,2.13,2.13,0,0,1,.55,1.63v4.38H21.44ZM19.24,74a2,2,0,0,0,1.43-.5,1.84,1.84,0,0,0,.52-1.39V71.5l-1,0a3.54,3.54,0,0,0-1.67.36,1.09,1.09,0,0,0-.51,1,1,1,0,0,0,.32.8A1.33,1.33,0,0,0,19.24,74Z"/><path d="M27.09,68.12a3.81,3.81,0,0,1,.77.07l-0.13.9A3.31,3.31,0,0,0,27,69a1.71,1.71,0,0,0-1.33.63,2.31,2.31,0,0,0-.55,1.58v3.45h-1V68.23H25l0.11,1.19h0a2.82,2.82,0,0,1,.86-1A1.94,1.94,0,0,1,27.09,68.12Z"/><path d="M29,66.49A0.65,0.65,0,0,1,29.14,66,0.61,0.61,0,0,1,30,66a0.63,0.63,0,0,1,.17.49A0.64,0.64,0,0,1,30,67a0.6,0.6,0,0,1-.81,0A0.66,0.66,0,0,1,29,66.49ZM30,74.65h-1V68.23h1v6.42Z"/><path d="M36.24,72.9a1.61,1.61,0,0,1-.67,1.38,3.14,3.14,0,0,1-1.87.49,4.08,4.08,0,0,1-2-.4v-0.9a4.82,4.82,0,0,0,1,.37,4.15,4.15,0,0,0,1,.13,2.32,2.32,0,0,0,1.17-.24A0.84,0.84,0,0,0,35,72.34a5.12,5.12,0,0,0-1.27-.63,6.88,6.88,0,0,1-1.27-.58,1.74,1.74,0,0,1-.56-0.57,1.47,1.47,0,0,1-.18-0.76,1.44,1.44,0,0,1,.64-1.24,3,3,0,0,1,1.75-.45,5.13,5.13,0,0,1,2,.42l-0.35.79a4.65,4.65,0,0,0-1.75-.4,2,2,0,0,0-1,.22,0.67,0.67,0,0,0-.35.6,0.73,0.73,0,0,0,.13.44,1.3,1.3,0,0,0,.42.35,9.49,9.49,0,0,0,1.13.47,4.2,4.2,0,0,1,1.54.84A1.48,1.48,0,0,1,36.24,72.9Z"/><rect class="cls-1" x="0.97" width="43.31" height="43.31" rx="4.21" ry="4.21"/><path class="cls-4" d="M32.75,17.85a6.8,6.8,0,0,1-2.52,5.67q-2.51,2-7.2,2H20.18v9.55H17.36V10.78h6.29Q32.75,10.78,32.75,17.85ZM20.18,23.08h2.54q3.75,0,5.43-1.21A4.46,4.46,0,0,0,29.83,18a4.19,4.19,0,0,0-1.58-3.59,8.24,8.24,0,0,0-4.91-1.18H20.18v9.86Z"/><path class="cls-3" d="M7.23,52.59a2.63,2.63,0,0,1-1,2.19,4.4,4.4,0,0,1-2.78.77H2.38v3.69H1.29V49.86H3.72Q7.23,49.86,7.23,52.59Zm-4.85,2h1a3.65,3.65,0,0,0,2.1-.47,1.73,1.73,0,0,0,.65-1.5,1.62,1.62,0,0,0-.61-1.38,3.18,3.18,0,0,0-1.9-.46H2.38v3.81Z"/><path class="cls-3" d="M13.35,59.23l-0.21-1H13.09a3,3,0,0,1-1,.89,3.21,3.21,0,0,1-1.3.23,2.35,2.35,0,0,1-1.64-.54,2,2,0,0,1-.59-1.53q0-2.13,3.4-2.23l1.19,0V54.58a1.78,1.78,0,0,0-.36-1.22A1.46,1.46,0,0,0,11.61,53a4.63,4.63,0,0,0-2,.54l-0.33-.81a5.07,5.07,0,0,1,1.14-.44,5,5,0,0,1,1.24-.16,2.68,2.68,0,0,1,1.86.56,2.33,2.33,0,0,1,.61,1.79v4.79H13.35Zm-2.4-.75a2.16,2.16,0,0,0,1.56-.54,2,2,0,0,0,.57-1.53V55.78l-1.06,0a3.87,3.87,0,0,0-1.83.39,1.19,1.19,0,0,0-.56,1.09,1.1,1.1,0,0,0,.35.88A1.45,1.45,0,0,0,10.95,58.48Z"/><path class="cls-3" d="M19.54,52.08a4.13,4.13,0,0,1,.84.08l-0.15,1a3.61,3.61,0,0,0-.77-0.1,1.87,1.87,0,0,0-1.46.69,2.52,2.52,0,0,0-.61,1.72v3.77H16.33v-7h0.88l0.12,1.3h0.05a3.08,3.08,0,0,1,.94-1.06A2.12,2.12,0,0,1,19.54,52.08Z"/><path class="cls-3" d="M22.74,55.64a12.41,12.41,0,0,1,.84-1l2.27-2.4h1.26l-2.85,3,3,4H26l-2.48-3.32-0.8.69v2.63H21.69v-10h1.05v5.29q0,0.35-.05,1.09h0.05Z"/><path class="cls-3" d="M28.49,50.3a0.71,0.71,0,0,1,.18-0.54,0.66,0.66,0,0,1,.89,0,0.69,0.69,0,0,1,.19.53,0.7,0.7,0,0,1-.19.54,0.65,0.65,0,0,1-.89,0A0.72,0.72,0,0,1,28.49,50.3Zm1.15,8.93H28.58v-7h1.06v7Z"/><path class="cls-3" d="M36.71,59.23V54.69a1.83,1.83,0,0,0-.39-1.28A1.59,1.59,0,0,0,35.09,53a2,2,0,0,0-1.62.6,3,3,0,0,0-.51,2v3.69H31.9v-7h0.87l0.17,1H33a2.18,2.18,0,0,1,.92-0.8,3,3,0,0,1,1.31-.29,2.67,2.67,0,0,1,1.91.61,2.61,2.61,0,0,1,.64,2v4.58H36.71Z"/><path class="cls-3" d="M45.71,52.21v0.67l-1.3.15a2.29,2.29,0,0,1,.46,1.4,2.08,2.08,0,0,1-.71,1.65,2.85,2.85,0,0,1-1.94.62,3.22,3.22,0,0,1-.59-0.05,1,1,0,0,0-.68.9,0.46,0.46,0,0,0,.24.43,1.73,1.73,0,0,0,.81.14h1.24A2.79,2.79,0,0,1,45,58.6a1.67,1.67,0,0,1,.61,1.4,2,2,0,0,1-.94,1.78,5,5,0,0,1-2.73.61,3.73,3.73,0,0,1-2.12-.51,1.65,1.65,0,0,1-.75-1.45,1.63,1.63,0,0,1,.41-1.11,2.09,2.09,0,0,1,1.15-.63,1.12,1.12,0,0,1-.45-0.38,1,1,0,0,1-.18-0.6A1.13,1.13,0,0,1,40.21,57a2.14,2.14,0,0,1,.65-0.56A1.9,1.9,0,0,1,40,55.71a2.24,2.24,0,0,1-.34-1.23,2.28,2.28,0,0,1,.69-1.78,2.83,2.83,0,0,1,2-.62,3.59,3.59,0,0,1,1,.13h2.43Zm-5.6,8.21a1,1,0,0,0,.48.87,2.66,2.66,0,0,0,1.38.29,3.84,3.84,0,0,0,2-.4,1.23,1.23,0,0,0,.64-1.09,0.86,0.86,0,0,0-.35-0.79,2.74,2.74,0,0,0-1.33-.22H41.64a1.68,1.68,0,0,0-1.13.35A1.24,1.24,0,0,0,40.11,60.41Zm0.58-6a1.43,1.43,0,0,0,.42,1.12,1.67,1.67,0,0,0,1.16.38,1.36,1.36,0,0,0,1.56-1.51,1.4,1.4,0,0,0-1.58-1.58,1.56,1.56,0,0,0-1.15.4A1.63,1.63,0,0,0,40.68,54.46Z"/><path class="cls-3" d="M15.84,68.58a2.4,2.4,0,0,1-.89,2,4,4,0,0,1-2.54.7h-1v3.37h-1V66.09h2.22Q15.84,66.09,15.84,68.58Zm-4.44,1.85h0.9A3.33,3.33,0,0,0,14.22,70a1.58,1.58,0,0,0,.59-1.37,1.48,1.48,0,0,0-.56-1.27,2.91,2.91,0,0,0-1.73-.42H11.41v3.48Z"/><path class="cls-3" d="M21.44,74.65l-0.19-.91h0a2.7,2.7,0,0,1-1,.82,2.92,2.92,0,0,1-1.19.21,2.14,2.14,0,0,1-1.5-.49,1.8,1.8,0,0,1-.54-1.4q0-1.95,3.11-2l1.09,0v-0.4a1.63,1.63,0,0,0-.33-1.12,1.34,1.34,0,0,0-1-.36,4.24,4.24,0,0,0-1.82.49l-0.3-.74a4.57,4.57,0,0,1,1-.4,4.5,4.5,0,0,1,1.13-.15,2.45,2.45,0,0,1,1.7.51,2.13,2.13,0,0,1,.55,1.63v4.38H21.44ZM19.24,74a2,2,0,0,0,1.43-.5,1.84,1.84,0,0,0,.52-1.39V71.5l-1,0a3.54,3.54,0,0,0-1.67.36,1.09,1.09,0,0,0-.51,1,1,1,0,0,0,.32.8A1.33,1.33,0,0,0,19.24,74Z"/><path class="cls-3" d="M27.09,68.12a3.81,3.81,0,0,1,.77.07l-0.13.9A3.31,3.31,0,0,0,27,69a1.71,1.71,0,0,0-1.33.63,2.31,2.31,0,0,0-.55,1.58v3.45h-1V68.23H25l0.11,1.19h0a2.82,2.82,0,0,1,.86-1A1.94,1.94,0,0,1,27.09,68.12Z"/><path class="cls-3" d="M29,66.49A0.65,0.65,0,0,1,29.14,66,0.61,0.61,0,0,1,30,66a0.63,0.63,0,0,1,.17.49A0.64,0.64,0,0,1,30,67a0.6,0.6,0,0,1-.81,0A0.66,0.66,0,0,1,29,66.49ZM30,74.65h-1V68.23h1v6.42Z"/><path class="cls-3" d="M36.24,72.9a1.61,1.61,0,0,1-.67,1.38,3.14,3.14,0,0,1-1.87.49,4.08,4.08,0,0,1-2-.4v-0.9a4.82,4.82,0,0,0,1,.37,4.15,4.15,0,0,0,1,.13,2.32,2.32,0,0,0,1.17-.24A0.84,0.84,0,0,0,35,72.34a5.12,5.12,0,0,0-1.27-.63,6.88,6.88,0,0,1-1.27-.58,1.74,1.74,0,0,1-.56-0.57,1.47,1.47,0,0,1-.18-0.76,1.44,1.44,0,0,1,.64-1.24,3,3,0,0,1,1.75-.45,5.13,5.13,0,0,1,2,.42l-0.35.79a4.65,4.65,0,0,0-1.75-.4,2,2,0,0,0-1,.22,0.67,0.67,0,0,0-.35.6,0.73,0.73,0,0,0,.13.44,1.3,1.3,0,0,0,.42.35,9.49,9.49,0,0,0,1.13.47,4.2,4.2,0,0,1,1.54.84A1.48,1.48,0,0,1,36.24,72.9Z"/></svg>