<svg id="Isolatiemodus" xmlns="http://www.w3.org/2000/svg" viewBox="0 0 62.38 78.54"><defs><style>.cls-1{fill:#0091ea;}.cls-2{fill:#fafafa;}.cls-3{fill:#fff;}</style></defs><title>img_</title><rect class="cls-1" x="7.97" width="43.31" height="43.31" rx="4.21" ry="4.21"/><path class="cls-2" d="M39.75,17.85a6.8,6.8,0,0,1-2.52,5.67q-2.51,2-7.2,2H27.18v9.55H24.36V10.78h6.29Q39.75,10.78,39.75,17.85ZM27.18,23.08h2.54q3.75,0,5.43-1.21A4.46,4.46,0,0,0,36.83,18a4.19,4.19,0,0,0-1.58-3.59,8.24,8.24,0,0,0-4.91-1.18H27.18v9.86Z"/><path class="cls-3" d="M14.23,52.59a2.63,2.63,0,0,1-1,2.19,4.4,4.4,0,0,1-2.78.77H9.38v3.69H8.29V49.86h2.43Q14.23,49.86,14.23,52.59Zm-4.85,2h1a3.65,3.65,0,0,0,2.1-.47,1.73,1.73,0,0,0,.65-1.5,1.62,1.62,0,0,0-.61-1.38,3.18,3.18,0,0,0-1.9-.46H9.38v3.81Z"/><path class="cls-3" d="M20.35,59.23l-0.21-1H20.09a3,3,0,0,1-1,.89,3.21,3.21,0,0,1-1.3.23,2.35,2.35,0,0,1-1.64-.54,2,2,0,0,1-.59-1.53q0-2.13,3.4-2.23l1.19,0V54.58a1.78,1.78,0,0,0-.36-1.22A1.46,1.46,0,0,0,18.61,53a4.63,4.63,0,0,0-2,.54l-0.33-.81a5.07,5.07,0,0,1,1.14-.44,5,5,0,0,1,1.24-.16,2.68,2.68,0,0,1,1.86.56,2.33,2.33,0,0,1,.61,1.79v4.79H20.35ZM18,58.48a2.16,2.16,0,0,0,1.56-.54,2,2,0,0,0,.57-1.53V55.78l-1.06,0a3.87,3.87,0,0,0-1.83.39,1.19,1.19,0,0,0-.56,1.09,1.1,1.1,0,0,0,.35.88A1.45,1.45,0,0,0,18,58.48Z"/><path class="cls-3" d="M26.54,52.08a4.13,4.13,0,0,1,.84.08l-0.15,1a3.61,3.61,0,0,0-.77-0.1,1.87,1.87,0,0,0-1.46.69,2.52,2.52,0,0,0-.61,1.72v3.77H23.33v-7h0.88l0.12,1.3h0.05a3.08,3.08,0,0,1,.94-1.06A2.12,2.12,0,0,1,26.54,52.08Z"/><path class="cls-3" d="M29.74,55.64a12.41,12.41,0,0,1,.84-1l2.27-2.4h1.26l-2.85,3,3,4H33l-2.48-3.32-0.8.69v2.63H28.69v-10h1.05v5.29q0,0.35-.05,1.09h0.05Z"/><path class="cls-3" d="M35.49,50.3a0.71,0.71,0,0,1,.18-0.54,0.66,0.66,0,0,1,.89,0,0.69,0.69,0,0,1,.19.53,0.7,0.7,0,0,1-.19.54,0.65,0.65,0,0,1-.89,0A0.72,0.72,0,0,1,35.49,50.3Zm1.15,8.93H35.58v-7h1.06v7Z"/><path class="cls-3" d="M43.71,59.23V54.69a1.83,1.83,0,0,0-.39-1.28A1.59,1.59,0,0,0,42.1,53a2,2,0,0,0-1.62.6,3,3,0,0,0-.51,2v3.69H38.9v-7h0.87l0.17,1H40a2.18,2.18,0,0,1,.92-0.8,3,3,0,0,1,1.31-.29,2.67,2.67,0,0,1,1.91.61,2.61,2.61,0,0,1,.64,2v4.58H43.71Z"/><path class="cls-3" d="M52.71,52.21v0.67l-1.3.15a2.29,2.29,0,0,1,.46,1.4,2.08,2.08,0,0,1-.71,1.65,2.85,2.85,0,0,1-1.94.62,3.22,3.22,0,0,1-.59-0.05,1,1,0,0,0-.68.9,0.46,0.46,0,0,0,.24.43,1.73,1.73,0,0,0,.81.14h1.24A2.79,2.79,0,0,1,52,58.6a1.67,1.67,0,0,1,.61,1.4,2,2,0,0,1-.94,1.78,5,5,0,0,1-2.73.61,3.73,3.73,0,0,1-2.12-.51,1.65,1.65,0,0,1-.75-1.45,1.63,1.63,0,0,1,.41-1.11,2.09,2.09,0,0,1,1.15-.63,1.12,1.12,0,0,1-.45-0.38,1,1,0,0,1-.18-0.6A1.13,1.13,0,0,1,47.22,57a2.14,2.14,0,0,1,.65-0.56A1.9,1.9,0,0,1,47,55.71a2.24,2.24,0,0,1-.34-1.23,2.28,2.28,0,0,1,.69-1.78,2.83,2.83,0,0,1,2-.62,3.59,3.59,0,0,1,1,.13h2.43Zm-5.6,8.21a1,1,0,0,0,.48.87,2.66,2.66,0,0,0,1.38.29,3.84,3.84,0,0,0,2-.4,1.23,1.23,0,0,0,.64-1.09,0.86,0.86,0,0,0-.35-0.79,2.74,2.74,0,0,0-1.33-.22H48.64a1.68,1.68,0,0,0-1.13.35A1.24,1.24,0,0,0,47.11,60.41Zm0.58-6a1.43,1.43,0,0,0,.42,1.12,1.67,1.67,0,0,0,1.16.38,1.36,1.36,0,0,0,1.56-1.51,1.4,1.4,0,0,0-1.58-1.58,1.56,1.56,0,0,0-1.15.4A1.63,1.63,0,0,0,47.68,54.46Z"/><path class="cls-3" d="M6.88,72.38a2.1,2.1,0,0,1-.82,1.76,3.56,3.56,0,0,1-2.23.63,5.58,5.58,0,0,1-2.34-.39v-1a6.17,6.17,0,0,0,1.15.35,6,6,0,0,0,1.23.13,2.48,2.48,0,0,0,1.5-.38,1.24,1.24,0,0,0,.5-1.05,1.35,1.35,0,0,0-.18-0.73,1.66,1.66,0,0,0-.6-0.52,8.36,8.36,0,0,0-1.27-.54,4.07,4.07,0,0,1-1.71-1,2.24,2.24,0,0,1-.51-1.53,1.9,1.9,0,0,1,.74-1.58,3.09,3.09,0,0,1,2-.59,5.8,5.8,0,0,1,2.35.47l-0.31.87a5.31,5.31,0,0,0-2.06-.45,2,2,0,0,0-1.24.34,1.12,1.12,0,0,0-.45.94,1.45,1.45,0,0,0,.16.73,1.54,1.54,0,0,0,.55.52,6.88,6.88,0,0,0,1.19.52,4.72,4.72,0,0,1,1.85,1A2,2,0,0,1,6.88,72.38Z"/><path class="cls-3" d="M10.56,74a3.18,3.18,0,0,0,.5,0l0.38-.08V74.6a1.78,1.78,0,0,1-.47.13,3.5,3.5,0,0,1-.55,0,1.69,1.69,0,0,1-1.86-2V69H7.63V68.52l0.92-.4L9,66.74H9.52v1.49h1.86V69H9.52v3.78a1.3,1.3,0,0,0,.28.89A1,1,0,0,0,10.56,74Z"/><path class="cls-3" d="M18.26,71.44a3.54,3.54,0,0,1-.79,2.45,2.79,2.79,0,0,1-2.19.88,2.89,2.89,0,0,1-1.53-.4,2.67,2.67,0,0,1-1-1.16,4,4,0,0,1-.36-1.77A3.54,3.54,0,0,1,13.15,69a2.78,2.78,0,0,1,2.18-.88,2.72,2.72,0,0,1,2.14.9A3.53,3.53,0,0,1,18.26,71.44Zm-4.89,0a3,3,0,0,0,.49,1.88,1.71,1.71,0,0,0,1.45.64,1.72,1.72,0,0,0,1.45-.64,3,3,0,0,0,.5-1.88,3,3,0,0,0-.5-1.86,1.74,1.74,0,0,0-1.46-.64,1.71,1.71,0,0,0-1.44.63A3,3,0,0,0,13.37,71.44Z"/><path class="cls-3" d="M22.53,74.77a2.74,2.74,0,0,1-2.16-.86,3.53,3.53,0,0,1-.76-2.43A3.64,3.64,0,0,1,20.39,69a2.8,2.8,0,0,1,2.21-.88,4.39,4.39,0,0,1,.93.1,3,3,0,0,1,.73.23l-0.3.83a4.57,4.57,0,0,0-.7-0.21A3.14,3.14,0,0,0,22.57,69q-2,0-2,2.5a3,3,0,0,0,.48,1.82,1.66,1.66,0,0,0,1.42.63,4.33,4.33,0,0,0,1.65-.35v0.86A3.51,3.51,0,0,1,22.53,74.77Z"/><path class="cls-3" d="M26.64,71.37a11.44,11.44,0,0,1,.77-0.94l2.07-2.2h1.15L28,71l2.78,3.69H29.64l-2.27-3-0.73.63v2.4h-1V65.54h1v4.83q0,0.32,0,1h0Z"/><path class="cls-3" d="M36.37,74.65V70.5A1.68,1.68,0,0,0,36,69.33a1.46,1.46,0,0,0-1.12-.39,1.83,1.83,0,0,0-1.48.55A2.79,2.79,0,0,0,33,71.3v3.36H32V65.54h1V68.3a6,6,0,0,1,0,.83H33a2,2,0,0,1,.82-0.73A2.66,2.66,0,0,1,35,68.13a2.48,2.48,0,0,1,1.77.56,2.36,2.36,0,0,1,.59,1.78v4.19h-1Z"/><path class="cls-3" d="M44.89,71.44a3.54,3.54,0,0,1-.79,2.45,2.79,2.79,0,0,1-2.19.88,2.89,2.89,0,0,1-1.53-.4,2.67,2.67,0,0,1-1-1.16A4,4,0,0,1,39,71.44,3.54,3.54,0,0,1,39.77,69,2.78,2.78,0,0,1,42,68.12a2.72,2.72,0,0,1,2.14.9A3.53,3.53,0,0,1,44.89,71.44Zm-4.89,0a3,3,0,0,0,.49,1.88,2,2,0,0,0,2.9,0,3,3,0,0,0,.5-1.88,3,3,0,0,0-.5-1.86,1.74,1.74,0,0,0-1.46-.64,1.71,1.71,0,0,0-1.44.63A3,3,0,0,0,40,71.44Z"/><path class="cls-3" d="M47.56,74.65h-1V65.54h1v9.12Z"/><path class="cls-3" d="M57.81,74.65V70.48a1.73,1.73,0,0,0-.33-1.15,1.27,1.27,0,0,0-1-.38,1.65,1.65,0,0,0-1.34.52,2.48,2.48,0,0,0-.43,1.61v3.59h-1V70.48a1.73,1.73,0,0,0-.33-1.15,1.28,1.28,0,0,0-1-.38,1.59,1.59,0,0,0-1.34.55,3,3,0,0,0-.42,1.8v3.37h-1V68.23h0.79l0.16,0.88h0a1.91,1.91,0,0,1,.78-0.73,2.37,2.37,0,0,1,1.12-.26,1.91,1.91,0,0,1,2,1.09h0a2,2,0,0,1,.83-0.8,2.58,2.58,0,0,1,1.24-.29,2.17,2.17,0,0,1,1.63.56,2.5,2.5,0,0,1,.54,1.79v4.19h-1Z"/></svg>