<svg id="Isolatiemodus" xmlns="http://www.w3.org/2000/svg" viewBox="0 0 56.71 78.54"><defs><style>.cls-1{fill:#0091ea;}.cls-2{fill:#fafafa;}.cls-3{fill:#fff;}</style></defs><title>img_</title><rect class="cls-1" x="6.02" width="43.31" height="43.31" rx="4.21" ry="4.21"/><path class="cls-2" d="M37.8,17.85a6.8,6.8,0,0,1-2.52,5.67q-2.51,2-7.2,2H25.23v9.55H22.41V10.78H28.7Q37.8,10.78,37.8,17.85ZM25.23,23.08h2.54q3.75,0,5.43-1.21A4.46,4.46,0,0,0,34.88,18,4.19,4.19,0,0,0,33.3,14.4a8.24,8.24,0,0,0-4.91-1.18H25.23v9.86Z"/><path class="cls-3" d="M12.28,52.59a2.63,2.63,0,0,1-1,2.19,4.4,4.4,0,0,1-2.78.77H7.43v3.69H6.34V49.86H8.77Q12.28,49.86,12.28,52.59Zm-4.85,2h1a3.65,3.65,0,0,0,2.1-.47,1.73,1.73,0,0,0,.65-1.5,1.62,1.62,0,0,0-.61-1.38,3.18,3.18,0,0,0-1.9-.46H7.43v3.81Z"/><path class="cls-3" d="M18.4,59.23l-0.21-1H18.14a3,3,0,0,1-1,.89,3.21,3.21,0,0,1-1.3.23,2.35,2.35,0,0,1-1.64-.54,2,2,0,0,1-.59-1.53q0-2.13,3.4-2.23l1.19,0V54.58a1.78,1.78,0,0,0-.36-1.22A1.46,1.46,0,0,0,16.66,53a4.63,4.63,0,0,0-2,.54l-0.33-.81a5.07,5.07,0,0,1,1.14-.44,5,5,0,0,1,1.24-.16,2.68,2.68,0,0,1,1.86.56,2.33,2.33,0,0,1,.61,1.79v4.79H18.4ZM16,58.48a2.16,2.16,0,0,0,1.56-.54,2,2,0,0,0,.57-1.53V55.78l-1.06,0a3.87,3.87,0,0,0-1.83.39,1.19,1.19,0,0,0-.56,1.09,1.1,1.1,0,0,0,.35.88A1.45,1.45,0,0,0,16,58.48Z"/><path class="cls-3" d="M24.58,52.08a4.13,4.13,0,0,1,.84.08l-0.15,1a3.61,3.61,0,0,0-.77-0.1,1.87,1.87,0,0,0-1.46.69,2.52,2.52,0,0,0-.61,1.72v3.77H21.38v-7h0.88l0.12,1.3h0.05a3.08,3.08,0,0,1,.94-1.06A2.12,2.12,0,0,1,24.58,52.08Z"/><path class="cls-3" d="M27.79,55.64a12.41,12.41,0,0,1,.84-1l2.27-2.4h1.26l-2.85,3,3,4H31.07l-2.48-3.32-0.8.69v2.63H26.74v-10h1.05v5.29q0,0.35-.05,1.09h0.05Z"/><path class="cls-3" d="M33.54,50.3a0.71,0.71,0,0,1,.18-0.54,0.66,0.66,0,0,1,.89,0,0.69,0.69,0,0,1,.19.53,0.7,0.7,0,0,1-.19.54,0.65,0.65,0,0,1-.89,0A0.72,0.72,0,0,1,33.54,50.3Zm1.15,8.93H33.63v-7h1.06v7Z"/><path class="cls-3" d="M41.76,59.23V54.69a1.83,1.83,0,0,0-.39-1.28A1.59,1.59,0,0,0,40.14,53a2,2,0,0,0-1.62.6,3,3,0,0,0-.51,2v3.69H36.95v-7h0.87l0.17,1H38a2.18,2.18,0,0,1,.92-0.8,3,3,0,0,1,1.31-.29,2.67,2.67,0,0,1,1.91.61,2.61,2.61,0,0,1,.64,2v4.58H41.76Z"/><path class="cls-3" d="M50.76,52.21v0.67l-1.3.15a2.29,2.29,0,0,1,.46,1.4,2.08,2.08,0,0,1-.71,1.65,2.85,2.85,0,0,1-1.94.62,3.22,3.22,0,0,1-.59-0.05,1,1,0,0,0-.68.9,0.46,0.46,0,0,0,.24.43,1.73,1.73,0,0,0,.81.14H48.3a2.79,2.79,0,0,1,1.75.48,1.67,1.67,0,0,1,.61,1.4,2,2,0,0,1-.94,1.78,5,5,0,0,1-2.73.61,3.73,3.73,0,0,1-2.12-.51,1.65,1.65,0,0,1-.75-1.45,1.63,1.63,0,0,1,.41-1.11,2.09,2.09,0,0,1,1.15-.63,1.12,1.12,0,0,1-.45-0.38,1,1,0,0,1-.18-0.6A1.13,1.13,0,0,1,45.26,57a2.14,2.14,0,0,1,.65-0.56A1.9,1.9,0,0,1,45,55.71a2.24,2.24,0,0,1-.34-1.23,2.28,2.28,0,0,1,.69-1.78,2.83,2.83,0,0,1,2-.62,3.59,3.59,0,0,1,1,.13h2.43Zm-5.6,8.21a1,1,0,0,0,.48.87,2.66,2.66,0,0,0,1.38.29,3.84,3.84,0,0,0,2-.4,1.23,1.23,0,0,0,.64-1.09,0.86,0.86,0,0,0-.35-0.79A2.74,2.74,0,0,0,48,59.07H46.69a1.68,1.68,0,0,0-1.13.35A1.24,1.24,0,0,0,45.15,60.41Zm0.58-6a1.43,1.43,0,0,0,.42,1.12,1.67,1.67,0,0,0,1.16.38,1.36,1.36,0,0,0,1.56-1.51,1.4,1.4,0,0,0-1.58-1.58,1.56,1.56,0,0,0-1.15.4A1.63,1.63,0,0,0,45.73,54.46Z"/><path class="cls-3" d="M1.18,66.09H3.6a4.57,4.57,0,0,1,2.47.51,1.8,1.8,0,0,1,.76,1.61,1.86,1.86,0,0,1-.43,1.26,2,2,0,0,1-1.24.64v0.06a2,2,0,0,1,2,2.05A2.2,2.2,0,0,1,6.34,74a3.3,3.3,0,0,1-2.17.64h-3V66.09Zm1,3.67H3.81a2.67,2.67,0,0,0,1.52-.33,1.28,1.28,0,0,0,.46-1.12,1.13,1.13,0,0,0-.52-1,3.22,3.22,0,0,0-1.64-.32H2.17v2.81Zm0,0.84V73.8H4a2.54,2.54,0,0,0,1.56-.4A1.48,1.48,0,0,0,6,72.15,1.33,1.33,0,0,0,5.51,71a2.86,2.86,0,0,0-1.63-.37H2.17Z"/><path class="cls-3" d="M12.76,74.65l-0.19-.91h0a2.7,2.7,0,0,1-1,.82,2.92,2.92,0,0,1-1.19.21,2.15,2.15,0,0,1-1.5-.49,1.79,1.79,0,0,1-.54-1.4q0-1.95,3.11-2l1.09,0v-0.4a1.63,1.63,0,0,0-.33-1.12,1.34,1.34,0,0,0-1-.36,4.24,4.24,0,0,0-1.82.49L9,68.68a4.56,4.56,0,0,1,1-.4,4.51,4.51,0,0,1,1.13-.15,2.44,2.44,0,0,1,1.7.51,2.13,2.13,0,0,1,.55,1.63v4.38H12.76ZM10.56,74a2,2,0,0,0,1.43-.5,1.84,1.84,0,0,0,.52-1.39V71.5l-1,0a3.54,3.54,0,0,0-1.67.36,1.09,1.09,0,0,0-.51,1,1,1,0,0,0,.32.8A1.33,1.33,0,0,0,10.56,74Z"/><path class="cls-3" d="M18.41,68.12a3.81,3.81,0,0,1,.77.07l-0.13.9a3.31,3.31,0,0,0-.7-0.09,1.71,1.71,0,0,0-1.33.63,2.31,2.31,0,0,0-.55,1.58v3.45h-1V68.23h0.8l0.11,1.19h0a2.82,2.82,0,0,1,.86-1A1.94,1.94,0,0,1,18.41,68.12Z"/><path class="cls-3" d="M22.95,74.77a2.74,2.74,0,0,1-2.16-.86A3.53,3.53,0,0,1,20,71.48,3.64,3.64,0,0,1,20.8,69,2.8,2.8,0,0,1,23,68.12a4.39,4.39,0,0,1,.93.1,3,3,0,0,1,.73.23l-0.3.83a4.57,4.57,0,0,0-.7-0.21A3.14,3.14,0,0,0,23,69q-2,0-2,2.5a3,3,0,0,0,.48,1.82,1.66,1.66,0,0,0,1.42.63,4.33,4.33,0,0,0,1.65-.35v0.86A3.51,3.51,0,0,1,22.95,74.77Z"/><path class="cls-3" d="M28.81,74.77a3,3,0,0,1-2.25-.87,3.36,3.36,0,0,1-.82-2.41A3.72,3.72,0,0,1,26.5,69a2.54,2.54,0,0,1,2.05-.91,2.42,2.42,0,0,1,1.91.79,3,3,0,0,1,.7,2.09v0.62H26.74a2.55,2.55,0,0,0,.57,1.72,2,2,0,0,0,1.53.59,5.17,5.17,0,0,0,2.05-.43v0.87a5.16,5.16,0,0,1-1,.32A5.47,5.47,0,0,1,28.81,74.77Zm-0.26-5.84a1.59,1.59,0,0,0-1.23.5,2.32,2.32,0,0,0-.54,1.39h3.36a2.14,2.14,0,0,0-.41-1.41A1.44,1.44,0,0,0,28.54,68.93Z"/><path class="cls-3" d="M33.8,74.65h-1V65.54h1v9.12Z"/><path class="cls-3" d="M41.4,71.44a3.54,3.54,0,0,1-.79,2.45,2.79,2.79,0,0,1-2.19.88,2.89,2.89,0,0,1-1.53-.4,2.67,2.67,0,0,1-1-1.16,4,4,0,0,1-.36-1.77A3.54,3.54,0,0,1,36.29,69a2.78,2.78,0,0,1,2.18-.88,2.71,2.71,0,0,1,2.14.9A3.53,3.53,0,0,1,41.4,71.44Zm-4.89,0A3,3,0,0,0,37,73.31a2,2,0,0,0,2.9,0,3,3,0,0,0,.5-1.88,3,3,0,0,0-.5-1.86,1.74,1.74,0,0,0-1.46-.64,1.71,1.71,0,0,0-1.44.63A3,3,0,0,0,36.51,71.44Z"/><path class="cls-3" d="M47.5,74.65V70.5a1.68,1.68,0,0,0-.36-1.17A1.46,1.46,0,0,0,46,68.94a1.85,1.85,0,0,0-1.48.54,2.75,2.75,0,0,0-.47,1.8v3.37h-1V68.23H43.9l0.16,0.88h0a2,2,0,0,1,.84-0.74,2.72,2.72,0,0,1,1.2-.26,2.44,2.44,0,0,1,1.75.56,2.38,2.38,0,0,1,.59,1.79v4.19h-1Z"/><path class="cls-3" d="M54.42,74.65l-0.19-.91h0a2.7,2.7,0,0,1-1,.82,2.92,2.92,0,0,1-1.19.21,2.15,2.15,0,0,1-1.5-.49,1.79,1.79,0,0,1-.54-1.4q0-1.95,3.11-2l1.09,0v-0.4a1.63,1.63,0,0,0-.33-1.12,1.34,1.34,0,0,0-1-.36,4.24,4.24,0,0,0-1.82.49l-0.3-.74a4.56,4.56,0,0,1,1-.4,4.51,4.51,0,0,1,1.13-.15,2.44,2.44,0,0,1,1.7.51,2.13,2.13,0,0,1,.55,1.63v4.38H54.42ZM52.23,74a2,2,0,0,0,1.43-.5,1.84,1.84,0,0,0,.52-1.39V71.5l-1,0a3.54,3.54,0,0,0-1.67.36,1.09,1.09,0,0,0-.51,1,1,1,0,0,0,.32.8A1.33,1.33,0,0,0,52.23,74Z"/></svg>