<svg id="Isolatiemodus" xmlns="http://www.w3.org/2000/svg" viewBox="0 0 51.39 78.54"><defs><style>.cls-1{fill:#0091ea;}.cls-2{fill:#fafafa;}.cls-3{fill:#fff;}</style></defs><title>img_</title><rect class="cls-1" x="3.66" width="44.1" height="44.1" rx="4.21" ry="4.21"/><path class="cls-2" d="M35.44,17.85a6.8,6.8,0,0,1-2.52,5.67q-2.51,2-7.2,2H22.87v9.55H20V10.78h6.29Q35.44,10.78,35.44,17.85ZM22.87,23.08h2.54q3.75,0,5.43-1.21A4.46,4.46,0,0,0,32.51,18a4.19,4.19,0,0,0-1.58-3.59A8.24,8.24,0,0,0,26,13.22H22.87v9.86Z"/><path class="cls-3" d="M9.92,52.59a2.63,2.63,0,0,1-1,2.19,4.4,4.4,0,0,1-2.78.77H5.06v3.69H4V49.86H6.4Q9.92,49.86,9.92,52.59Zm-4.85,2H6a3.65,3.65,0,0,0,2.1-.47,1.73,1.73,0,0,0,.65-1.5,1.62,1.62,0,0,0-.61-1.38,3.18,3.18,0,0,0-1.9-.46H5.06v3.81Z"/><path class="cls-3" d="M16,59.23l-0.21-1H15.77a3,3,0,0,1-1,.89,3.21,3.21,0,0,1-1.3.23,2.35,2.35,0,0,1-1.64-.54,2,2,0,0,1-.59-1.53q0-2.13,3.4-2.23l1.19,0V54.59a1.78,1.78,0,0,0-.36-1.22A1.46,1.46,0,0,0,14.29,53a4.63,4.63,0,0,0-2,.54L12,52.69a5.07,5.07,0,0,1,1.14-.44,5,5,0,0,1,1.24-.16,2.68,2.68,0,0,1,1.86.56,2.33,2.33,0,0,1,.61,1.79v4.79H16Zm-2.4-.75a2.16,2.16,0,0,0,1.56-.54,2,2,0,0,0,.57-1.53V55.78l-1.06,0a3.87,3.87,0,0,0-1.83.39,1.19,1.19,0,0,0-.56,1.09,1.1,1.1,0,0,0,.35.88A1.45,1.45,0,0,0,13.63,58.48Z"/><path class="cls-3" d="M22.22,52.08a4.13,4.13,0,0,1,.84.08l-0.15,1a3.61,3.61,0,0,0-.77-0.1,1.87,1.87,0,0,0-1.46.69,2.52,2.52,0,0,0-.61,1.72v3.77H19v-7H19.9L20,53.51h0.05A3.08,3.08,0,0,1,21,52.45,2.12,2.12,0,0,1,22.22,52.08Z"/><path class="cls-3" d="M25.43,55.64a12.41,12.41,0,0,1,.84-1l2.27-2.4H29.8L27,55.2l3,4H28.71l-2.48-3.32-0.8.69v2.63H24.38v-10h1.05v5.29q0,0.35-.05,1.09h0.05Z"/><path class="cls-3" d="M31.18,50.3a0.71,0.71,0,0,1,.18-0.54,0.66,0.66,0,0,1,.89,0,0.69,0.69,0,0,1,.19.53,0.7,0.7,0,0,1-.19.54,0.65,0.65,0,0,1-.89,0A0.72,0.72,0,0,1,31.18,50.3Zm1.15,8.93H31.27v-7h1.06v7Z"/><path class="cls-3" d="M39.39,59.23V54.69A1.83,1.83,0,0,0,39,53.41,1.59,1.59,0,0,0,37.78,53a2,2,0,0,0-1.62.6,3,3,0,0,0-.51,2v3.69H34.59v-7h0.87l0.17,1h0.05a2.18,2.18,0,0,1,.92-0.8,3,3,0,0,1,1.31-.29,2.67,2.67,0,0,1,1.91.61,2.61,2.61,0,0,1,.64,2v4.58H39.39Z"/><path class="cls-3" d="M48.39,52.21v0.67l-1.3.15a2.29,2.29,0,0,1,.46,1.4,2.08,2.08,0,0,1-.71,1.65,2.85,2.85,0,0,1-1.94.62,3.22,3.22,0,0,1-.59-0.05,1,1,0,0,0-.68.9,0.46,0.46,0,0,0,.24.43,1.73,1.73,0,0,0,.81.14h1.24a2.79,2.79,0,0,1,1.75.48A1.67,1.67,0,0,1,48.3,60a2,2,0,0,1-.94,1.78,5,5,0,0,1-2.73.61,3.73,3.73,0,0,1-2.12-.51,1.65,1.65,0,0,1-.75-1.45,1.63,1.63,0,0,1,.41-1.11,2.09,2.09,0,0,1,1.15-.63,1.12,1.12,0,0,1-.45-0.38,1,1,0,0,1-.18-0.6A1.13,1.13,0,0,1,42.9,57a2.14,2.14,0,0,1,.65-0.56,1.9,1.9,0,0,1-.89-0.76,2.24,2.24,0,0,1-.34-1.23A2.28,2.28,0,0,1,43,52.7a2.83,2.83,0,0,1,2-.62,3.59,3.59,0,0,1,1,.13h2.43Zm-5.6,8.21a1,1,0,0,0,.48.87,2.66,2.66,0,0,0,1.38.29,3.84,3.84,0,0,0,2-.4,1.23,1.23,0,0,0,.64-1.09,0.86,0.86,0,0,0-.35-0.79,2.74,2.74,0,0,0-1.33-.22H44.32a1.68,1.68,0,0,0-1.13.35A1.24,1.24,0,0,0,42.79,60.41Zm0.58-6a1.43,1.43,0,0,0,.42,1.12,1.67,1.67,0,0,0,1.16.38,1.36,1.36,0,0,0,1.56-1.51,1.4,1.4,0,0,0-1.58-1.58,1.56,1.56,0,0,0-1.15.4A1.63,1.63,0,0,0,43.37,54.46Z"/><path class="cls-3" d="M1.29,65.61H3.94a5,5,0,0,1,2.7.56,2,2,0,0,1,.83,1.76A2,2,0,0,1,7,69.31a2.24,2.24,0,0,1-1.36.7v0.06a2.17,2.17,0,0,1,2.13,2.24,2.41,2.41,0,0,1-.85,2A3.61,3.61,0,0,1,4.56,75H1.29V65.61Zm1.09,4H4.17a2.93,2.93,0,0,0,1.66-.36A1.4,1.4,0,0,0,6.34,68a1.24,1.24,0,0,0-.56-1.14A3.52,3.52,0,0,0,4,66.56H2.38v3.07Zm0,0.92v3.51h2A2.79,2.79,0,0,0,6,73.62a1.62,1.62,0,0,0,.57-1.37A1.46,1.46,0,0,0,6,71a3.14,3.14,0,0,0-1.79-.41H2.38Z"/><path class="cls-3" d="M12.84,67.83a4.13,4.13,0,0,1,.84.08l-0.15,1a3.61,3.61,0,0,0-.77-0.1,1.87,1.87,0,0,0-1.46.69,2.52,2.52,0,0,0-.61,1.72V75H9.63V68h0.88l0.12,1.3h0.05a3.08,3.08,0,0,1,.94-1.06A2.12,2.12,0,0,1,12.84,67.83Z"/><path class="cls-3" d="M16,68v4.56a1.84,1.84,0,0,0,.39,1.28,1.59,1.59,0,0,0,1.22.42,2,2,0,0,0,1.61-.6,3,3,0,0,0,.51-2V68h1.06v7H19.92L19.76,74H19.7a2.11,2.11,0,0,1-.91.79,3.05,3.05,0,0,1-1.32.28,2.69,2.69,0,0,1-1.92-.61,2.6,2.6,0,0,1-.64-1.95V68H16Z"/><path class="cls-3" d="M27.58,73.07a1.76,1.76,0,0,1-.73,1.51,3.43,3.43,0,0,1-2.05.53,4.46,4.46,0,0,1-2.18-.44v-1a5.25,5.25,0,0,0,1.09.4,4.52,4.52,0,0,0,1.12.15A2.54,2.54,0,0,0,26.11,74a0.92,0.92,0,0,0,.09-1.51,5.58,5.58,0,0,0-1.39-.69,7.5,7.5,0,0,1-1.39-.64,1.9,1.9,0,0,1-.62-0.62,1.62,1.62,0,0,1-.2-0.83,1.58,1.58,0,0,1,.7-1.36,3.26,3.26,0,0,1,1.92-.5,5.61,5.61,0,0,1,2.22.46l-0.38.87a5.08,5.08,0,0,0-1.92-.44A2.2,2.2,0,0,0,24,69a0.73,0.73,0,0,0-.38.65,0.8,0.8,0,0,0,.14.48,1.42,1.42,0,0,0,.46.38,10.34,10.34,0,0,0,1.23.52,4.59,4.59,0,0,1,1.69.92A1.62,1.62,0,0,1,27.58,73.07Z"/><path class="cls-3" d="M33.84,73.07a1.76,1.76,0,0,1-.73,1.51,3.43,3.43,0,0,1-2.05.53,4.46,4.46,0,0,1-2.18-.44v-1a5.25,5.25,0,0,0,1.09.4,4.52,4.52,0,0,0,1.12.15A2.54,2.54,0,0,0,32.37,74a0.92,0.92,0,0,0,.09-1.51,5.58,5.58,0,0,0-1.39-.69,7.5,7.5,0,0,1-1.39-.64,1.9,1.9,0,0,1-.62-0.62,1.62,1.62,0,0,1-.2-0.83,1.58,1.58,0,0,1,.7-1.36,3.26,3.26,0,0,1,1.92-.5,5.61,5.61,0,0,1,2.22.46l-0.38.87a5.08,5.08,0,0,0-1.92-.44,2.2,2.2,0,0,0-1.14.24,0.73,0.73,0,0,0-.38.65,0.8,0.8,0,0,0,.14.48,1.42,1.42,0,0,0,.46.38,10.34,10.34,0,0,0,1.23.52,4.59,4.59,0,0,1,1.69.92A1.62,1.62,0,0,1,33.84,73.07Z"/><path class="cls-3" d="M38.54,75.11a3.23,3.23,0,0,1-2.46-.95,3.67,3.67,0,0,1-.9-2.63,4.07,4.07,0,0,1,.84-2.7,2.78,2.78,0,0,1,2.25-1,2.65,2.65,0,0,1,2.09.87A3.33,3.33,0,0,1,41.13,71v0.67H36.29a2.78,2.78,0,0,0,.63,1.88,2.16,2.16,0,0,0,1.67.64,5.66,5.66,0,0,0,2.24-.47v0.95a5.58,5.58,0,0,1-1.07.35A6,6,0,0,1,38.54,75.11Zm-0.29-6.39a1.74,1.74,0,0,0-1.35.55,2.54,2.54,0,0,0-.59,1.53H40a2.33,2.33,0,0,0-.45-1.54A1.58,1.58,0,0,0,38.25,68.72Z"/><path class="cls-3" d="M44,75H42.94V65H44V75Z"/><path class="cls-3" d="M50.79,73.07a1.76,1.76,0,0,1-.73,1.51,3.43,3.43,0,0,1-2.05.53,4.46,4.46,0,0,1-2.18-.44v-1a5.25,5.25,0,0,0,1.09.4,4.52,4.52,0,0,0,1.12.15A2.54,2.54,0,0,0,49.32,74a0.92,0.92,0,0,0,.09-1.51A5.58,5.58,0,0,0,48,71.77a7.5,7.5,0,0,1-1.39-.64A1.9,1.9,0,0,1,46,70.51a1.62,1.62,0,0,1-.2-0.83,1.58,1.58,0,0,1,.7-1.36,3.26,3.26,0,0,1,1.92-.5,5.61,5.61,0,0,1,2.22.46l-0.38.87a5.08,5.08,0,0,0-1.92-.44,2.2,2.2,0,0,0-1.14.24,0.73,0.73,0,0,0-.38.65,0.8,0.8,0,0,0,.14.48,1.42,1.42,0,0,0,.46.38,10.34,10.34,0,0,0,1.23.52,4.59,4.59,0,0,1,1.69.92A1.62,1.62,0,0,1,50.79,73.07Z"/></svg>