<svg id="Isolatiemodus" xmlns="http://www.w3.org/2000/svg" viewBox="0 0 49.62 78.75"><defs><style>.cls-1{fill:#c6c6c6;}.cls-2{fill:#fff;}</style></defs><title>img_</title><path class="cls-1" d="M34.14,9.33V4.66A4.66,4.66,0,0,0,29.47,0H20.14a4.66,4.66,0,0,0-4.66,4.66V9.33h-14V39.65a4.66,4.66,0,0,0,4.66,4.66H43.47a4.66,4.66,0,0,0,4.66-4.66V9.33h-14Zm-14-4.66h9.33V9.33H20.14V4.66ZM17.81,37.31v-21L35.3,25.65Z"/><path class="cls-2" d="M15.77,56.78a2.3,2.3,0,0,1-.9,1.93,3.89,3.89,0,0,1-2.44.69A6.1,6.1,0,0,1,9.87,59V57.92a6.75,6.75,0,0,0,1.26.38,6.63,6.63,0,0,0,1.35.14A2.72,2.72,0,0,0,14.11,58a1.36,1.36,0,0,0,.55-1.15,1.48,1.48,0,0,0-.2-0.8,1.82,1.82,0,0,0-.65-0.57,9.15,9.15,0,0,0-1.39-.6,4.45,4.45,0,0,1-1.87-1.11A2.45,2.45,0,0,1,10,52.13a2.08,2.08,0,0,1,.81-1.72A3.38,3.38,0,0,1,13,49.76a6.35,6.35,0,0,1,2.57.51l-0.34.95a5.8,5.8,0,0,0-2.26-.49,2.18,2.18,0,0,0-1.35.37,1.23,1.23,0,0,0-.49,1,1.59,1.59,0,0,0,.18.8,1.7,1.7,0,0,0,.61.57,7.54,7.54,0,0,0,1.3.57,5.17,5.17,0,0,1,2,1.13A2.22,2.22,0,0,1,15.77,56.78Z"/><path class="cls-2" d="M22.33,59.27V54.73a1.83,1.83,0,0,0-.39-1.28A1.59,1.59,0,0,0,20.72,53a2,2,0,0,0-1.62.6,3,3,0,0,0-.51,2v3.67H17.52v-10h1.06v3a6.56,6.56,0,0,1-.05.9H18.6a2.16,2.16,0,0,1,.89-0.8,2.91,2.91,0,0,1,1.32-.29,2.71,2.71,0,0,1,1.93.61,2.58,2.58,0,0,1,.64,1.95v4.58H22.33Z"/><path class="cls-2" d="M31.64,55.75a3.87,3.87,0,0,1-.87,2.68,3,3,0,0,1-2.39,1A3.17,3.17,0,0,1,26.72,59a2.92,2.92,0,0,1-1.13-1.27,4.41,4.41,0,0,1-.4-1.94A3.87,3.87,0,0,1,26,53.08a3,3,0,0,1,2.38-1,3,3,0,0,1,2.34,1A3.86,3.86,0,0,1,31.64,55.75Zm-5.35,0a3.34,3.34,0,0,0,.54,2.05,2.14,2.14,0,0,0,3.17,0,3.32,3.32,0,0,0,.54-2.05,3.27,3.27,0,0,0-.54-2,1.9,1.9,0,0,0-1.6-.7,1.88,1.88,0,0,0-1.58.69A3.3,3.3,0,0,0,26.29,55.75Z"/><path class="cls-2" d="M36.78,59.4a3,3,0,0,1-1.25-.25,2.36,2.36,0,0,1-1-.78H34.5a9.52,9.52,0,0,1,.08,1.17v2.89H33.51V52.25h0.87l0.15,1h0.05a2.47,2.47,0,0,1,1-.83,2.9,2.9,0,0,1,1.25-.26,2.6,2.6,0,0,1,2.16,1,5.08,5.08,0,0,1,0,5.37A2.6,2.6,0,0,1,36.78,59.4ZM36.63,53a1.89,1.89,0,0,0-1.56.6,3.07,3.07,0,0,0-.49,1.9v0.24a3.52,3.52,0,0,0,.49,2.12,1.88,1.88,0,0,0,1.58.64,1.65,1.65,0,0,0,1.43-.74,3.5,3.5,0,0,0,.52-2,3.37,3.37,0,0,0-.52-2A1.7,1.7,0,0,0,36.63,53Z"/></svg>