<svg id="Isolatiemodus" xmlns="http://www.w3.org/2000/svg" viewBox="0 0 46.02 78.54"><defs><style>.cls-1{fill:#fff;}.cls-2{fill:#c6c6c6;}</style></defs><title>img_</title><path class="cls-1" d="M11.2,56.62a2.47,2.47,0,0,1-1.09,2.14,5.1,5.1,0,0,1-3,.77A8.12,8.12,0,0,1,4,59.05V57.89a9.19,9.19,0,0,0,3.18.58,3.57,3.57,0,0,0,2-.46,1.46,1.46,0,0,0,.67-1.27,1.52,1.52,0,0,0-.24-0.88,2.16,2.16,0,0,0-.8-0.64,11.84,11.84,0,0,0-1.7-.66,5.55,5.55,0,0,1-2.28-1.23,2.56,2.56,0,0,1-.68-1.85,2.23,2.23,0,0,1,1-1.91,4.42,4.42,0,0,1,2.63-.71,8.43,8.43,0,0,1,3.14.57L10.5,50.47a7.71,7.71,0,0,0-2.75-.54,2.86,2.86,0,0,0-1.65.41,1.32,1.32,0,0,0-.59,1.14,1.63,1.63,0,0,0,.22.88,2,2,0,0,0,.74.63A9.76,9.76,0,0,0,8,53.64a6.49,6.49,0,0,1,2.48,1.25A2.33,2.33,0,0,1,11.2,56.62Z"/><path class="cls-1" d="M19.21,59.39v-5a1.92,1.92,0,0,0-.48-1.42,2.06,2.06,0,0,0-1.49-.47,2.59,2.59,0,0,0-2,.67,3.16,3.16,0,0,0-.62,2.19v4.07h-1.3V48.33h1.3v3.35a6.61,6.61,0,0,1-.06,1h0.08a2.58,2.58,0,0,1,1.09-.88,3.86,3.86,0,0,1,1.62-.32,3.53,3.53,0,0,1,2.36.68,2.7,2.7,0,0,1,.79,2.16v5.08h-1.3Z"/><path class="cls-1" d="M30.58,55.49a4,4,0,0,1-1.06,3,3.92,3.92,0,0,1-2.92,1.07,4.17,4.17,0,0,1-2-.49,3.36,3.36,0,0,1-1.38-1.41,4.52,4.52,0,0,1-.49-2.15,4,4,0,0,1,1-3,3.9,3.9,0,0,1,2.91-1.06,3.81,3.81,0,0,1,2.86,1.09A4,4,0,0,1,30.58,55.49Zm-6.53,0a3.44,3.44,0,0,0,.66,2.27,2.38,2.38,0,0,0,1.93.78,2.4,2.4,0,0,0,1.94-.78,3.43,3.43,0,0,0,.66-2.28,3.38,3.38,0,0,0-.66-2.25,2.43,2.43,0,0,0-2-.77,2.39,2.39,0,0,0-1.92.76A3.41,3.41,0,0,0,24,55.49Z"/><path class="cls-1" d="M36.84,59.53a4,4,0,0,1-1.53-.28,2.83,2.83,0,0,1-1.16-.86H34.06a9.52,9.52,0,0,1,.09,1.29v3.2h-1.3V51.6h1.06l0.18,1.07h0.06a3,3,0,0,1,1.17-.92,3.85,3.85,0,0,1,1.53-.28,3.31,3.31,0,0,1,2.63,1.06,5.2,5.2,0,0,1,0,5.95A3.32,3.32,0,0,1,36.84,59.53Zm-0.19-7.07a2.43,2.43,0,0,0-1.9.66,3.18,3.18,0,0,0-.6,2.1v0.26a3.62,3.62,0,0,0,.6,2.35,2.41,2.41,0,0,0,1.93.71,2.07,2.07,0,0,0,1.74-.82,3.61,3.61,0,0,0,.63-2.25,3.47,3.47,0,0,0-.63-2.23A2.15,2.15,0,0,0,36.65,52.46Z"/><path class="cls-2" d="M12.83,34.2a4.27,4.27,0,1,0,4.28,4.27A4.27,4.27,0,0,0,12.83,34.2ZM0,0V4.28H4.28L12,20.5,9.08,25.74a4.13,4.13,0,0,0-.53,2.05,4.29,4.29,0,0,0,4.27,4.27H38.48V27.79H13.72a0.53,0.53,0,0,1-.53-0.53L13.25,27l1.92-3.48H31.1a4.25,4.25,0,0,0,3.74-2.2L42.49,7.44a2.09,2.09,0,0,0,.26-1,2.14,2.14,0,0,0-2.14-2.14H9L7,0H0ZM34.2,34.2a4.27,4.27,0,1,0,4.27,4.27A4.27,4.27,0,0,0,34.2,34.2Z"/></svg>