<?xml version="1.0" encoding="UTF-8" standalone="no"?>
<svg width="872px" height="367px" viewBox="0 0 872 367" version="1.1" xmlns="http://www.w3.org/2000/svg" xmlns:xlink="http://www.w3.org/1999/xlink">
    <defs></defs>
    <g id="Page-1" stroke="none" stroke-width="1" fill="none" fill-rule="evenodd">
        <g id="Artboard-1">
            <g id="bg" transform="translate(-65.000000, -43.000000)" fill-opacity="0.352638134" fill="#EFCE2B">
                <g id="Triangle-1-+-Triangle-1-Copy" transform="translate(0.000000, 328.000000)">
                    <polygon id="Triangle-1-Copy" points="81.5 41 102 82 61 82 "></polygon>
                    <polygon id="Triangle-1-Copy-3" transform="translate(61.500000, 20.500000) scale(1, -1) translate(-61.500000, -20.500000) " points="61.5 0 82 41 41 41 "></polygon>
                    <polygon id="Triangle-1-Copy-2" transform="translate(102.000000, 20.500000) scale(1, -1) translate(-102.000000, -20.500000) " points="102 0 122.5 41 81.5 41 "></polygon>
                    <polygon id="Triangle-1-Copy-9" points="163.5 41 184 82 143 82 "></polygon>
                    <polygon id="Triangle-1-Copy-10" points="122.5 41 143 82 102 82 "></polygon>
                    <polygon id="Triangle-1-Copy-11" points="245.5 41 266 82 225 82 "></polygon>
                    <polygon id="Triangle-1-Copy-5" points="204 41 224.5 82 183.5 82 "></polygon>
                    <polygon id="Triangle-1-Copy-6" transform="translate(184.000000, 20.500000) scale(1, -1) translate(-184.000000, -20.500000) " points="184 0 204.5 41 163.5 41 "></polygon>
                    <polygon id="Triangle-1-Copy-7" transform="translate(224.500000, 20.500000) scale(1, -1) translate(-224.500000, -20.500000) " points="224.5 0 245 41 204 41 "></polygon>
                    <polygon id="Triangle-1-Copy-8" transform="translate(143.000000, 20.500000) scale(1, -1) translate(-143.000000, -20.500000) " points="143 0 163.5 41 122.5 41 "></polygon>
                    <polygon id="Triangle-1-Copy-23" points="286.5 41 307 82 266 82 "></polygon>
                    <polygon id="Triangle-1-Copy-12" points="327 41 347.5 82 306.5 82 "></polygon>
                    <polygon id="Triangle-1-Copy-13" transform="translate(307.000000, 20.500000) scale(1, -1) translate(-307.000000, -20.500000) " points="307 0 327.5 41 286.5 41 "></polygon>
                    <polygon id="Triangle-1-Copy-14" transform="translate(347.500000, 20.500000) scale(1, -1) translate(-347.500000, -20.500000) " points="347.5 0 368 41 327 41 "></polygon>
                    <polygon id="Triangle-1-Copy-15" transform="translate(266.000000, 20.500000) scale(1, -1) translate(-266.000000, -20.500000) " points="266 0 286.5 41 245.5 41 "></polygon>
                    <polygon id="Triangle-1-Copy-16" points="409 41 429.5 82 388.5 82 "></polygon>
                    <polygon id="Triangle-1-Copy-17" points="368 41 388.5 82 347.5 82 "></polygon>
                    <polygon id="Triangle-1-Copy-18" points="491 41 511.5 82 470.5 82 "></polygon>
                    <polygon id="Triangle-1-Copy-19" points="449.5 41 470 82 429 82 "></polygon>
                    <polygon id="Triangle-1-Copy-20" transform="translate(429.500000, 20.500000) scale(1, -1) translate(-429.500000, -20.500000) " points="429.5 0 450 41 409 41 "></polygon>
                    <polygon id="Triangle-1-Copy-21" transform="translate(470.000000, 20.500000) scale(1, -1) translate(-470.000000, -20.500000) " points="470 0 490.5 41 449.5 41 "></polygon>
                    <polygon id="Triangle-1-Copy-22" transform="translate(388.500000, 20.500000) scale(1, -1) translate(-388.500000, -20.500000) " points="388.5 0 409 41 368 41 "></polygon>
                    <polygon id="Triangle-1-Copy-35" points="531.5 41 552 82 511 82 "></polygon>
                    <polygon id="Triangle-1-Copy-24" points="572.5 41 593 82 552 82 "></polygon>
                    <polygon id="Triangle-1-Copy-25" transform="translate(552.500000, 20.500000) scale(1, -1) translate(-552.500000, -20.500000) " points="552.5 0 573 41 532 41 "></polygon>
                    <polygon id="Triangle-1-Copy-26" transform="translate(593.000000, 20.500000) scale(1, -1) translate(-593.000000, -20.500000) " points="593 0 613.5 41 572.5 41 "></polygon>
                    <polygon id="Triangle-1-Copy-27" transform="translate(511.500000, 20.500000) scale(1, -1) translate(-511.500000, -20.500000) " points="511.5 0 532 41 491 41 "></polygon>
                    <polygon id="Triangle-1-Copy-28" points="654.5 41 675 82 634 82 "></polygon>
                    <polygon id="Triangle-1-Copy-29" points="613.5 41 634 82 593 82 "></polygon>
                    <polygon id="Triangle-1-Copy-30" points="736.5 41 757 82 716 82 "></polygon>
                    <polygon id="Triangle-1-Copy-31" points="695 41 715.5 82 674.5 82 "></polygon>
                    <polygon id="Triangle-1-Copy-32" transform="translate(675.000000, 20.500000) scale(1, -1) translate(-675.000000, -20.500000) " points="675 0 695.5 41 654.5 41 "></polygon>
                    <polygon id="Triangle-1-Copy-33" transform="translate(715.500000, 20.500000) scale(1, -1) translate(-715.500000, -20.500000) " points="715.5 0 736 41 695 41 "></polygon>
                    <polygon id="Triangle-1-Copy-34" transform="translate(634.000000, 20.500000) scale(1, -1) translate(-634.000000, -20.500000) " points="634 0 654.5 41 613.5 41 "></polygon>
                    <polygon id="Triangle-1-Copy-47" points="777.5 41 798 82 757 82 "></polygon>
                    <polygon id="Triangle-1-Copy-36" points="818 41 838.5 82 797.5 82 "></polygon>
                    <polygon id="Triangle-1-Copy-37" transform="translate(798.000000, 20.500000) scale(1, -1) translate(-798.000000, -20.500000) " points="798 0 818.5 41 777.5 41 "></polygon>
                    <polygon id="Triangle-1-Copy-38" transform="translate(838.500000, 20.500000) scale(1, -1) translate(-838.500000, -20.500000) " points="838.5 0 859 41 818 41 "></polygon>
                    <polygon id="Triangle-1-Copy-39" transform="translate(757.000000, 20.500000) scale(1, -1) translate(-757.000000, -20.500000) " points="757 0 777.5 41 736.5 41 "></polygon>
                    <polygon id="Triangle-1-Copy-40" points="900 41 920.5 82 879.5 82 "></polygon>
                    <polygon id="Triangle-1-Copy-41" points="859 41 879.5 82 838.5 82 "></polygon>
                    <polygon id="Triangle-1-Copy-43" points="940.5 41 961 82 920 82 "></polygon>
                    <polygon id="Triangle-1-Copy-44" transform="translate(920.500000, 20.500000) scale(1, -1) translate(-920.500000, -20.500000) " points="920.5 0 941 41 900 41 "></polygon>
                    <polygon id="Triangle-1-Copy-46" transform="translate(879.500000, 20.500000) scale(1, -1) translate(-879.500000, -20.500000) " points="879.5 0 900 41 859 41 "></polygon>
                </g>
                <g id="Triangle-1-+-Triangle-1-Copy-2" transform="translate(0.000000, 246.000000)">
                    <polygon id="Triangle-1-Copy" points="81.5 41 102 82 61 82 "></polygon>
                    <polygon id="Triangle-1-Copy-3" transform="translate(61.500000, 20.500000) scale(1, -1) translate(-61.500000, -20.500000) " points="61.5 0 82 41 41 41 "></polygon>
                    <polygon id="Triangle-1-Copy-2" transform="translate(102.000000, 20.500000) scale(1, -1) translate(-102.000000, -20.500000) " points="102 0 122.5 41 81.5 41 "></polygon>
                    <polygon id="Triangle-1-Copy-9" points="163.5 41 184 82 143 82 "></polygon>
                    <polygon id="Triangle-1-Copy-10" points="122.5 41 143 82 102 82 "></polygon>
                    <polygon id="Triangle-1-Copy-11" points="245.5 41 266 82 225 82 "></polygon>
                    <polygon id="Triangle-1-Copy-5" points="204 41 224.5 82 183.5 82 "></polygon>
                    <polygon id="Triangle-1-Copy-6" transform="translate(184.000000, 20.500000) scale(1, -1) translate(-184.000000, -20.500000) " points="184 0 204.5 41 163.5 41 "></polygon>
                    <polygon id="Triangle-1-Copy-7" transform="translate(224.500000, 20.500000) scale(1, -1) translate(-224.500000, -20.500000) " points="224.5 0 245 41 204 41 "></polygon>
                    <polygon id="Triangle-1-Copy-8" transform="translate(143.000000, 20.500000) scale(1, -1) translate(-143.000000, -20.500000) " points="143 0 163.5 41 122.5 41 "></polygon>
                    <polygon id="Triangle-1-Copy-23" points="286.5 41 307 82 266 82 "></polygon>
                    <polygon id="Triangle-1-Copy-12" points="327 41 347.5 82 306.5 82 "></polygon>
                    <polygon id="Triangle-1-Copy-13" transform="translate(307.000000, 20.500000) scale(1, -1) translate(-307.000000, -20.500000) " points="307 0 327.5 41 286.5 41 "></polygon>
                    <polygon id="Triangle-1-Copy-14" transform="translate(347.500000, 20.500000) scale(1, -1) translate(-347.500000, -20.500000) " points="347.5 0 368 41 327 41 "></polygon>
                    <polygon id="Triangle-1-Copy-15" transform="translate(266.000000, 20.500000) scale(1, -1) translate(-266.000000, -20.500000) " points="266 0 286.5 41 245.5 41 "></polygon>
                    <polygon id="Triangle-1-Copy-16" points="409 41 429.5 82 388.5 82 "></polygon>
                    <polygon id="Triangle-1-Copy-17" points="368 41 388.5 82 347.5 82 "></polygon>
                    <polygon id="Triangle-1-Copy-18" points="491 41 511.5 82 470.5 82 "></polygon>
                    <polygon id="Triangle-1-Copy-19" points="449.5 41 470 82 429 82 "></polygon>
                    <polygon id="Triangle-1-Copy-20" transform="translate(429.500000, 20.500000) scale(1, -1) translate(-429.500000, -20.500000) " points="429.5 0 450 41 409 41 "></polygon>
                    <polygon id="Triangle-1-Copy-21" transform="translate(470.000000, 20.500000) scale(1, -1) translate(-470.000000, -20.500000) " points="470 0 490.5 41 449.5 41 "></polygon>
                    <polygon id="Triangle-1-Copy-22" transform="translate(388.500000, 20.500000) scale(1, -1) translate(-388.500000, -20.500000) " points="388.5 0 409 41 368 41 "></polygon>
                    <polygon id="Triangle-1-Copy-35" points="531.5 41 552 82 511 82 "></polygon>
                    <polygon id="Triangle-1-Copy-24" points="572.5 41 593 82 552 82 "></polygon>
                    <polygon id="Triangle-1-Copy-25" transform="translate(552.500000, 20.500000) scale(1, -1) translate(-552.500000, -20.500000) " points="552.5 0 573 41 532 41 "></polygon>
                    <polygon id="Triangle-1-Copy-26" transform="translate(593.000000, 20.500000) scale(1, -1) translate(-593.000000, -20.500000) " points="593 0 613.5 41 572.5 41 "></polygon>
                    <polygon id="Triangle-1-Copy-27" transform="translate(511.500000, 20.500000) scale(1, -1) translate(-511.500000, -20.500000) " points="511.5 0 532 41 491 41 "></polygon>
                    <polygon id="Triangle-1-Copy-28" points="654.5 41 675 82 634 82 "></polygon>
                    <polygon id="Triangle-1-Copy-29" points="613.5 41 634 82 593 82 "></polygon>
                    <polygon id="Triangle-1-Copy-30" points="736.5 41 757 82 716 82 "></polygon>
                    <polygon id="Triangle-1-Copy-31" points="695 41 715.5 82 674.5 82 "></polygon>
                    <polygon id="Triangle-1-Copy-32" transform="translate(675.000000, 20.500000) scale(1, -1) translate(-675.000000, -20.500000) " points="675 0 695.5 41 654.5 41 "></polygon>
                    <polygon id="Triangle-1-Copy-33" transform="translate(715.500000, 20.500000) scale(1, -1) translate(-715.500000, -20.500000) " points="715.5 0 736 41 695 41 "></polygon>
                    <polygon id="Triangle-1-Copy-34" transform="translate(634.000000, 20.500000) scale(1, -1) translate(-634.000000, -20.500000) " points="634 0 654.5 41 613.5 41 "></polygon>
                    <polygon id="Triangle-1-Copy-47" points="777.5 41 798 82 757 82 "></polygon>
                    <polygon id="Triangle-1-Copy-36" points="818 41 838.5 82 797.5 82 "></polygon>
                    <polygon id="Triangle-1-Copy-37" transform="translate(798.000000, 20.500000) scale(1, -1) translate(-798.000000, -20.500000) " points="798 0 818.5 41 777.5 41 "></polygon>
                    <polygon id="Triangle-1-Copy-38" transform="translate(838.500000, 20.500000) scale(1, -1) translate(-838.500000, -20.500000) " points="838.5 0 859 41 818 41 "></polygon>
                    <polygon id="Triangle-1-Copy-39" transform="translate(757.000000, 20.500000) scale(1, -1) translate(-757.000000, -20.500000) " points="757 0 777.5 41 736.5 41 "></polygon>
                    <polygon id="Triangle-1-Copy-40" points="900 41 920.5 82 879.5 82 "></polygon>
                    <polygon id="Triangle-1-Copy-41" points="859 41 879.5 82 838.5 82 "></polygon>
                    <polygon id="Triangle-1-Copy-43" points="940.5 41 961 82 920 82 "></polygon>
                    <polygon id="Triangle-1-Copy-44" transform="translate(920.500000, 20.500000) scale(1, -1) translate(-920.500000, -20.500000) " points="920.5 0 941 41 900 41 "></polygon>
                    <polygon id="Triangle-1-Copy-46" transform="translate(879.500000, 20.500000) scale(1, -1) translate(-879.500000, -20.500000) " points="879.5 0 900 41 859 41 "></polygon>
                </g>
                <g id="Triangle-1-+-Triangle-1-Copy-3" transform="translate(0.000000, 164.000000)">
                    <polygon id="Triangle-1-Copy" points="81.5 41 102 82 61 82 "></polygon>
                    <polygon id="Triangle-1-Copy-3" transform="translate(61.500000, 20.500000) scale(1, -1) translate(-61.500000, -20.500000) " points="61.5 0 82 41 41 41 "></polygon>
                    <polygon id="Triangle-1-Copy-2" transform="translate(102.000000, 20.500000) scale(1, -1) translate(-102.000000, -20.500000) " points="102 0 122.5 41 81.5 41 "></polygon>
                    <polygon id="Triangle-1-Copy-9" points="163.5 41 184 82 143 82 "></polygon>
                    <polygon id="Triangle-1-Copy-10" points="122.5 41 143 82 102 82 "></polygon>
                    <polygon id="Triangle-1-Copy-11" points="245.5 41 266 82 225 82 "></polygon>
                    <polygon id="Triangle-1-Copy-5" points="204 41 224.5 82 183.5 82 "></polygon>
                    <polygon id="Triangle-1-Copy-6" transform="translate(184.000000, 20.500000) scale(1, -1) translate(-184.000000, -20.500000) " points="184 0 204.5 41 163.5 41 "></polygon>
                    <polygon id="Triangle-1-Copy-7" transform="translate(224.500000, 20.500000) scale(1, -1) translate(-224.500000, -20.500000) " points="224.5 0 245 41 204 41 "></polygon>
                    <polygon id="Triangle-1-Copy-8" transform="translate(143.000000, 20.500000) scale(1, -1) translate(-143.000000, -20.500000) " points="143 0 163.5 41 122.5 41 "></polygon>
                    <polygon id="Triangle-1-Copy-23" points="286.5 41 307 82 266 82 "></polygon>
                    <polygon id="Triangle-1-Copy-12" points="327 41 347.5 82 306.5 82 "></polygon>
                    <polygon id="Triangle-1-Copy-13" transform="translate(307.000000, 20.500000) scale(1, -1) translate(-307.000000, -20.500000) " points="307 0 327.5 41 286.5 41 "></polygon>
                    <polygon id="Triangle-1-Copy-14" transform="translate(347.500000, 20.500000) scale(1, -1) translate(-347.500000, -20.500000) " points="347.5 0 368 41 327 41 "></polygon>
                    <polygon id="Triangle-1-Copy-15" transform="translate(266.000000, 20.500000) scale(1, -1) translate(-266.000000, -20.500000) " points="266 0 286.5 41 245.5 41 "></polygon>
                    <polygon id="Triangle-1-Copy-16" points="409 41 429.5 82 388.5 82 "></polygon>
                    <polygon id="Triangle-1-Copy-17" points="368 41 388.5 82 347.5 82 "></polygon>
                    <polygon id="Triangle-1-Copy-18" points="491 41 511.5 82 470.5 82 "></polygon>
                    <polygon id="Triangle-1-Copy-19" points="449.5 41 470 82 429 82 "></polygon>
                    <polygon id="Triangle-1-Copy-20" transform="translate(429.500000, 20.500000) scale(1, -1) translate(-429.500000, -20.500000) " points="429.5 0 450 41 409 41 "></polygon>
                    <polygon id="Triangle-1-Copy-21" transform="translate(470.000000, 20.500000) scale(1, -1) translate(-470.000000, -20.500000) " points="470 0 490.5 41 449.5 41 "></polygon>
                    <polygon id="Triangle-1-Copy-22" transform="translate(388.500000, 20.500000) scale(1, -1) translate(-388.500000, -20.500000) " points="388.5 0 409 41 368 41 "></polygon>
                    <polygon id="Triangle-1-Copy-35" points="531.5 41 552 82 511 82 "></polygon>
                    <polygon id="Triangle-1-Copy-24" points="572.5 41 593 82 552 82 "></polygon>
                    <polygon id="Triangle-1-Copy-25" transform="translate(552.500000, 20.500000) scale(1, -1) translate(-552.500000, -20.500000) " points="552.5 0 573 41 532 41 "></polygon>
                    <polygon id="Triangle-1-Copy-26" transform="translate(593.000000, 20.500000) scale(1, -1) translate(-593.000000, -20.500000) " points="593 0 613.5 41 572.5 41 "></polygon>
                    <polygon id="Triangle-1-Copy-27" transform="translate(511.500000, 20.500000) scale(1, -1) translate(-511.500000, -20.500000) " points="511.5 0 532 41 491 41 "></polygon>
                    <polygon id="Triangle-1-Copy-28" points="654.5 41 675 82 634 82 "></polygon>
                    <polygon id="Triangle-1-Copy-29" points="613.5 41 634 82 593 82 "></polygon>
                    <polygon id="Triangle-1-Copy-30" points="736.5 41 757 82 716 82 "></polygon>
                    <polygon id="Triangle-1-Copy-31" points="695 41 715.5 82 674.5 82 "></polygon>
                    <polygon id="Triangle-1-Copy-32" transform="translate(675.000000, 20.500000) scale(1, -1) translate(-675.000000, -20.500000) " points="675 0 695.5 41 654.5 41 "></polygon>
                    <polygon id="Triangle-1-Copy-33" transform="translate(715.500000, 20.500000) scale(1, -1) translate(-715.500000, -20.500000) " points="715.5 0 736 41 695 41 "></polygon>
                    <polygon id="Triangle-1-Copy-34" transform="translate(634.000000, 20.500000) scale(1, -1) translate(-634.000000, -20.500000) " points="634 0 654.5 41 613.5 41 "></polygon>
                    <polygon id="Triangle-1-Copy-47" points="777.5 41 798 82 757 82 "></polygon>
                    <polygon id="Triangle-1-Copy-36" points="818 41 838.5 82 797.5 82 "></polygon>
                    <polygon id="Triangle-1-Copy-37" transform="translate(798.000000, 20.500000) scale(1, -1) translate(-798.000000, -20.500000) " points="798 0 818.5 41 777.5 41 "></polygon>
                    <polygon id="Triangle-1-Copy-38" transform="translate(838.500000, 20.500000) scale(1, -1) translate(-838.500000, -20.500000) " points="838.5 0 859 41 818 41 "></polygon>
                    <polygon id="Triangle-1-Copy-39" transform="translate(757.000000, 20.500000) scale(1, -1) translate(-757.000000, -20.500000) " points="757 0 777.5 41 736.5 41 "></polygon>
                    <polygon id="Triangle-1-Copy-40" points="900 41 920.5 82 879.5 82 "></polygon>
                    <polygon id="Triangle-1-Copy-41" points="859 41 879.5 82 838.5 82 "></polygon>
                    <polygon id="Triangle-1-Copy-43" points="940.5 41 961 82 920 82 "></polygon>
                    <polygon id="Triangle-1-Copy-44" transform="translate(920.500000, 20.500000) scale(1, -1) translate(-920.500000, -20.500000) " points="920.5 0 941 41 900 41 "></polygon>
                    <polygon id="Triangle-1-Copy-46" transform="translate(879.500000, 20.500000) scale(1, -1) translate(-879.500000, -20.500000) " points="879.5 0 900 41 859 41 "></polygon>
                </g>
                <g id="Triangle-1-+-Triangle-1-Copy-4" transform="translate(0.000000, 82.000000)">
                    <polygon id="Triangle-1-Copy" points="81.5 41 102 82 61 82 "></polygon>
                    <polygon id="Triangle-1-Copy-3" transform="translate(61.500000, 20.500000) scale(1, -1) translate(-61.500000, -20.500000) " points="61.5 0 82 41 41 41 "></polygon>
                    <polygon id="Triangle-1-Copy-2" transform="translate(102.000000, 20.500000) scale(1, -1) translate(-102.000000, -20.500000) " points="102 0 122.5 41 81.5 41 "></polygon>
                    <polygon id="Triangle-1-Copy-9" points="163.5 41 184 82 143 82 "></polygon>
                    <polygon id="Triangle-1-Copy-10" points="122.5 41 143 82 102 82 "></polygon>
                    <polygon id="Triangle-1-Copy-11" points="245.5 41 266 82 225 82 "></polygon>
                    <polygon id="Triangle-1-Copy-5" points="204 41 224.5 82 183.5 82 "></polygon>
                    <polygon id="Triangle-1-Copy-6" transform="translate(184.000000, 20.500000) scale(1, -1) translate(-184.000000, -20.500000) " points="184 0 204.5 41 163.5 41 "></polygon>
                    <polygon id="Triangle-1-Copy-7" transform="translate(224.500000, 20.500000) scale(1, -1) translate(-224.500000, -20.500000) " points="224.5 0 245 41 204 41 "></polygon>
                    <polygon id="Triangle-1-Copy-8" transform="translate(143.000000, 20.500000) scale(1, -1) translate(-143.000000, -20.500000) " points="143 0 163.5 41 122.5 41 "></polygon>
                    <polygon id="Triangle-1-Copy-23" points="286.5 41 307 82 266 82 "></polygon>
                    <polygon id="Triangle-1-Copy-12" points="327 41 347.5 82 306.5 82 "></polygon>
                    <polygon id="Triangle-1-Copy-13" transform="translate(307.000000, 20.500000) scale(1, -1) translate(-307.000000, -20.500000) " points="307 0 327.5 41 286.5 41 "></polygon>
                    <polygon id="Triangle-1-Copy-14" transform="translate(347.500000, 20.500000) scale(1, -1) translate(-347.500000, -20.500000) " points="347.5 0 368 41 327 41 "></polygon>
                    <polygon id="Triangle-1-Copy-15" transform="translate(266.000000, 20.500000) scale(1, -1) translate(-266.000000, -20.500000) " points="266 0 286.5 41 245.5 41 "></polygon>
                    <polygon id="Triangle-1-Copy-16" points="409 41 429.5 82 388.5 82 "></polygon>
                    <polygon id="Triangle-1-Copy-17" points="368 41 388.5 82 347.5 82 "></polygon>
                    <polygon id="Triangle-1-Copy-18" points="491 41 511.5 82 470.5 82 "></polygon>
                    <polygon id="Triangle-1-Copy-19" points="449.5 41 470 82 429 82 "></polygon>
                    <polygon id="Triangle-1-Copy-20" transform="translate(429.500000, 20.500000) scale(1, -1) translate(-429.500000, -20.500000) " points="429.5 0 450 41 409 41 "></polygon>
                    <polygon id="Triangle-1-Copy-21" transform="translate(470.000000, 20.500000) scale(1, -1) translate(-470.000000, -20.500000) " points="470 0 490.5 41 449.5 41 "></polygon>
                    <polygon id="Triangle-1-Copy-22" transform="translate(388.500000, 20.500000) scale(1, -1) translate(-388.500000, -20.500000) " points="388.5 0 409 41 368 41 "></polygon>
                    <polygon id="Triangle-1-Copy-35" points="531.5 41 552 82 511 82 "></polygon>
                    <polygon id="Triangle-1-Copy-24" points="572.5 41 593 82 552 82 "></polygon>
                    <polygon id="Triangle-1-Copy-25" transform="translate(552.500000, 20.500000) scale(1, -1) translate(-552.500000, -20.500000) " points="552.5 0 573 41 532 41 "></polygon>
                    <polygon id="Triangle-1-Copy-26" transform="translate(593.000000, 20.500000) scale(1, -1) translate(-593.000000, -20.500000) " points="593 0 613.5 41 572.5 41 "></polygon>
                    <polygon id="Triangle-1-Copy-27" transform="translate(511.500000, 20.500000) scale(1, -1) translate(-511.500000, -20.500000) " points="511.5 0 532 41 491 41 "></polygon>
                    <polygon id="Triangle-1-Copy-28" points="654.5 41 675 82 634 82 "></polygon>
                    <polygon id="Triangle-1-Copy-29" points="613.5 41 634 82 593 82 "></polygon>
                    <polygon id="Triangle-1-Copy-30" points="736.5 41 757 82 716 82 "></polygon>
                    <polygon id="Triangle-1-Copy-31" points="695 41 715.5 82 674.5 82 "></polygon>
                    <polygon id="Triangle-1-Copy-32" transform="translate(675.000000, 20.500000) scale(1, -1) translate(-675.000000, -20.500000) " points="675 0 695.5 41 654.5 41 "></polygon>
                    <polygon id="Triangle-1-Copy-33" transform="translate(715.500000, 20.500000) scale(1, -1) translate(-715.500000, -20.500000) " points="715.5 0 736 41 695 41 "></polygon>
                    <polygon id="Triangle-1-Copy-34" transform="translate(634.000000, 20.500000) scale(1, -1) translate(-634.000000, -20.500000) " points="634 0 654.5 41 613.5 41 "></polygon>
                    <polygon id="Triangle-1-Copy-47" points="777.5 41 798 82 757 82 "></polygon>
                    <polygon id="Triangle-1-Copy-36" points="818 41 838.5 82 797.5 82 "></polygon>
                    <polygon id="Triangle-1-Copy-37" transform="translate(798.000000, 20.500000) scale(1, -1) translate(-798.000000, -20.500000) " points="798 0 818.5 41 777.5 41 "></polygon>
                    <polygon id="Triangle-1-Copy-38" transform="translate(838.500000, 20.500000) scale(1, -1) translate(-838.500000, -20.500000) " points="838.5 0 859 41 818 41 "></polygon>
                    <polygon id="Triangle-1-Copy-39" transform="translate(757.000000, 20.500000) scale(1, -1) translate(-757.000000, -20.500000) " points="757 0 777.5 41 736.5 41 "></polygon>
                    <polygon id="Triangle-1-Copy-40" points="900 41 920.5 82 879.5 82 "></polygon>
                    <polygon id="Triangle-1-Copy-41" points="859 41 879.5 82 838.5 82 "></polygon>
                    <polygon id="Triangle-1-Copy-43" points="940.5 41 961 82 920 82 "></polygon>
                    <polygon id="Triangle-1-Copy-44" transform="translate(920.500000, 20.500000) scale(1, -1) translate(-920.500000, -20.500000) " points="920.5 0 941 41 900 41 "></polygon>
                    <polygon id="Triangle-1-Copy-46" transform="translate(879.500000, 20.500000) scale(1, -1) translate(-879.500000, -20.500000) " points="879.5 0 900 41 859 41 "></polygon>
                </g>
                <g id="Triangle-1-+-Triangle-1-Copy-5">
                    <polygon id="Triangle-1-Copy" points="81.5 41 102 82 61 82 "></polygon>
                    <polygon id="Triangle-1-Copy-9" points="163.5 41 184 82 143 82 "></polygon>
                    <polygon id="Triangle-1-Copy-10" points="122.5 41 143 82 102 82 "></polygon>
                    <polygon id="Triangle-1-Copy-11" points="245.5 41 266 82 225 82 "></polygon>
                    <polygon id="Triangle-1-Copy-5" points="204 41 224.5 82 183.5 82 "></polygon>
                    <polygon id="Triangle-1-Copy-23" points="286.5 41 307 82 266 82 "></polygon>
                    <polygon id="Triangle-1-Copy-12" points="327 41 347.5 82 306.5 82 "></polygon>
                    <polygon id="Triangle-1-Copy-16" points="409 41 429.5 82 388.5 82 "></polygon>
                    <polygon id="Triangle-1-Copy-17" points="368 41 388.5 82 347.5 82 "></polygon>
                    <polygon id="Triangle-1-Copy-18" points="491 41 511.5 82 470.5 82 "></polygon>
                    <polygon id="Triangle-1-Copy-19" points="449.5 41 470 82 429 82 "></polygon>
                    <polygon id="Triangle-1-Copy-35" points="531.5 41 552 82 511 82 "></polygon>
                    <polygon id="Triangle-1-Copy-24" points="572.5 41 593 82 552 82 "></polygon>
                    <polygon id="Triangle-1-Copy-28" points="654.5 41 675 82 634 82 "></polygon>
                    <polygon id="Triangle-1-Copy-29" points="613.5 41 634 82 593 82 "></polygon>
                    <polygon id="Triangle-1-Copy-30" points="736.5 41 757 82 716 82 "></polygon>
                    <polygon id="Triangle-1-Copy-31" points="695 41 715.5 82 674.5 82 "></polygon>
                    <polygon id="Triangle-1-Copy-47" points="777.5 41 798 82 757 82 "></polygon>
                    <polygon id="Triangle-1-Copy-36" points="818 41 838.5 82 797.5 82 "></polygon>
                    <polygon id="Triangle-1-Copy-40" points="900 41 920.5 82 879.5 82 "></polygon>
                    <polygon id="Triangle-1-Copy-41" points="859 41 879.5 82 838.5 82 "></polygon>
                    <polygon id="Triangle-1-Copy-43" points="940.5 41 961 82 920 82 "></polygon>
                </g>
            </g>
            <g id="fg" transform="translate(301.000000, 61.000000)">
                <ellipse id="Oval-1" stroke="#002E93" stroke-width="6" fill="#EFCE2B" cx="26.6779386" cy="83.8229978" rx="26.5" ry="26.5"></ellipse>
                <ellipse id="Oval-1-Copy" stroke="#002E93" stroke-width="6" fill="#EFCE2B" cx="244.5" cy="170.5" rx="26.5" ry="26.5"></ellipse>
                <ellipse id="Oval-1-Copy-2" stroke="#002E93" stroke-width="6" fill="#EFCE2B" cx="93.5" cy="219.5" rx="26.5" ry="26.5"></ellipse>
                <path d="M59.5783067,96.4020889 L220,158" id="Line" stroke="#002E93" stroke-width="6" stroke-linecap="round"></path>
                <path d="M123.211406,216.00388 L219.186435,182.762559" id="Line" stroke="#002E93" stroke-width="6" stroke-linecap="square"></path>
                <path d="M153.80164,44.4967862 C149.702972,43.1797595 145.311004,45.4296445 143.992012,49.5220358 L143.836817,50.0033129 L138.873121,48.4082719 L139.330503,46.9891871 C139.818823,45.4740176 138.984732,43.8508168 137.467472,43.363225 L124.495307,39.1945462 C124.341307,39.1448825 124.183206,39.1085308 124.023054,39.0856616 L114.27547,37.6821074 C112.882299,37.4814046 111.547582,38.3135702 111.116351,39.6514181 L109.775994,43.8105397 L102.215677,41.3811144 C102.003565,41.3128481 101.771113,41.3382773 101.569085,41.4515993 L99.7180187,42.4900996 L99.9988408,41.6188516 C100.152156,41.1433771 99.9183373,40.6428148 99.4770211,40.5009917 L95.247086,39.1418106 C95.0351448,39.073715 94.8025223,39.0989735 94.6006655,39.2124661 L92.7495988,40.2509665 L93.0304208,39.3798891 C93.1837363,38.904244 92.9500883,38.4038524 92.5086012,38.2620292 L88.2784952,36.9026774 C88.066554,36.8345818 87.8339315,36.860011 87.6320746,36.9731623 L85.781008,38.0116627 L86.06183,37.1405853 C86.2151455,36.6649402 85.9814975,36.1643779 85.5400104,36.0225547 L81.3100752,34.6633736 C81.0979632,34.595278 80.8655116,34.6205366 80.6636547,34.7338585 L78.8125881,35.7725296 L79.0932392,34.9011109 C79.2465547,34.4256364 79.0130776,33.9250741 78.5714196,33.783251 L76.1617854,33.008941 C75.9303594,32.9345308 75.6751754,32.9719065 75.4627215,33.111511 L74.3708827,33.8283067 C74.0054551,34.0682626 73.8502595,34.5497103 74.0069934,34.9574305 L74.4751441,36.1754712 C74.5662446,36.4126964 74.7515222,36.591554 74.9831192,36.6659642 L79.4690929,38.1075768 C79.681205,38.1756724 79.9136565,38.1502432 80.1155134,38.0369212 L81.96658,36.9984208 L81.685758,37.8694982 C81.5326135,38.3449727 81.7662615,38.845535 82.2077486,38.9873582 L86.4375128,40.3467099 C86.6496249,40.4148055 86.8820764,40.389547 87.0841042,40.276225 L88.9351709,39.2377246 L88.6545198,40.108802 C88.5012043,40.5842765 88.7348523,41.0850095 89.1761685,41.226662 L93.4061036,42.5860137 C93.6182157,42.6541093 93.8506673,42.6288508 94.0525241,42.5153582 L95.9035908,41.4768578 L95.6227688,42.3479352 C95.4694533,42.8235803 95.7032722,43.3241426 96.1445884,43.4659657 L100.374524,44.8253175 C100.586636,44.8934131 100.819087,44.8679839 101.021115,44.7548326 L102.872182,43.7163322 L102.59136,44.5874096 C102.438044,45.0628841 102.671692,45.5636171 103.113179,45.7054402 L108.596986,47.4677336 L107.256458,51.6266844 C106.825226,52.9645323 107.423618,54.4180915 108.672361,55.0662796 L117.410148,59.6030842 C117.553721,59.6774944 117.703105,59.7401287 117.857446,59.7896217 L130.829783,63.9583005 C132.347042,64.4457216 133.972836,63.6130439 134.461155,62.0980451 L134.918538,60.6789603 L139.882063,62.2740014 L138.749887,65.7866415 C136.043194,74.184244 139.618333,81.5716767 149.077062,85.8857626 L168.214322,94.2843892 C172.277097,96.0673331 174.71066,100.276801 174.224905,104.68134 L173.450807,118.361385 C173.033419,122.145554 174.60298,125.611261 177.355309,127.394717 C177.308306,127.528178 177.246262,127.652763 177.210882,127.792709 C176.719657,129.737103 177.545202,131.690883 179.113566,132.757714 C176.596423,139.26912 180.584335,141.358238 183.37854,134.117407 C185.644601,134.585031 187.878871,133.317156 188.665275,131.173766 C192.860514,131.725187 197.14634,128.805951 198.663941,124.097457 L212.138271,70.4125335 C213.294717,66.8248005 211.319392,62.9805571 207.726305,61.8258334 L153.80164,44.4967862 Z M203.616698,75.2633628 C202.738681,77.9871864 199.815602,79.4846066 197.087543,78.6080679 C194.359485,77.7313586 192.85983,74.8124642 193.737848,72.08847 C194.615694,69.3644758 197.538944,67.8668849 200.266831,68.7435943 C202.995061,69.6204743 204.494716,72.539198 203.616698,75.2633628 L203.616698,75.2633628 Z" id="Shape" fill="#002E93" transform="translate(143.207492, 85.822998) rotate(320.000000) translate(-143.207492, -85.822998) "></path>
                <path d="M203.195791,96.001115 C217.683741,133.717769 250.557498,95.9828715 248.272803,142.882204" id="Path-6" stroke="#002E93" stroke-width="6"></path>
            </g>
        </g>
    </g>
</svg>