<svg id="Layer_1" data-name="Layer 1" xmlns="http://www.w3.org/2000/svg" viewBox="0 0 1441.09 655.43"><defs><style>.cls-1{fill:#7ab800;}.cls-2{fill:none;stroke:red;stroke-width:15.4px;}.cls-3{fill:#fff;}</style></defs><title>img_</title><path class="cls-1" d="M765.57,312.77c-20.73,0-34.61-14.79-34.61-34s13.88-34,34.61-34,34.52,14.84,34.52,34S786.25,312.77,765.57,312.77Zm0-55.24c-11.87,0-18.81,8-18.81,21.23S753.69,300,765.57,300s18.72-7.9,18.72-21.23S777.35,257.52,765.57,257.52Z"/><path class="cls-1" d="M842.92,289.8V312H827.49V245.52H851c18.72,0,26.76,9.45,26.76,21.73,0,13.29-8.35,22.55-26.76,22.55h-8Zm0-11.64h8c8,0,11.32-4,11.32-10.91,0-6.07-3.56-10.18-11.32-10.18h-8v21.09Z"/><path class="cls-1" d="M948.67,245.52v11.87h-27.3v15.52h20.91v11.41H921.36v15.84h27.3V312H905.84V245.52h42.83Z"/><path class="cls-1" d="M994.33,247.89l31.59,40c-0.23-2.56-.36-5-0.36-7.12v-35.2h13.61V312h-8a5.93,5.93,0,0,1-5.39-2.56l-31.37-39.63c0.18,2.33.32,4.57,0.32,6.53V312H981.09V245.52h8.13C991.87,245.52,992.64,245.84,994.33,247.89Z"/><path class="cls-1" d="M781.55,365.43H760.37v58h-8.81v-58H730.32V358h51.23v7.44Z"/><path class="cls-1" d="M859.68,423.42h-7.85a3.87,3.87,0,0,1-3.56-1.87l-17-23.38a5,5,0,0,0-1.67-1.58,6.06,6.06,0,0,0-2.76-.48h-6.71v27.31h-8.81V358h18.49a40.42,40.42,0,0,1,10.73,1.25,20.49,20.49,0,0,1,7.47,3.63,14.53,14.53,0,0,1,4.36,5.73,19.16,19.16,0,0,1,1.42,7.51,18.83,18.83,0,0,1-1.1,6.48,17.12,17.12,0,0,1-3.17,5.41,19,19,0,0,1-5.07,4.09,25,25,0,0,1-6.78,2.56,8.76,8.76,0,0,1,2.92,2.79Zm-30.23-33.74a22.39,22.39,0,0,0,6.78-.94,13.87,13.87,0,0,0,4.93-2.65,11,11,0,0,0,3-4.09,13.35,13.35,0,0,0,1-5.25q0-5.84-3.84-8.81t-11.51-3h-9.68v24.7h9.32Z"/><path class="cls-1" d="M941.83,423.42H935a2.94,2.94,0,0,1-1.92-.59,3.64,3.64,0,0,1-1.1-1.51l-6.12-15.8H896.48l-6.12,15.8a3.2,3.2,0,0,1-1.05,1.46,2.92,2.92,0,0,1-1.92.64h-6.85L906.71,358h9Zm-18.45-24.29L913.11,372.5q-0.46-1.19-1-2.76t-1-3.36a49.77,49.77,0,0,1-2,6.16L899,399.13h24.43Z"/><path class="cls-1" d="M1023.56,358v65.43h-4.43a3.8,3.8,0,0,1-1.76-.37,4.43,4.43,0,0,1-1.39-1.23L978.13,372.5q0.09,1.14.14,2.24t0,2.05v46.62h-7.76V358h4.57a6.21,6.21,0,0,1,1,.07,2.57,2.57,0,0,1,.73.23,2.82,2.82,0,0,1,.64.46,7.11,7.11,0,0,1,.68.75L1016,408.76q-0.09-1.19-.16-2.31t-0.07-2.12V358h7.76Z"/><path class="cls-1" d="M1093.83,368.21a3.34,3.34,0,0,1-.89,1,2,2,0,0,1-1.17.34,3.25,3.25,0,0,1-1.83-.78q-1.05-.77-2.63-1.71a21.2,21.2,0,0,0-3.79-1.71,16.34,16.34,0,0,0-5.37-.78,15.67,15.67,0,0,0-5.23.8,11.21,11.21,0,0,0-3.79,2.17,8.9,8.9,0,0,0-2.31,3.22,10.22,10.22,0,0,0-.78,4,7.38,7.38,0,0,0,1.35,4.54,11.58,11.58,0,0,0,3.56,3.08,27.27,27.27,0,0,0,5,2.21l5.75,1.94q2.95,1,5.75,2.26a20.22,20.22,0,0,1,5,3.17,14.5,14.5,0,0,1,3.56,4.7,15.66,15.66,0,0,1,1.35,6.85,22.1,22.1,0,0,1-1.46,8.06,18.58,18.58,0,0,1-4.27,6.55,20,20,0,0,1-6.89,4.38,25.39,25.39,0,0,1-9.29,1.6,28.33,28.33,0,0,1-11.6-2.31,27.19,27.19,0,0,1-8.9-6.23l2.56-4.2a3.37,3.37,0,0,1,.89-0.84,2.08,2.08,0,0,1,1.17-.34,2.59,2.59,0,0,1,1.35.48q0.75,0.48,1.71,1.21t2.19,1.6a18,18,0,0,0,2.81,1.6,19,19,0,0,0,3.58,1.21,19.53,19.53,0,0,0,4.52.48,16.87,16.87,0,0,0,5.62-.87,11.91,11.91,0,0,0,4.18-2.44,10.59,10.59,0,0,0,2.63-3.77,12.6,12.6,0,0,0,.91-4.89,8.2,8.2,0,0,0-1.35-4.86,11.17,11.17,0,0,0-3.54-3.17,24.64,24.64,0,0,0-5-2.17l-5.75-1.83a61.12,61.12,0,0,1-5.75-2.17,18.61,18.61,0,0,1-5-3.2,14.68,14.68,0,0,1-3.54-4.91,18.81,18.81,0,0,1,0-14,17.13,17.13,0,0,1,3.93-5.75,19.2,19.2,0,0,1,6.35-4,23.18,23.18,0,0,1,8.65-1.51,27.53,27.53,0,0,1,10,1.74,23.57,23.57,0,0,1,7.92,5Z"/><path class="cls-1" d="M1149.31,358a36.28,36.28,0,0,1,10.8,1.44,20.75,20.75,0,0,1,7.6,4.09,16.5,16.5,0,0,1,4.5,6.39,22.53,22.53,0,0,1,1.48,8.36,21.29,21.29,0,0,1-1.6,8.36,18,18,0,0,1-4.68,6.53,21.75,21.75,0,0,1-7.63,4.27,32.8,32.8,0,0,1-10.48,1.53h-10.5v24.47H1130V358h19.31Zm0,33.93a20.41,20.41,0,0,0,6.69-1,14,14,0,0,0,4.89-2.81,11.54,11.54,0,0,0,3-4.32,14.74,14.74,0,0,0,1-5.53q0-6.25-3.86-9.77T1149.31,365h-10.5v26.94h10.5Z"/><path class="cls-1" d="M1265.39,390.72a37.76,37.76,0,0,1-2.33,13.49,30.9,30.9,0,0,1-6.58,10.57,29.38,29.38,0,0,1-10.21,6.87,36.69,36.69,0,0,1-26.32,0,29.43,29.43,0,0,1-10.18-6.87,30.9,30.9,0,0,1-6.58-10.57,40.25,40.25,0,0,1,0-27,31.16,31.16,0,0,1,6.58-10.59,29.57,29.57,0,0,1,10.18-6.92,36.36,36.36,0,0,1,26.32,0,29.51,29.51,0,0,1,10.21,6.92,31.16,31.16,0,0,1,6.58,10.59A37.77,37.77,0,0,1,1265.39,390.72Zm-9.09,0a33.24,33.24,0,0,0-1.64-10.82,22.89,22.89,0,0,0-4.66-8.1,20.22,20.22,0,0,0-7.31-5.09,26.59,26.59,0,0,0-19.13,0,20.44,20.44,0,0,0-7.33,5.09,22.7,22.7,0,0,0-4.68,8.1,36.35,36.35,0,0,0,0,21.62,22.73,22.73,0,0,0,4.68,8.08,20.19,20.19,0,0,0,7.33,5.07,26.91,26.91,0,0,0,19.13,0,20,20,0,0,0,7.31-5.07,22.92,22.92,0,0,0,4.66-8.08A33,33,0,0,0,1256.3,390.72Z"/><path class="cls-1" d="M1346.48,423.42h-7.85a3.87,3.87,0,0,1-3.56-1.87l-17-23.38a5,5,0,0,0-1.67-1.58,6.06,6.06,0,0,0-2.76-.48h-6.71v27.31h-8.81V358h18.49a40.42,40.42,0,0,1,10.73,1.25,20.49,20.49,0,0,1,7.47,3.63,14.53,14.53,0,0,1,4.36,5.73,19.16,19.16,0,0,1,1.42,7.51,18.83,18.83,0,0,1-1.1,6.48,17.12,17.12,0,0,1-3.17,5.41,19,19,0,0,1-5.07,4.09,25,25,0,0,1-6.78,2.56,8.76,8.76,0,0,1,2.92,2.79Zm-30.23-33.74a22.39,22.39,0,0,0,6.78-.94,13.87,13.87,0,0,0,4.93-2.65,11,11,0,0,0,3-4.09,13.35,13.35,0,0,0,1-5.25q0-5.84-3.84-8.81t-11.51-3h-9.68v24.7h9.32Z"/><path class="cls-1" d="M1419.68,365.43h-21.19v58h-8.81v-58h-21.23V358h51.23v7.44Z"/><line class="cls-2" x1="341.96" y1="203.59" x2="352.32" y2="335.91"/><line class="cls-2" x1="318.59" y1="207.55" x2="352.39" y2="335.9"/><line class="cls-2" x1="296.3" y1="215.62" x2="352.46" y2="335.87"/><line class="cls-2" x1="275.8" y1="227.54" x2="352.52" y2="335.84"/><line class="cls-2" x1="257.76" y1="242.92" x2="352.58" y2="335.79"/><line class="cls-2" x1="242.75" y1="261.27" x2="352.62" y2="335.74"/><line class="cls-2" x1="231.26" y1="282.02" x2="352.66" y2="335.68"/><line class="cls-2" x1="223.66" y1="304.48" x2="352.69" y2="335.6"/><line class="cls-2" x1="220.19" y1="327.92" x2="352.7" y2="335.53"/><line class="cls-2" x1="220.96" y1="351.62" x2="352.7" y2="335.46"/><line class="cls-2" x1="225.94" y1="374.8" x2="352.68" y2="335.39"/><line class="cls-2" x1="234.99" y1="396.72" x2="352.65" y2="335.32"/><line class="cls-2" x1="247.79" y1="416.67" x2="352.61" y2="335.26"/><line class="cls-2" x1="263.95" y1="434.02" x2="352.56" y2="335.21"/><line class="cls-2" x1="282.95" y1="448.2" x2="352.5" y2="335.16"/><line class="cls-2" x1="304.17" y1="458.76" x2="352.44" y2="335.13"/><line class="cls-2" x1="326.94" y1="465.37" x2="352.37" y2="335.11"/><line class="cls-2" x1="350.52" y1="467.81" x2="352.29" y2="335.1"/><line class="cls-2" x1="374.17" y1="466" x2="352.23" y2="335.11"/><line class="cls-2" x1="397.1" y1="460" x2="352.16" y2="335.12"/><line class="cls-2" x1="418.6" y1="450.01" x2="352.09" y2="335.15"/><line class="cls-2" x1="437.97" y1="436.34" x2="352.03" y2="335.19"/><line class="cls-2" x1="454.58" y1="419.43" x2="351.98" y2="335.24"/><line class="cls-2" x1="467.92" y1="399.83" x2="351.94" y2="335.3"/><line class="cls-2" x1="477.55" y1="378.16" x2="351.91" y2="335.36"/><line class="cls-2" x1="483.15" y1="355.12" x2="351.89" y2="335.44"/><line class="cls-2" x1="484.55" y1="331.45" x2="351.89" y2="335.51"/><line class="cls-2" x1="481.7" y1="307.92" x2="351.9" y2="335.58"/><line class="cls-2" x1="474.7" y1="285.26" x2="351.91" y2="335.65"/><line class="cls-2" x1="463.77" y1="264.23" x2="351.95" y2="335.71"/><line class="cls-2" x1="449.26" y1="245.47" x2="351.99" y2="335.77"/><line class="cls-2" x1="431.63" y1="229.62" x2="352.04" y2="335.82"/><line class="cls-2" x1="411.46" y1="217.16" x2="352.1" y2="335.86"/><line class="cls-2" x1="389.39" y1="208.49" x2="352.17" y2="335.89"/><line class="cls-2" x1="366.13" y1="203.91" x2="352.23" y2="335.9"/><rect class="cls-1" x="445.93" y="83.36" width="173.94" height="21.01" transform="translate(138.77 464.63) rotate(-53.24)"/><rect class="cls-1" x="424.98" y="95.41" width="83.79" height="21.01" transform="translate(163.9 476.58) rotate(-63.52)"/><rect class="cls-1" x="364.96" y="55.68" width="131.74" height="21.02" transform="translate(247.11 461.46) rotate(-73.8)"/><rect class="cls-1" x="337.23" y="69.9" width="83.76" height="21.02" transform="translate(260.11 449.24) rotate(-84.09)"/><rect class="cls-1" x="322.35" y="27.83" width="21.01" height="93.85" transform="matrix(1, -0.08, 0.08, 1, -4.74, 25.65)"/><polygon class="cls-1" points="288.43 130.53 272.16 68.39 292.49 63.07 308.75 125.21 288.43 130.53"/><rect class="cls-1" x="242.9" y="99.81" width="21.01" height="43.06" transform="translate(-27.53 118.25) rotate(-24.96)"/><rect class="cls-1" x="213.9" y="144.75" width="21.01" height="16.88" transform="translate(-47.27 157.47) rotate(-35.22)"/><rect class="cls-1" x="164.89" y="126.21" width="21.02" height="69.06" transform="translate(-62.18 173.29) rotate(-45.53)"/><polygon class="cls-1" points="169.8 223.29 93.55 171 105.36 153.62 181.61 205.91 169.8 223.29"/><rect class="cls-1" x="122.54" y="211.22" width="21.01" height="52.52" transform="translate(-137.98 262.89) rotate(-66.1)"/><rect class="cls-1" x="63.08" y="194.06" width="21.01" height="146.34" transform="translate(-203.45 275.82) rotate(-76.38)"/><rect class="cls-1" x="75.46" y="266.17" width="21.02" height="106.29" transform="translate(-237.8 386.58) rotate(-86.67)"/><rect class="cls-1" x="37" y="356.52" width="103.61" height="21.01" transform="translate(-43.73 13.43) rotate(-6.94)"/><rect class="cls-1" x="124.69" y="391.34" width="24.09" height="21.01" transform="translate(-112.95 58.58) rotate(-17.24)"/><rect class="cls-1" x="80.6" y="443.4" width="87.17" height="21.01" transform="translate(-195.67 108.73) rotate(-27.52)"/><rect class="cls-1" x="99.42" y="484.38" width="93.98" height="21.01" transform="matrix(0.79, -0.61, 0.61, 0.79, -272.64, 193.64)"/><rect class="cls-1" x="133.27" y="517.76" width="91.61" height="21.01" transform="translate(-333.71 308.75) rotate(-48.1)"/><rect class="cls-1" x="208.16" y="524.65" width="42.29" height="21.01" transform="translate(-346.64 449.93) rotate(-58.39)"/><rect class="cls-1" x="218.59" y="562.11" width="82.33" height="21.01" transform="translate(-368.12 606.22) rotate(-68.66)"/><rect class="cls-1" x="266.56" y="571.56" width="75.55" height="21.01" transform="translate(-325.27 769.23) rotate(-78.95)"/><rect class="cls-1" x="323.11" y="564.72" width="52.55" height="21.01" transform="translate(-230.47 916.88) rotate(-89.23)"/><rect class="cls-1" x="385.89" y="545.34" width="21.01" height="101.61" transform="translate(-93.18 73.81) rotate(-9.52)"/><rect class="cls-1" x="425.02" y="534.53" width="21.01" height="61.38" transform="translate(-165.76 181.02) rotate(-19.81)"/><polygon class="cls-1" points="450.83 525.45 527.04 655.43 545.22 644.89 469.01 514.91 450.83 525.45"/><polygon class="cls-1" points="495.29 517.24 483.67 505.32 498.86 490.79 510.48 502.71 495.29 517.24"/><rect class="cls-1" x="533.85" y="458.29" width="21.02" height="67.73" transform="translate(-181.34 601.29) rotate(-50.67)"/><rect class="cls-1" x="555.99" y="423.22" width="21.01" height="61.21" transform="translate(-105.29 728.73) rotate(-60.95)"/><polygon class="cls-1" points="577.78 422.62 551.93 413.84 558.68 393.94 584.52 402.71 577.78 422.62"/><rect class="cls-1" x="594.34" y="331.7" width="21.01" height="81.87" transform="translate(147.15 915.97) rotate(-81.53)"/><rect class="cls-1" x="566.59" y="316.97" width="51.99" height="21.02" transform="translate(-10.11 19) rotate(-1.82)"/><rect class="cls-1" x="561.25" y="272.81" width="65.71" height="21.01" transform="translate(-46.19 130.85) rotate(-12.1)"/><rect class="cls-1" x="548.94" y="234.51" width="44.83" height="21.01" transform="translate(-50.25 236.11) rotate(-22.39)"/><rect class="cls-1" x="522.61" y="173.83" width="130.35" height="21.02" transform="translate(-6.56 346.28) rotate(-32.65)"/><rect class="cls-1" x="506.37" y="170.97" width="22.65" height="21.01" transform="translate(15.19 401.54) rotate(-42.97)"/><path class="cls-3" d="M389.39,298.6v0a13.16,13.16,0,0,0-13.09-11.83H329.08A13.16,13.16,0,0,0,316,298.57v0l-3.38,38.72V374.9h7.47v8.2a7.77,7.77,0,0,0,15.54,0v-8.2h34.14v8.2a7.77,7.77,0,0,0,15.54,0v-8.2h7.48V337.32Zm-60.9,58.78a6.73,6.73,0,1,1,6.73-6.73A6.73,6.73,0,0,1,328.49,357.38Zm-6.3-24.22,1.87-21.61v0c0.54-5.41,3.86-9.64,9.41-9.64h38.66c5.56,0,8.87,4.23,9.41,9.64v0l1.62,21.61h-61Zm54.7,24.22a6.73,6.73,0,1,1,6.73-6.73A6.73,6.73,0,0,1,376.9,357.38Z"/></svg>