<svg xmlns="http://www.w3.org/2000/svg" xmlns:xlink="http://www.w3.org/1999/xlink" viewBox="0 0 16 16">
  <style>
    .st0 { clip-path: url(#SVGID_2_); } .st1 { fill: #473D34; } .st2 { fill: #302924; } .st3 { fill: #FFBC7D; } .st4 { fill: #FFFFFF; stroke: #000000; stroke-width: 0.1; stroke-miterlimit: 10; } .st5 { fill: #1BB25F; } .st6 { fill: #FFFFFF; } .st7 { fill: #FFFFFF; stroke: #E4585B; stroke-width: 0.1; stroke-miterlimit: 10; } .st8 { fill: #4CA1AF; } .st9 { fill: #894E27; } .st10 { fill: #723E21; }
  </style>
  <g id="Isolatiemodus">
    <defs>
      <path id="SVGID_1_" d="M0 0h16v16H0z"/>
    </defs>
    <clipPath id="SVGID_2_">
      <use xlink:href="#SVGID_1_" overflow="visible"/>
    </clipPath>
    <g class="st0">
      <path d="M11.2 5.7s1.7 2.9-.1 4.7-3.6 3.1-4 3.8c-.4.6-7.1 1.6-7.8.7-.7-.9-.7-2.2-.9-3.1-.2-.9-1.8-4.6-2.2-5.1s8.7-5.2 8.7-5.2l6.3 4.2z" class="st1"/>
      <path d="M9.7 5.4s1.9 2.8.1 4.6-1.1 1-1.7 1.5c-1.8 1.6-1.1 1.4-1.8 1.6-3.2 1.3-7.1 1.6-7.8.7-.7-.9-.7-2.2-.9-3.1-.2-.9-1.8-4.6-2.2-5.1S4.1.4 4.1.4l5.6 5z" class="st2"/>
      <ellipse cx="6" cy="11.1" transform="rotate(-21.22 6.004 11.087)" class="st3" rx=".4" ry=".4"/>
      <path d="M3.4 2.9c1.9-.7 4.3.7 5 2.6.8 1.8 1.8 3.5.3 4.4-.2.1-2 .9-2.1.9-1.9.7-4.3-.7-5-2.6s-.1-4.5 1.8-5.3z" class="st3"/>
      <path d="M1.84 6.874l.904 2.33-1.957.76-.905-2.33z" class="st3"/>
      <path d="M-.8 6.2s2.1 2.3 2 5-2.4-.7-2.4-.7l-1.1-2.2 1.5-2.1z" class="st3"/>
      <path d="M7 8.7s-.1.5 0 .8l.1.3S6 9.3 5.9 9.2C5.7 9.1 7 8.7 7 8.7z"/>
      <ellipse cx="6.3" cy="8.7" transform="rotate(-21.22 6.328 8.744)" class="st4" rx=".6" ry=".6"/>
      <ellipse cx="6.3" cy="8.7" transform="rotate(-21.22 6.328 8.744)" class="st5" rx=".5" ry=".5"/>
      <ellipse cx="6.3" cy="8.7" transform="rotate(-21.22 6.328 8.744)" rx=".4" ry=".4"/>
      <ellipse cx="6.7" cy="8.8" transform="rotate(-21.22 6.677 8.804)" class="st6" rx=".2" ry=".2"/>
      <ellipse cx="5.9" cy="8.7" transform="rotate(-21.22 5.877 8.73)" class="st6" rx=".1" ry=".1"/>
      <path d="M5.4 4.5s-.4-.3-.5-.6l-.1-.2S4.2 4.8 4.2 5c0 .2 1.2-.5 1.2-.5z"/>
      <ellipse cx="4.9" cy="5" transform="rotate(-21.22 4.875 5.002)" class="st4" rx=".6" ry=".6"/>
      <ellipse cx="4.9" cy="5" transform="rotate(-21.22 4.875 5.002)" class="st5" rx=".5" ry=".5"/>
      <ellipse cx="4.9" cy="5" transform="rotate(-21.22 4.875 5.002)" rx=".4" ry=".4"/>
      <ellipse cx="5.1" cy="4.7" transform="rotate(-21.22 5.092 4.722)" class="st6" rx=".2" ry=".2"/>
      <ellipse cx="4.6" cy="5.3" transform="rotate(-21.22 4.55 5.315)" class="st6" rx=".1" ry=".1"/>
      <path d="M3 6.1c-1.1.9-.9 1.3-.7 1.8.2.4.3 1 1.7 1L3 6.1z" class="st7"/>
      <path d="M6.9 7.9c.3.3.4.3.5 1.1v.2c-.1 0 .5-.8-.5-1.3 0-.1 0-.1 0 0z" class="st1"/>
      <path d="M7.5 7.6C5.9 6.3 5.1 2.3 4.1 2.7S3 3.6 1.7 4.6c-.4.3-.3.6-.7 1-.9.7-4.9 2-5 2-.2-.1 0-3.6 1.6-5.3S1.8-.4 2.5-.1 4-.4 5.6-.4 8.3.4 9.2.9c.9.5 2.5 5.6 2.6 6.2.2.6-2.8 1.8-4.3.5z" class="st1"/>
    </g>
    <g class="st0">
      <path d="M8.7 12.8c-.8-2.1.7-4.6 2.7-5.5 1.9-.8 3.7-1.9 4.7-.3.1.2 1 2.1 1 2.3.8 2.1-.7 4.6-2.8 5.5s-4.8 0-5.6-2z" class="st3"/>
      <ellipse cx="17.5" cy="10.1" transform="rotate(-21.952 17.51 10.073)" class="st3" rx=".5" ry=".5"/>
      <path d="M13.063 14.597l2.505-1.01.86 2.134-2.505 1.01z" class="st3"/>
      <ellipse cx="15" cy="9.8" transform="rotate(-21.952 14.986 9.757)" class="st4" rx=".7" ry=".7"/>
      <ellipse cx="15" cy="9.8" transform="rotate(-21.952 14.986 9.757)" class="st8" rx=".6" ry=".6"/>
      <ellipse cx="15" cy="9.8" transform="rotate(-21.952 14.986 9.757)" rx=".4" ry=".4"/>
      <ellipse cx="15" cy="9.4" transform="rotate(-21.952 15.046 9.38)" class="st6" rx=".2" ry=".2"/>
      <ellipse cx="15" cy="10.2" transform="rotate(-21.952 14.978 10.242)" class="st6" rx=".1" ry=".1"/>
      <ellipse cx="11" cy="11.4" transform="rotate(-21.952 10.98 11.372)" class="st4" rx=".7" ry=".7"/>
      <ellipse cx="11" cy="11.4" transform="rotate(-21.952 10.98 11.372)" class="st8" rx=".6" ry=".6"/>
      <ellipse cx="11" cy="11.4" transform="rotate(-21.952 10.98 11.372)" rx=".4" ry=".4"/>
      <ellipse cx="10.7" cy="11.1" transform="rotate(-21.952 10.675 11.142)" class="st6" rx=".2" ry=".2"/>
      <ellipse cx="11.3" cy="11.7" transform="rotate(-21.952 11.32 11.716)" class="st6" rx=".1" ry=".1"/>
      <path d="M17 9.3s-.1 1.3-.4 2c-.3.7-.9.1-3.1 1-2.2.8-2.2 1.7-2.9 1.4-.8-.3-1.7-1.1-1.7-1.1s.4 1.8.9 2.2c1.6 1.4 3.8 1.3 5.1.8 1.2-.5 2.9-2 3.1-4.1-.1-.6-1-2.2-1-2.2z" class="st9"/>
      <path d="M12.4 14c.5-.2.1 1 1.9.4 1.8-.6.6-1.4 1.1-1.6l-3 1.2z" class="st6"/>
      <path d="M11.5 5.3s3.3-1.7 4-.5 2 3.9 1.8 4.8c-.2.1-2.8-3.4-4.3-3s-1.3-.9-1.3-.9l-.2-.4z" class="st10"/>
      <path d="M8.3 11.6c-.1-.7-1.1-2.2-.4-3.3s2.3-2.6 3.2-2.8c.9-.1 2.7-.1 1.3 1.9S9.2 11 9.2 11.8c-.2 2.7-.3 1.4-1.2 2.8-.1 0-.1-.3 0-.5.5-.9.3-1.8.3-2.5zm6.8-3.4l-1.4.8v-.2l1.3-.7z" class="st9"/>
      <path d="M9.8 10.4l1.6-.5-.1-.2-1.5.4z" class="st9"/>
    </g>
  </g>
</svg>
