<?xml version="1.0" standalone="no"?>
<!DOCTYPE svg PUBLIC "-//W3C//DTD SVG 20010904//EN"
 "http://www.w3.org/TR/2001/REC-SVG-20010904/DTD/svg10.dtd">
<svg version="1.0" xmlns="http://www.w3.org/2000/svg"
 width="700.000000pt" height="700.000000pt" viewBox="0 0 700.000000 700.000000"
 preserveAspectRatio="xMidYMid meet">
<metadata>
Created by potrace 1.11, written by Peter Selinger 2001-2013
</metadata>
<g transform="translate(0.000000,700.000000) scale(0.100000,-0.100000)"
fill="#000000" stroke="none">
<path d="M445 6956 c-128 -45 -205 -77 -353 -146 l-92 -43 0 -1481 0 -1481 33
-51 32 -52 259 102 259 101 2 230 c2 184 6 254 23 350 28 158 61 278 113 409
42 106 43 108 118 169 117 94 221 188 400 360 191 184 302 270 426 331 80 40
100 45 181 51 88 5 91 5 130 -23 126 -91 240 -289 571 -987 352 -743 610
-1089 931 -1249 l72 -37 -51 -76 c-68 -100 -115 -204 -134 -293 -30 -143 -15
-336 42 -538 22 -79 24 -95 12 -103 -33 -21 -463 -199 -551 -228 l-96 -32 14
-34 c67 -162 -131 -303 -271 -194 -38 30 -56 74 -56 133 l0 53 -117 6 c-432
22 -878 233 -1224 578 l-117 117 -258 -100 c-142 -55 -262 -103 -266 -108 -5
-4 -2 -43 7 -86 28 -140 39 -298 33 -487 -6 -250 -37 -358 -122 -437 -23 -22
-36 -25 -98 -25 -84 0 -134 21 -234 97 l-63 47 0 -723 0 -724 48 -6 c110 -14
678 -18 850 -7 728 48 1479 172 1954 323 168 53 217 84 292 181 96 126 477
499 493 483 9 -9 -15 -175 -39 -259 -10 -39 -35 -105 -55 -146 -51 -110 -73
-178 -73 -227 0 -95 19 -96 85 -2 71 101 136 170 232 245 45 35 91 76 101 91
16 22 44 91 69 172 2 8 28 -55 58 -140 117 -344 183 -460 328 -578 302 -247
696 -402 1127 -443 151 -14 440 -6 590 17 147 22 347 75 464 123 113 46 268
134 392 222 l84 60 0 709 c0 674 -1 710 -18 710 -44 0 -279 -33 -401 -56 -196
-37 -407 -101 -661 -199 -423 -165 -573 -247 -885 -485 -249 -190 -276 -195
-510 -80 -168 82 -288 159 -533 346 -7 5 39 491 50 524 33 105 135 272 276
451 l81 104 273 84 c150 47 283 88 296 93 l23 8 -21 40 c-12 23 -28 40 -38 40
-9 0 -100 -22 -201 -50 -102 -27 -186 -48 -188 -47 -1 2 88 111 199 242 528
629 786 984 857 1176 8 21 19 28 67 37 89 18 209 15 292 -8 245 -68 562 -287
920 -634 l122 -119 0 572 0 571 -41 83 c-74 147 -192 350 -225 387 -127 141
-422 162 -820 60 -217 -56 -521 -169 -777 -289 l-108 -50 16 -32 c9 -17 15
-32 13 -34 -2 -2 -26 -7 -53 -10 l-50 -7 -34 104 c-49 153 -191 551 -259 728
-216 563 -439 1000 -579 1132 -41 39 -348 216 -581 334 l-202 104 -1368 -1
-1367 0 -120 -43z m6247 -5595 c-15 -27 -15 -36 1 -133 21 -127 21 -152 0
-219 -25 -78 -112 -162 -228 -221 -184 -94 -414 -158 -568 -158 -164 0 -230
33 -322 161 -40 55 -65 81 -84 85 -14 3 -30 7 -34 8 -6 1 1228 500 1250 506 1
0 -5 -13 -15 -29z"/>
<path d="M1988 5168 c-59 -117 -116 -237 -127 -266 -22 -55 -27 -102 -12 -102
5 0 11 -18 15 -41 19 -120 130 -216 261 -226 152 -12 286 103 302 261 6 60 -7
109 -45 176 -15 25 -26 50 -27 55 0 6 -37 48 -83 95 -68 69 -91 101 -125 172
-22 48 -44 88 -47 88 -3 0 -54 -96 -112 -212z m240 -130 c118 -36 185 -199
131 -318 -27 -60 -54 -88 -114 -116 -219 -104 -432 144 -298 347 58 88 168
122 281 87z"/>
<path d="M2055 5011 c-76 -35 -125 -111 -125 -194 0 -72 26 -128 45 -97 9 14
48 13 63 -2 16 -16 15 -51 0 -66 -15 -15 -1 -27 52 -42 73 -21 135 -4 196 52
69 63 90 161 52 243 l-11 24 -32 -35 c-44 -47 -92 -48 -130 -2 -22 26 -25 38
-20 67 3 20 15 44 27 54 20 17 19 17 -28 17 -27 0 -67 -9 -89 -19z"/>
<path d="M1216 4274 c-126 -112 -208 -211 -254 -303 -35 -71 -37 -81 -37 -170
0 -112 18 -172 101 -348 119 -248 278 -342 614 -362 74 -4 136 -7 137 -6 5 3
-452 1275 -458 1275 -4 0 -50 -39 -103 -86z m295 -555 c112 -314 206 -575 207
-580 5 -14 -123 -10 -210 5 -245 44 -355 128 -457 350 -116 252 -119 372 -12
531 34 50 245 265 260 265 4 0 100 -257 212 -571z"/>
<path d="M3083 3481 c32 -35 67 -81 78 -103 26 -51 53 -158 69 -273 l13 -90
14 45 c8 25 15 83 16 130 2 74 -1 92 -25 140 -33 67 -98 136 -169 180 l-54 33
58 -62z"/>
<path d="M2622 3440 c-101 -51 -155 -138 -155 -250 0 -123 70 -225 184 -268
30 -11 137 -61 239 -110 102 -49 192 -91 201 -95 14 -4 12 7 -10 71 -24 71
-26 90 -26 237 0 116 -3 164 -12 173 -7 7 -13 25 -13 40 -1 68 -76 169 -155
207 -25 12 -68 21 -115 23 -68 3 -81 1 -138 -28z m197 -26 c62 -18 121 -68
143 -121 66 -159 67 -164 12 -214 -16 -15 -42 -41 -58 -58 -38 -43 -78 -62
-141 -68 -107 -11 -195 41 -242 143 -21 46 -25 66 -20 109 10 100 67 174 159
206 65 23 81 23 147 3z"/>
<path d="M2653 3375 c-49 -25 -94 -75 -107 -121 -6 -18 -3 -21 17 -17 26 5 57
-19 57 -42 0 -19 -46 -49 -65 -41 -19 7 -19 -5 0 -52 56 -133 234 -169 342
-69 l23 20 -35 31 c-32 29 -39 46 -36 89 2 29 47 67 80 67 29 0 30 1 20 29
-13 38 -67 93 -112 114 -52 25 -124 22 -184 -8z"/>
<path d="M6270 3300 l-275 -149 -3 -40 c-2 -23 1 -41 6 -41 8 0 513 285 580
327 23 14 23 15 6 34 -9 10 -22 19 -28 19 -6 -1 -135 -68 -286 -150z"/>
<path d="M6500 3036 c-92 -20 -161 -68 -207 -144 -104 -170 -44 -381 133 -472
42 -22 62 -25 144 -25 83 0 101 4 145 27 65 34 128 100 157 163 33 75 32 191
-4 267 -65 140 -220 217 -368 184z m187 -66 c96 -41 155 -130 161 -243 4 -60
1 -75 -27 -132 -52 -104 -136 -158 -251 -158 -106 0 -194 50 -247 140 -35 61
-44 172 -18 240 30 79 103 144 195 174 40 13 132 3 187 -21z"/>
<path d="M6465 2951 c-122 -55 -183 -198 -136 -322 69 -183 302 -227 432 -82
60 67 80 168 50 257 -25 74 -132 165 -194 166 -15 0 -13 -4 9 -24 36 -31 38
-84 5 -120 -57 -60 -151 -18 -151 67 0 13 12 36 26 51 32 31 17 34 -41 7z
m125 -390 c16 -31 12 -51 -14 -62 -28 -13 -66 3 -66 27 0 29 21 54 45 54 14 0
29 -8 35 -19z"/>
<path d="M4754 2340 c-256 -53 -353 -372 -169 -555 121 -122 320 -128 449 -13
148 129 147 353 -1 488 -75 68 -184 100 -279 80z m191 -74 c210 -103 201 -405
-14 -504 -207 -95 -436 88 -390 311 38 184 232 276 404 193z"/>
<path d="M4720 2255 l-34 -16 24 -12 c54 -27 64 -94 21 -138 -49 -48 -123 -33
-143 31 -9 28 -30 -74 -26 -125 11 -126 107 -222 233 -233 105 -9 198 43 248
138 26 50 28 62 25 130 -6 98 -39 154 -123 208 -51 33 -170 41 -225 17z m260
-350 c31 -38 -27 -96 -65 -65 -18 15 -20 51 -3 68 17 17 53 15 68 -3z"/>
</g>
</svg>
